<?xml version="1.0" encoding="utf-8"?>
<!-- Generator: Adobe Illustrator 23.0.6, SVG Export Plug-In . SVG Version: 6.00 Build 0)  -->
<svg version="1.1" id="Layer_1" xmlns="http://www.w3.org/2000/svg" xmlns:xlink="http://www.w3.org/1999/xlink" x="0px" y="0px"
	 viewBox="0 0 74 74" style="enable-background:new 0 0 74 74;" xml:space="preserve">
<style type="text/css">
	.st0{fill:#3A5A3D;}
	.st1{fill:#FFFFFF;}
	.st2{fill:#0E0E0E;}
	.st3{fill:#0F0F0F;}
</style>
<path class="st0" d="M37.3,63.1c-5.5-0.1-9.9-0.7-14.2-2c-5.5-1.6-10.4-4.1-14.7-7.9c-3.1-2.8-5.6-6.1-6.8-10.1
	c-2.1-6.4-1-12.2,2.8-17.7c2.9-4.2,6.9-7.3,11.4-9.6c5.1-2.6,10.5-4.1,16.1-4.6c6.9-0.7,13.8-0.1,20.4,2.1
	c5.6,1.8,10.7,4.6,14.8,8.9c3.1,3.2,5.3,6.9,6.1,11.3c0.9,5.2-0.2,10.1-3.1,14.5c-2.7,4.1-6.3,7.1-10.5,9.4
	c-4.7,2.7-9.9,4.3-15.2,5.1C41.7,62.9,38.9,63.1,37.3,63.1z"/>
<path class="st1" d="M37.1,13.2c7.1,0,13.8,1.4,20.2,4.6c4.2,2.1,7.9,4.9,10.6,8.9c2.4,3.5,3.6,7.3,3.4,11.5
	c-0.2,3.5-1.5,6.6-3.6,9.4c-2.7,3.7-6.3,6.5-10.4,8.5c-4.5,2.3-9.3,3.6-14.3,4.2c-7.8,0.9-15.5,0.1-22.8-2.8c-4.2-1.7-8-4-11.2-7.2
	c-2.7-2.7-4.7-5.9-5.6-9.7c-1.1-4.9-0.1-9.4,2.6-13.6c2.5-3.8,6-6.6,10-8.8c4.5-2.5,9.4-4,14.5-4.7C32.5,13.3,34.8,13.2,37.1,13.2z"
	/>
<path class="st2" d="M38.7,44.9c-1.6,0.3-2.9,1.1-3.6,2.6c-0.5,1.1-0.8,2.3-0.9,3.6c-0.1,1.5,0.1,3.1,0.3,4.6c0.1,0.6,0.1,1.1,0,1.7
	c-0.1,0.9-0.7,1.4-1.7,1.4c-1.1,0-2.2-0.2-3.3-0.4c-3-0.5-6-1.2-8.8-2.4c-0.8-0.3-1.5-0.7-2.2-1.2c-0.2-0.1-0.5-0.3-0.4-0.5
	c0.1-0.2,0.4-0.1,0.6,0c0.7,0.1,1.4,0.4,2.1,0.6c3.1,1,6.3,1.6,9.6,1.7c0.7,0,1.4,0,2-0.2c0.5-0.2,0.5-0.3,0.3-0.7
	c-0.4-0.6-0.9-0.9-1.6-0.9c-0.1,0-0.2,0-0.3,0c-0.3,0-0.7,0.1-0.8-0.3c-0.2-0.4-0.2-0.8,0.1-1.2c0.1-0.2,0.2-0.3,0.4-0.4
	c0.3-0.2,0.6-0.5,1-0.7c1.6-1,2-2.5,1.8-4.3c0-0.2-0.1-0.4-0.1-0.6c-0.1-0.7,0.2-1.2,0.8-1.4c0.4-0.1,0.8-0.2,1.2-0.3
	c0.3-0.1,0.5-0.2,0.5-0.5c0-0.3-0.2-0.5-0.4-0.6c-0.2-0.1-0.4-0.2-0.7-0.3c-0.9-0.3-1.6-0.9-2.2-1.7c-0.1-0.2-0.3-0.4-0.5-0.6
	c-0.1-0.1-0.2-0.3-0.4-0.2c-0.2,0-0.2,0.2-0.3,0.4c-0.1,0.7-0.2,1.3-0.2,2c-0.1,0.8-0.1,1.6-0.4,2.5c-0.1,0.4-0.3,0.8-0.9,0.9
	c-0.6,0.1-1-0.2-1.3-0.7c-0.5-1-0.5-2.1-0.4-3.1c0.3-3.7,1.3-7.3,2.6-10.8c0.1-0.3,0.2-0.5,0.4-0.8c0.1-0.1,0.1-0.3,0.3-0.2
	c0.2,0,0.1,0.2,0.1,0.4c-0.1,0.6-0.2,1.2-0.3,1.8c-0.3,2.2-0.1,4.4,0.7,6.5c0.6,1.6,2,2.5,3.5,3.2c2.6,1.1,4.8,0.7,6.7-1.4
	c0.4-0.5,0.8-0.9,1.2-1.4c0.2-0.2,0.3-0.4,0.5-0.5c0.2-0.2,0.4-0.3,0.6-0.1c0.2,0.2,0.1,0.4,0,0.6c-0.1,0.2-0.3,0.5-0.5,0.7
	c-0.5,0.7-1.1,1.4-1.5,2.2c-0.2,0.4-0.1,0.5,0.3,0.6c0.3,0.1,0.7,0.1,1,0.1c1.5,0,3,0.3,4.5,0.7c1.2,0.3,2.1,1.1,2.7,2.2
	c0.2,0.4,0.6,0.6,1,0.6c0.8-0.1,1.5,0.1,2.3,0.2c0.5,0.1,1-0.2,1.3-0.6c0.1-0.2,0-0.3-0.1-0.5c-0.2-0.3-0.4-0.5-0.7-0.6
	c-1-0.6-2-1.2-3.1-1.5c-1-0.2-0.9-0.5-0.8-1.6c0-0.3,0.1-0.8,0.5-0.8c0.4,0,0.5,0.4,0.7,0.7c0.3,0.7,0.8,1.1,1.4,1.4
	c0.8,0.3,1.4,0.9,2,1.5c0.8,0.9,1.2,0.9,2.1,0.1c0.1-0.1,0.3-0.2,0.4-0.4c0.7-0.5,1-1.2,0.7-2.1c-0.1-0.2-0.1-0.5,0-0.8
	c0.2-1-0.5-1.7-1.6-1.4c-0.3,0.1-0.6,0.2-0.9,0.2c-0.5,0-0.8-0.2-0.9-0.7c-0.1-0.4,0-0.8,0.1-1.1c0.1-0.3,0.4-0.3,0.6-0.3
	c0.7,0.1,1.2,0.4,1.8,0.8c0.3,0.2,0.5,0.5,0.9,0.6c0.4,0.1,0.8-0.1,0.7-0.5c-0.1-0.6-0.4-1.1-1-1.5c-0.6-0.4-1.2-0.8-1.9-1.1
	c-2.1-1.1-3.8-2.6-5.7-4c-1.1-0.8-2.2-1.7-3.2-2.7c-0.1-0.1-0.3-0.3-0.4-0.4c-0.5-0.5-0.9-1.1-0.9-1.9c-0.1-0.8-0.5-1.4-1.3-1.4
	c-1.6-0.1-2.7-1-3.8-2.1c-0.6-0.5-1.1-1.1-1.7-1.6C39,23.4,39,23.1,39,22.8c0.1-0.3,0.1-0.7,0.2-1c0.5-1.5,0.1-3-0.1-4.5
	c-1.6,0.8-1.9,2.4-2.7,3.7c-0.2-1.5-0.7-2.9-1.1-4.3c-0.3,0.1-0.3,0.4-0.3,0.5c-0.7,1.7-1.4,3.5-2.3,5.1c-0.3,0.6-0.7,1-1.1,1.5
	c-2.8,2.8-5.7,5.6-8.3,8.5c-3,3.4-5.7,7-7.6,11.1c-0.7,1.5-1.6,3-2.7,4.3c-0.4,0.5-0.9,1-1.5,1.3c-0.7,0.4-1.4,0.4-2-0.2
	c-2.6-2.6-4.5-5.5-5.1-9.1c-0.8-4.5,0.5-8.6,2.9-12.4c2.2-3.4,5.3-5.9,8.8-7.8c3.4-1.9,7-3.2,10.8-4c1.9-0.4,3.9-0.6,5.8-0.8
	c2-0.2,4-0.2,6-0.2c5.9,0.3,11.6,1.4,17.1,3.9c4.4,2,8.1,4.8,10.9,8.9c1.6,2.4,2.7,4.9,3.1,7.8c0.4,3-0.1,5.8-1.4,8.5
	c-2.3,4.8-5.9,8.2-10.6,10.6c-2.4,1.2-4.8,2.5-7.4,3.3c-1.8,0.6-3.6,0.9-5.5,1.2c-1.9,0.2-3.9,0.5-5.9,0.5c-2.4,0-3.5-0.8-4-3.1
	c-0.5-2.2-0.8-4.5-0.2-6.7c0.4-1.7,1.4-2.9,2.9-3.8c0.3-0.1,0.5-0.3,0.7-0.5C38.6,45.1,38.6,45,38.7,44.9z"/>
<path class="st3" d="M42.7,35.5c-0.7,0-1.2-0.3-0.7-1.1c0.1-0.1,0.1-0.2,0.2-0.3c0.2-0.5,0.4-0.8-0.3-1.1c0,0-0.1,0-0.1-0.1
	c-0.5-0.8-1.2-0.7-2-0.7c-1.2,0-2.6-1-2.9-2.2c-0.1-0.5-0.1-0.9,0.1-1.3c0.1-0.3,0.3-0.5,0.4-0.8c0.3-0.7,0.2-1.1-0.4-1.5
	c-0.2-0.2-0.5-0.3-0.8-0.4c0.6-0.3,1.8,0,2.2,0.6c0.2,0.3,0.1,0.6-0.1,0.9c-0.3,0.6-0.6,1.2-0.8,1.9c0,0.2-0.1,0.3-0.1,0.5
	c0,0.3,0.2,0.5,0.5,0.4c0.5-0.1,0.8-0.4,1.2-0.7c0.9-0.7,2-0.9,3.1-0.5c0.7,0.2,1,0.7,0.9,1.4c0,0.1,0,0.3-0.2,0.3
	c-0.2,0-0.2-0.1-0.3-0.2c0,0,0,0,0,0c-0.3-0.4-0.6-1-1.1-1c-0.8,0-1.6,0.2-2.3,0.7c-0.3,0.2-0.4,0.6-0.3,1c0.1,0.3,0.4,0.5,0.7,0.5
	c0.5,0.1,1,0,1.5,0c0.1,0,0.2,0,0.2-0.1c0-0.1-0.1-0.1-0.2-0.2c-0.2-0.1-0.4-0.3-0.6-0.4c-0.2-0.2-0.2-0.4,0-0.5
	c0.4-0.3,0.8-0.5,1.3-0.3c0.5,0.1,0.7,0.7,0.4,1.2c0,0.1-0.1,0.1-0.1,0.2c-0.2,0.2-0.4,0.5-0.3,0.8c0.2,0.3,0.5,0.3,0.8,0.3
	c0.4,0,0.5,0.1,0.4,0.5c-0.1,0.5-0.3,1-0.4,1.5C42.5,35,42.5,35.2,42.7,35.5z"/>
<path class="st3" d="M35.3,19.1c0.8,1.8,0.6,3.3-0.6,4.7c-0.2,0.2-0.2,0.1-0.3,0c-0.6-0.6-0.9-1.5,0-2.2
	C35.1,21,35.4,20.2,35.3,19.1z"/>
<path class="st0" d="M66.4,37.2c-0.1,3-1.2,5.7-3.1,8c-1.7,2.2-3.9,3.7-6.1,5.1c-3.4,2.2-7.1,3.7-11.1,4.4c-1.2,0.2-2.3,0.3-3.5,0.4
	c-0.7,0-1.3-0.1-1.9-0.3c-0.8-0.3-1.4-0.8-1.7-1.6c-0.5-1.5-0.5-3.1,0-4.6c0.5-1.3,1.5-1.9,2.8-2.1c1.6-0.2,3.1,0.3,4.5,1
	c0.5,0.3,1,0.6,1.4,0.9c1.3,1,2.8,1.3,4.4,1.4c1,0,2,0,3-0.1c1.2-0.2,2.1-0.7,3-1.4c1.5-1.2,2.5-2.7,3.1-4.5c0.5-1.9,0-3.6-0.9-5.2
	c-0.5-0.9-1.1-1.4-2-1.8c-2.2-1.2-4.3-2.6-6.1-4.4c-0.8-0.9-1.5-1.8-2.1-2.9c-0.3-0.5-0.5-1.1-0.8-1.6c-0.6-1.2-1.5-1.9-2.9-2.1
	c-0.7-0.1-1.4-0.2-2-0.3c-0.2,0-0.4-0.1-0.6-0.2c-1.1-0.4-1.6-1.1-1.4-2.3c0.2-1,0.6-1.9,1-2.7c0.6-1,1.6-1,2.5-0.8
	c2.7,0.5,5.2,1.3,7.8,2.4c2.5,1,4.7,2.4,6.8,4.2c3,2.5,5,5.6,5.7,9.5C66.4,36,66.4,36.6,66.4,37.2z"/>
<path class="st0" d="M26.4,20.5c0.7,0,1.3,0,1.9,0.1c0.2,0,0.4,0.1,0.6,0.1c1.3,0.4,1.6,1.3,0.7,2.4c-1,1.1-2.2,2-3.4,2.8
	c-1.4,1-2.7,2.1-3.9,3.2c-1.3,1.1-2.5,2.4-3.7,3.6c-1.8,1.8-3.4,3.8-4.4,6.1c-0.4,1-0.9,2-1.6,2.8c0,0,0,0.1-0.1,0.1
	c-1.1,1.4-2.5,1.5-3.7,0.2c-1.4-1.6-2.3-3.4-2.2-5.5c0.2-3.7,1.4-7,4.1-9.6c1.3-1.3,2.9-2.3,4.6-3.2c2.2-1.2,4.4-2.3,6.9-2.7
	C23.6,20.7,25,20.4,26.4,20.5z"/>
</svg>
