<svg width="36" height="18" viewBox="0 0 36 18" fill="none" xmlns="http://www.w3.org/2000/svg">
<g id="Group">
<path id="Vector" d="M17.5977 10.0797H18.1609V11.342H18.5678L19.2981 10.0797H19.9138L19.0373 11.5613V11.5716L19.966 13.1883H19.3295L18.5782 11.832H18.1716V13.1883H17.6081V10.0793L17.5977 10.0797ZM21.2283 10.904C21.906 10.904 22.4593 11.3942 22.4593 12.0723C22.4593 12.7611 21.9167 13.2409 21.2387 13.2409C20.5604 13.2409 20.0179 12.761 20.0179 12.0723C20.0076 11.3838 20.55 10.904 21.2283 10.904ZM22.8973 10.9559H23.4294V12.7087H24.1286V10.9562H24.6603V12.7087H25.3594V10.9562H25.8915V13.1883H22.9181V10.9559H22.8973ZM27.4671 10.904C28.1032 10.904 28.458 11.3734 28.458 11.9579C28.4563 12.0312 28.4493 12.1043 28.4372 12.1766H26.9036C26.9349 12.5625 27.2375 12.7714 27.5715 12.7714C27.8007 12.7714 28.0303 12.667 28.2077 12.5314L28.4269 12.928C28.1974 13.1258 27.853 13.2513 27.5297 13.2513C26.7887 13.2513 26.3299 12.7192 26.3299 12.0826C26.3299 11.3838 26.799 10.904 27.4671 10.904ZM28.7187 12.7192C28.9902 12.6774 29.1882 12.4481 29.1882 11.6549V10.9562H30.816V13.1883H30.2628V11.4043H29.7203V11.6547C29.7203 12.6248 29.4597 13.1883 28.7187 13.2091V12.7192ZM32.4016 10.904C33.0379 10.904 33.3926 11.3734 33.3926 11.9579C33.3908 12.0312 33.3838 12.1043 33.3717 12.1766H31.8381C31.8696 12.5625 32.172 12.7714 32.506 12.7714C32.7353 12.7714 32.9648 12.667 33.1422 12.5314L33.3616 12.928C33.1319 13.1258 32.7875 13.2513 32.4642 13.2513C31.7236 13.2513 31.2644 12.7192 31.2644 12.0826C31.2644 11.3838 31.7339 10.904 32.4016 10.904ZM33.8518 10.9559H34.4045V11.8115H34.676L35.2185 10.9561H35.834L35.1244 12.0201V12.0308L35.9173 13.1883H35.2707L34.6864 12.281H34.3946V13.1883H33.841V10.9559H33.8518ZM21.2283 12.7611C21.5935 12.7611 21.896 12.4792 21.896 12.0619C21.896 11.655 21.5935 11.3627 21.2281 11.3627C20.8632 11.3627 20.5712 11.6449 20.5712 12.0619C20.5712 12.4792 20.8629 12.7611 21.2283 12.7611ZM27.8948 11.7908C27.8948 11.4986 27.6962 11.3213 27.446 11.3213C27.1646 11.3213 26.9558 11.5091 26.9036 11.7907L27.8948 11.7908ZM32.8293 11.7908C32.8293 11.4986 32.6313 11.3213 32.3809 11.3213C32.0988 11.3213 31.8903 11.5091 31.8381 11.7907L32.8293 11.7908Z" fill="white"/>
<path id="Vector_2" d="M25.393 3.30883V8.57743C25.3934 8.5967 25.3899 8.61586 25.3828 8.63376C25.3756 8.65165 25.3649 8.6679 25.3512 8.68153C25.3376 8.69516 25.3214 8.70588 25.3035 8.71306C25.2856 8.72023 25.2664 8.72371 25.2471 8.72327H24.1723C24.1531 8.72371 24.1339 8.72023 24.116 8.71306C24.0981 8.70588 24.0819 8.69516 24.0683 8.68153C24.0546 8.6679 24.0439 8.65165 24.0367 8.63376C24.0295 8.61586 24.0261 8.5967 24.0265 8.57743V3.30883C24.0261 3.28956 24.0295 3.2704 24.0367 3.25251C24.0439 3.23462 24.0546 3.21837 24.0683 3.20474C24.0819 3.19111 24.0981 3.18038 24.116 3.1732C24.1339 3.16603 24.1531 3.16255 24.1723 3.16299H25.2471C25.2664 3.16255 25.2856 3.16603 25.3035 3.1732C25.3214 3.18038 25.3376 3.19111 25.3512 3.20474C25.3649 3.21837 25.3756 3.23462 25.3828 3.25251C25.3899 3.2704 25.3934 3.28956 25.393 3.30883ZM33.7808 3.16299C33.8228 3.16299 33.875 3.1837 33.9267 3.22549C33.9583 3.25662 33.9583 3.30883 33.9479 3.35074L32.1742 8.62964C32.1634 8.65695 32.1448 8.68046 32.1206 8.69719C32.0965 8.71392 32.068 8.72312 32.0386 8.72364H31.0789C31.0163 8.72364 30.9641 8.69214 30.9433 8.62964L29.9098 5.55206L28.8771 8.6294C28.8663 8.65668 28.8477 8.68016 28.8235 8.69687C28.7994 8.71358 28.7709 8.72276 28.7415 8.72327H27.7818C27.7193 8.72327 27.667 8.69214 27.6463 8.62927L25.8724 3.35037C25.862 3.30883 25.862 3.26704 25.8933 3.22549C25.9142 3.1837 25.9664 3.16299 26.008 3.16299H27.2078C27.2703 3.16299 27.3225 3.20441 27.3436 3.26704L28.2927 6.38641L29.3362 3.26704C29.3469 3.23973 29.3656 3.21622 29.3897 3.19949C29.4138 3.18276 29.4424 3.17356 29.4717 3.17304H30.3167C30.3792 3.17304 30.4314 3.20441 30.4523 3.26704L31.4957 6.38641L32.4451 3.26704C32.4536 3.23747 32.4714 3.21141 32.4958 3.19266C32.5202 3.17392 32.5499 3.16348 32.5807 3.16287L33.7808 3.16299ZM35.5961 3.16299C35.669 3.16299 35.7317 3.22549 35.742 3.30883V8.57743C35.7424 8.5967 35.7389 8.61586 35.7317 8.63376C35.7246 8.65165 35.7138 8.6679 35.7002 8.68153C35.6866 8.69516 35.6703 8.70588 35.6524 8.71306C35.6345 8.72023 35.6154 8.72371 35.5961 8.72327H34.5214C34.5022 8.72371 34.483 8.72023 34.4651 8.71306C34.4472 8.70588 34.431 8.69516 34.4173 8.68153C34.4037 8.6679 34.393 8.65165 34.3858 8.63376C34.3786 8.61586 34.3752 8.5967 34.3756 8.57743V3.30883C34.3752 3.28956 34.3786 3.2704 34.3858 3.25251C34.393 3.23462 34.4037 3.21837 34.4173 3.20474C34.431 3.19111 34.4472 3.18038 34.4651 3.1732C34.483 3.16603 34.5022 3.16255 34.5214 3.16299H35.5961ZM23.4004 8.53589C23.4629 8.60881 23.4108 8.71298 23.3168 8.71298H22.0022C21.9763 8.71368 21.9506 8.70839 21.9271 8.69752C21.9035 8.68666 21.8829 8.67052 21.8666 8.65035L21.6477 8.37926C21.1886 8.67107 20.6458 8.84877 20.0722 8.84877C18.4659 8.84877 17.1616 7.54467 17.1616 5.93798C17.1616 4.3313 18.4659 3.02708 20.0723 3.02708C21.679 3.02708 22.9831 4.3313 22.9831 5.93798C22.9831 6.51191 22.816 7.05445 22.524 7.51317L23.4004 8.53589ZM12.4147 11.0918C12.6861 11.196 12.7905 11.6028 12.8112 11.7801C12.8531 12.1037 12.7594 12.2288 12.6549 12.2288C12.5505 12.2288 12.4043 12.1038 12.2481 11.8534C12.0913 11.6027 12.0287 11.3213 12.1124 11.1751C12.1644 11.081 12.2788 11.0395 12.4147 11.0918ZM10.829 12.2707C10.9961 12.2707 11.1838 12.3436 11.3507 12.4896C11.674 12.7609 11.7681 13.0739 11.6011 13.3034C11.5071 13.4182 11.3507 13.4912 11.1734 13.4912C10.9961 13.4912 10.8082 13.4286 10.6832 13.3138C10.391 13.0635 10.3077 12.6459 10.4951 12.4167C10.5683 12.3226 10.6832 12.2707 10.829 12.2707ZM7.17788 15.2856C3.21313 15.2857 0 12.0723 0 8.10805C0 4.14355 3.21337 0.93042 7.17751 0.93042C11.1418 0.93042 14.3553 4.14379 14.3553 8.10793C14.3553 9.45357 13.9798 10.7162 13.3436 11.7907C13.3225 11.8219 13.2703 11.8115 13.2599 11.7697C13.0095 10.0068 11.9351 9.03628 10.37 8.74435C10.2343 8.72327 10.2134 8.63994 10.3909 8.61923C10.8708 8.57743 11.5488 8.58773 11.9036 8.65035C11.9246 8.46683 11.9351 8.28224 11.9349 8.09751C11.9349 5.47877 9.80654 3.35037 7.1878 3.35037C4.56943 3.35037 2.44103 5.47877 2.44103 8.09751C2.44103 10.7163 4.56943 12.8446 7.18817 12.8446H7.40705C7.33267 12.4211 7.30113 11.9911 7.31293 11.5613C7.32372 11.2691 7.38622 11.2272 7.51147 11.4568C8.16873 12.594 9.10774 13.6164 10.9437 14.0234C12.446 14.3573 13.9483 14.7431 15.5652 16.7984C15.7113 16.9757 15.4924 17.1635 15.3254 17.0175C13.6772 15.5567 12.1749 15.0769 10.8081 15.0769C9.27441 15.0875 8.2316 15.2856 7.17788 15.2856ZM20.7922 7.36733L20.2183 6.66816C20.156 6.59524 20.2082 6.48041 20.302 6.48041H21.5121C21.5746 6.31349 21.6061 6.12574 21.6061 5.93798C21.6061 5.07214 20.9592 4.32088 20.0723 4.32088C19.1859 4.32088 18.5387 5.07214 18.5387 5.93798C18.5387 6.80371 19.1857 7.54467 20.0723 7.54467C20.3227 7.55496 20.5733 7.48229 20.7922 7.36733Z" fill="white"/>
</g>
</svg>
