<svg width="30" height="20" viewBox="0 0 30 20" fill="none" xmlns="http://www.w3.org/2000/svg">
<g id="Group 3717">
<rect id="Rectangle 76" y="2" width="28" height="15" fill="white"/>
<path id="Vector" d="M28.4049 0H1.60276C0.717024 0 0 0.761715 0 1.6989V18.3011C0 19.2383 0.717024 20 1.59893 20H28.4011C29.283 20 30 19.2383 30 18.3011V1.6989C30.0038 0.761715 29.2868 0 28.4049 0ZM11.1618 13.8584H8.86119V9.31206C8.86119 9.22433 8.79217 9.15254 8.70782 9.15254C8.63113 9.15254 8.56978 9.20837 8.55828 9.28415L7.21242 13.8584H5.55981L4.21779 9.28016C4.20629 9.20837 4.14494 9.15254 4.06825 9.15254C3.98389 9.15254 3.91488 9.22433 3.91488 9.31206V13.8584H1.61426V6.04187H3.58896H4.17945C4.60122 6.04187 5.04601 6.38485 5.16871 6.80359L6.28834 10.6122C6.34586 10.8036 6.43405 10.7996 6.49156 10.6122L7.61119 6.80359C7.73389 6.38086 8.17868 6.04187 8.60046 6.04187H9.18711H11.1618V13.8584ZM19.7124 13.8584H17.4118V9.21236C17.408 9.13659 17.3505 9.07278 17.2738 9.07278C17.2201 9.07278 17.1779 9.1007 17.1549 9.14855V9.15254C17.1549 9.15653 17.1511 9.16052 17.1511 9.16451L15.2722 13.3559C15.1534 13.6271 14.8313 13.8465 14.5399 13.8624H12.2393V6.04586H14.5399V10.5922C14.5399 10.68 14.6089 10.7517 14.6932 10.7517C14.7469 10.7517 14.7929 10.7238 14.8198 10.6839C14.8274 10.668 14.8351 10.656 14.8389 10.6361L16.6679 6.55234C16.7906 6.27717 17.1204 6.05783 17.4118 6.04586H19.7124V13.8584ZM25.7707 11.346H23.1633V13.8983H20.8627V9.59123H28.1518C27.7991 10.6082 26.8673 11.338 25.7707 11.346ZM28.2477 9.19242C28.2477 9.19242 24.2523 9.19242 24.2485 9.19242C22.2929 9.19242 20.6902 7.8006 20.556 6.04187H25.763C27.1626 6.05384 28.2937 7.2343 28.2937 8.69392C28.2937 8.8654 28.2784 9.0329 28.2477 9.19242Z" fill="black"/>
</g>
</svg>
