<svg width="32" height="20" viewBox="0 0 32 20" fill="none" xmlns="http://www.w3.org/2000/svg">
<g id="Group">
<rect id="Rectangle 76" x="2" y="2" width="28" height="15" fill="white"/>
<path id="Vector" d="M29.5592 0.281494H2.53121C1.64062 0.281494 0.917969 1.0206 0.917969 1.9324V18.0676C0.917969 18.9795 1.64027 19.7185 2.53121 19.7185H29.5592C30.4498 19.7185 31.1725 18.9794 31.1725 18.0676V1.9324C31.1725 1.02045 30.4502 0.281494 29.5592 0.281494ZM6.92679 14.0426L5.01318 7.02584C4.35151 6.65053 3.59649 6.34888 2.7522 6.1398L2.77967 5.97174H6.25053C6.71806 5.98952 7.09598 6.14217 7.22626 6.65376L7.98086 10.3658L7.98101 10.3662L8.20554 11.4857L10.3129 5.97683H12.5929L9.20419 14.0395L6.92679 14.0423V14.0426ZM14.2696 14.0495H12.1181L12.1181 14.0494L13.4638 5.97076H15.6163L14.2696 14.0495ZM18.0153 14.1693C17.05 14.1592 16.1204 13.9639 15.6176 13.7384L15.9197 11.9299L16.197 12.0583C16.9039 12.3599 17.3616 12.4823 18.2231 12.4823C18.8418 12.4823 19.5056 12.2349 19.5109 11.6935C19.5149 11.3398 19.2332 11.0873 18.3954 10.6913C17.5789 10.3049 16.4974 9.65735 16.5093 8.49655C16.5221 6.92623 18.0203 5.83048 20.1471 5.83048C20.9816 5.83048 21.6499 6.00613 22.0763 6.1698L21.7845 7.9208L21.5916 7.82752C21.1944 7.66389 20.6845 7.50688 19.9807 7.51801C19.138 7.51801 18.748 7.87714 18.748 8.21291C18.7431 8.5913 19.2039 8.84073 19.9562 9.21437C21.1981 9.79098 21.7715 10.4904 21.7633 11.4093C21.7467 13.0862 20.2779 14.1693 18.0153 14.1693ZM27.3407 14.052C27.3407 14.052 27.1433 13.1243 27.0789 12.8415C26.765 12.8415 24.5693 12.838 24.3222 12.838C24.2387 13.0565 23.8691 14.052 23.8691 14.052H21.6088L24.8055 6.64851C25.0318 6.12245 25.4174 5.97858 25.9327 5.97858H27.5959L29.3381 14.0522H27.3407V14.052Z" fill="black"/>
<path id="Vector_2" d="M24.9414 11.1853C25.1194 10.7198 25.799 8.92698 25.799 8.92698C25.7863 8.94854 25.9757 8.45929 26.0843 8.15601L26.2299 8.85247C26.2299 8.85247 26.642 10.7809 26.7282 11.1852H24.9414L24.9414 11.1853Z" fill="black"/>
</g>
</svg>
