<svg width="11" height="16" viewBox="0 0 11 16" fill="none" xmlns="http://www.w3.org/2000/svg">
<g id="Group 3715">
<path id="Vector" fill-rule="evenodd" clip-rule="evenodd" d="M0 7.94249C0 7.09135 0.0660001 6.55651 1.749 5.23954C3.1405 4.15261 7.6065 0.4375 7.6065 0.4375V6.63702H11V15.5625H1.0615C0.4785 15.5625 0 15.0622 0 14.4526V7.94249Z" fill="white"/>
<path id="Vector_2" fill-rule="evenodd" clip-rule="evenodd" d="M7.09937 5.9375V10.2436L2.75 15.5625L8.25 12.3519V5.9375H7.09937Z" fill="black"/>
<path id="Vector_3" fill-rule="evenodd" clip-rule="evenodd" d="M5.75865 6.63544C6.05349 5.9751 6.4868 5.74106 6.72356 6.1172C6.96032 6.49334 6.91565 7.32922 6.61635 7.98956C6.32152 8.6499 5.8882 8.88394 5.65144 8.5078C5.41468 8.13166 5.45935 7.29578 5.75865 6.63544Z" fill="black"/>
</g>
</svg>
