<svg width="29" height="18" viewBox="0 0 29 18" fill="none" xmlns="http://www.w3.org/2000/svg">
<g id="Group">
<path id="Vector" fill-rule="evenodd" clip-rule="evenodd" d="M7.44062 1.97607H12.9815C13.7547 1.97607 14.2379 2.61448 14.0567 3.39522L11.4755 14.5818C11.2943 15.3625 10.5171 16.0009 9.74394 16.0009H4.20308C3.42989 16.0009 2.94671 15.3625 3.12792 14.5818L5.70904 3.39522C5.89026 2.61043 6.66341 1.97607 7.43657 1.97607H7.44062Z" fill="#7E7E7E"/>
<path id="Vector_2" fill-rule="evenodd" clip-rule="evenodd" d="M12.4969 1.97607H18.8714C19.6446 1.97607 19.2943 2.61448 19.113 3.39522L16.5318 14.5818C16.3506 15.3625 16.407 16.0009 15.6338 16.0009H9.25937C8.4822 16.0009 8.00299 15.3625 8.18822 14.5818L10.7695 3.39522C10.9506 2.61043 11.7237 1.97607 12.501 1.97607H12.4969Z" fill="#393939"/>
<path id="Vector_3" fill-rule="evenodd" clip-rule="evenodd" d="M18.6479 1.97607H24.1887C24.9618 1.97607 25.445 2.61448 25.2638 3.39522L22.6826 14.5818C22.5014 15.3626 21.7242 16.001 20.9511 16.001H15.4103C14.6332 16.001 14.1539 15.3626 14.3352 14.5818L16.9164 3.39522C17.0976 2.61043 17.8707 1.97607 18.6438 1.97607H18.6479Z" fill="black"/>
<g id="Group_2">
<path id="Vector_4" fill-rule="evenodd" clip-rule="evenodd" d="M17.7193 12.5221H18.2428L18.3918 12.0138H17.8723L17.7193 12.5221ZM18.138 11.1232L17.9568 11.7251C17.9568 11.7251 18.1542 11.6234 18.2629 11.5909C18.3716 11.5665 18.5327 11.5461 18.5327 11.5461L18.6575 11.1273H18.134L18.138 11.1232ZM18.3998 10.2612L18.2267 10.8386C18.2267 10.8386 18.4199 10.7491 18.5287 10.7207C18.6374 10.6922 18.7984 10.6841 18.7984 10.6841L18.9233 10.2652H18.4038L18.3998 10.2612ZM19.5555 10.2612L18.879 12.518H19.0602L18.9193 12.9856H18.738L18.6938 13.128H18.0494L18.0938 12.9856H16.7891L16.9179 12.5546H17.0508L17.7354 10.2612L17.8723 9.79761H18.5287L18.4602 10.0294C18.4602 10.0294 18.6333 9.90333 18.8025 9.85858C18.9676 9.81387 19.9179 9.79761 19.9179 9.79761L19.777 10.2571H19.5515L19.5555 10.2612Z" fill="#FEFEFE"/>
<path id="Vector_5" fill-rule="evenodd" clip-rule="evenodd" d="M19.8224 9.79761H20.523L20.5311 10.0619C20.5271 10.1067 20.5633 10.127 20.6478 10.127H20.7888L20.6599 10.5621H20.2814C19.9552 10.5865 19.8304 10.4442 19.8385 10.2856L19.8264 9.80165L19.8224 9.79761ZM19.9086 11.8678H19.2401L19.3529 11.4815H20.118L20.2267 11.1277H19.4737L19.6025 10.6926H21.6965L21.5677 11.1277H20.863L20.7542 11.4815H21.4589L21.3421 11.8678H20.5811L20.4442 12.0304H20.7542L20.8307 12.5184C20.8388 12.5672 20.8388 12.5997 20.8549 12.6201C20.871 12.6363 20.9636 12.6445 21.016 12.6445H21.1086L20.9636 13.1202H20.726C20.6898 13.1202 20.6334 13.1162 20.5569 13.1162C20.4844 13.108 20.4361 13.0674 20.3878 13.043C20.3435 13.0226 20.2791 12.9698 20.263 12.8762L20.1905 12.3883L19.8441 12.8681C19.7354 13.0186 19.5865 13.1365 19.3328 13.1365H18.8495L18.9784 12.7136H19.1636C19.216 12.7136 19.2643 12.6933 19.3006 12.6729C19.3368 12.6566 19.369 12.6404 19.4012 12.5875L19.9086 11.8678ZM12.5968 10.8093H14.3646L14.2357 11.2363H13.531L13.4223 11.5982H14.1471L14.0142 12.0374H13.2934L13.1163 12.627C13.0961 12.6921 13.2894 12.7002 13.3579 12.7002L13.7203 12.6514L13.5753 13.1394H12.7619C12.6975 13.1394 12.6491 13.1312 12.5767 13.115C12.5082 13.0987 12.476 13.0662 12.4478 13.0214C12.4196 12.9726 12.3713 12.936 12.4035 12.8303L12.637 12.0496H12.2344L12.3673 11.6023H12.7699L12.8787 11.2404H12.476L12.6049 10.8134L12.5968 10.8093H12.5968ZM13.8182 10.0375H14.543L14.4101 10.4807H13.4195L13.3108 10.5743C13.2624 10.619 13.2504 10.6028 13.19 10.6353C13.1336 10.6637 13.0168 10.7207 12.8638 10.7207H12.5457L12.6745 10.2937H12.7712C12.8517 10.2937 12.9081 10.2855 12.9363 10.2693C12.9685 10.249 13.0048 10.2042 13.041 10.1311L13.2222 9.79761H13.943L13.8182 10.0416V10.0375ZM15.1843 10.7695C15.1843 10.7695 15.3816 10.5865 15.7199 10.5296C15.7964 10.5133 16.2796 10.5214 16.2796 10.5214L16.3521 10.2774H15.3333L15.1843 10.7735L15.1843 10.7695ZM16.1427 10.9565H15.1319L15.0715 11.1639H15.9494C16.0541 11.1517 16.0742 11.168 16.0823 11.1598L16.1467 10.9565H16.1427ZM14.8299 9.80165H15.446L15.3575 10.1148C15.3575 10.1148 15.5507 9.95618 15.6876 9.89925C15.8246 9.85045 16.1306 9.80165 16.1306 9.80165L17.1292 9.79761L16.787 10.9443C16.7306 11.1395 16.6621 11.2655 16.6219 11.3266C16.5857 11.3835 16.5413 11.4363 16.4527 11.4851C16.3682 11.5299 16.2916 11.5583 16.2192 11.5624C16.1548 11.5665 16.0501 11.5705 15.9131 11.5705H14.9508L14.6809 12.4773C14.6568 12.5668 14.6447 12.6115 14.6608 12.6359C14.6729 12.6563 14.7091 12.6806 14.7534 12.6806L15.1763 12.64L15.0313 13.1361H14.5561C14.4031 13.1361 14.2944 13.132 14.2179 13.1279C14.1454 13.1198 14.0688 13.1279 14.0165 13.0873C13.9722 13.0466 13.9038 12.9937 13.9078 12.9409C13.9118 12.8921 13.9319 12.8108 13.9642 12.6969L14.8299 9.80165Z" fill="#FEFEFE"/>
<path id="Vector_6" fill-rule="evenodd" clip-rule="evenodd" d="M16.627 11.6265L16.5706 11.903C16.5465 11.9884 16.5263 12.0535 16.4619 12.1104C16.3935 12.1673 16.317 12.2284 16.1317 12.2284L15.7895 12.2446L15.7854 12.5537C15.7814 12.639 15.8056 12.6309 15.8176 12.6472C15.8337 12.6634 15.8458 12.6675 15.8619 12.6757L15.9706 12.6675L16.2968 12.6513L16.1599 13.1067H15.7854C15.5237 13.1067 15.3264 13.0985 15.2659 13.0498C15.2015 13.0091 15.1935 12.9603 15.1935 12.8708L15.2176 11.6591H15.8176L15.8096 11.9071H15.9545C16.0029 11.9071 16.0391 11.903 16.0592 11.8908C16.0794 11.8786 16.0915 11.8583 16.0995 11.8299L16.1599 11.6347H16.6311L16.627 11.6265ZM8.09073 5.55615C8.07061 5.65375 7.68406 7.447 7.68406 7.447C7.59946 7.80889 7.53907 8.06917 7.33773 8.23587C7.22096 8.33347 7.08402 8.37818 6.92701 8.37818C6.6733 8.37818 6.52835 8.25214 6.50418 8.01224L6.50014 7.93092C6.50014 7.93092 6.57664 7.447 6.57664 7.44295C6.57664 7.44295 6.97935 5.80827 7.05184 5.59273C7.05585 5.58055 7.05585 5.57242 7.05585 5.56833C6.27059 5.5765 6.12969 5.56833 6.12163 5.55615C6.11759 5.57242 6.09747 5.67406 6.09747 5.67406L5.68671 7.51618L5.65044 7.67067L5.58203 8.18307C5.58203 8.33351 5.6102 8.45954 5.67064 8.56122C5.85987 8.89467 6.39546 8.94346 6.69746 8.94346C7.08807 8.94346 7.45451 8.85805 7.70013 8.70761C8.13101 8.45141 8.24374 8.04886 8.3404 7.69511L8.38873 7.5121C8.38873 7.5121 8.8035 5.81644 8.87599 5.59686C8.88 5.58464 8.88 5.5765 8.88405 5.57246C8.31222 5.5765 8.14712 5.57246 8.09073 5.56024V5.55615ZM10.3877 8.92689C10.1099 8.9228 10.0092 8.9228 9.68304 8.93907L9.67094 8.91467C9.69911 8.78859 9.73133 8.66664 9.7555 8.54056L9.79577 8.36977C9.85616 8.10548 9.91255 7.79235 9.9206 7.69884C9.92866 7.64191 9.94473 7.49961 9.78367 7.49961C9.71522 7.49961 9.64677 7.5321 9.57432 7.56463C9.534 7.70697 9.4575 8.10548 9.41723 8.2844C9.33668 8.66664 9.33267 8.71135 9.29644 8.89844L9.27228 8.9228C8.98639 8.91875 8.88572 8.91875 8.55551 8.93502L8.5394 8.90653C8.59578 8.67882 8.64812 8.4511 8.70049 8.22338C8.83739 7.60934 8.87366 7.37353 8.90985 7.0604L8.93806 7.04413C9.26021 6.99942 9.33672 6.98721 9.68705 6.9181L9.71522 6.95063L9.66288 7.14581C9.72328 7.10924 9.77966 7.07262 9.84005 7.04413C10.0052 6.96281 10.1864 6.93841 10.287 6.93841C10.44 6.93841 10.6092 6.98316 10.6776 7.16208C10.7421 7.32065 10.7018 7.51583 10.6132 7.90216L10.5689 8.09735C10.4803 8.52838 10.4643 8.60562 10.4159 8.8984L10.3837 8.9228L10.3877 8.92689H10.3877ZM11.5185 8.92794C11.3494 8.92794 11.2406 8.92389 11.136 8.92794C11.0312 8.92794 10.9306 8.93611 10.7735 8.94016L10.7655 8.92794L10.7574 8.91167C10.8017 8.74902 10.8219 8.69209 10.846 8.63516C10.8661 8.57823 10.8863 8.5213 10.9266 8.3546C10.9749 8.13906 11.0071 7.98862 11.0272 7.85441C11.0514 7.72834 11.0635 7.6186 11.0796 7.49253L11.0916 7.48439L11.1037 7.47217C11.2729 7.44778 11.3776 7.43151 11.4863 7.41524C11.595 7.39898 11.7077 7.37867 11.8809 7.34614L11.889 7.3624L11.893 7.37867L11.7964 7.78122C11.7641 7.91543 11.7319 8.0496 11.7037 8.18381C11.6433 8.46846 11.6151 8.57418 11.6031 8.65142C11.587 8.72462 11.5829 8.76123 11.5587 8.90762L11.5426 8.9198L11.5265 8.93202L11.5185 8.92794ZM13.3062 7.92885C13.2941 8.00205 13.2297 8.27451 13.1451 8.38837C13.0847 8.47375 13.0162 8.52663 12.9357 8.52663C12.9115 8.52663 12.7746 8.52663 12.7706 8.31923C12.7706 8.21759 12.7907 8.11182 12.8149 7.998C12.8874 7.66861 12.976 7.39618 13.1974 7.39618C13.3706 7.39618 13.3827 7.59946 13.3062 7.92885ZM14.035 7.96138C14.1317 7.53035 14.0552 7.32703 13.9625 7.20504C13.8176 7.01798 13.5599 6.95701 13.2941 6.95701C13.133 6.95701 12.7545 6.97327 12.4565 7.24979C12.2431 7.44902 12.1424 7.72149 12.0861 7.98174C12.0256 8.24603 11.9572 8.72182 12.3921 8.90074C12.525 8.95767 12.7183 8.97389 12.8431 8.97389C13.1612 8.97389 13.4874 8.88447 13.733 8.62422C13.9223 8.41277 14.0068 8.09559 14.039 7.96138H14.035H14.035ZM20.8227 8.97623C20.4844 8.97218 20.3878 8.97218 20.0777 8.98845L20.0576 8.96405C20.1421 8.64278 20.2267 8.31747 20.3032 7.99216C20.3998 7.56926 20.424 7.39034 20.4562 7.14231L20.4803 7.12196C20.8146 7.07316 20.9072 7.06098 21.2575 6.99592L21.2656 7.02437C21.2012 7.29275 21.1408 7.55708 21.0763 7.82138C20.9475 8.37849 20.9032 8.66314 20.8549 8.95591L20.8227 8.98031V8.97623Z" fill="#FEFEFE"/>
<path id="Vector_7" fill-rule="evenodd" clip-rule="evenodd" d="M20.334 7.98354C20.3179 8.05265 20.2535 8.32916 20.1689 8.44302C20.1125 8.52435 19.9756 8.57723 19.8991 8.57723C19.8749 8.57723 19.7421 8.57723 19.734 8.37391C19.734 8.27223 19.7541 8.1665 19.7783 8.05265C19.8508 7.73142 19.9394 7.45895 20.1608 7.45895C20.334 7.45895 20.4105 7.65819 20.334 7.98758V7.98354ZM20.9984 8.01607C21.0951 7.58503 20.7004 7.97949 20.64 7.83715C20.5434 7.61348 20.6038 7.16618 20.2172 7.01574C20.0682 6.95472 19.7179 7.032 19.4199 7.30852C19.2105 7.5037 19.1058 7.77613 19.0495 8.03638C18.989 8.29663 18.9206 8.7765 19.3514 8.9432C19.4884 9.00418 19.6132 9.02044 19.738 9.01231C20.1729 8.98791 20.5031 8.32511 20.7488 8.06486C20.938 7.85746 20.9702 8.14211 20.9984 8.01607ZM15.942 8.92713C15.6642 8.92304 15.5675 8.92304 15.2413 8.93931L15.2293 8.91491C15.2575 8.78884 15.2897 8.66688 15.3178 8.54081L15.3541 8.37002C15.4145 8.10572 15.4749 7.79259 15.4789 7.69908C15.487 7.64216 15.5031 7.49985 15.346 7.49985C15.2776 7.49985 15.2051 7.53234 15.1367 7.56488C15.1004 7.70722 15.0198 8.10572 14.9796 8.28464C14.9031 8.66688 14.895 8.71159 14.8588 8.89869L14.8346 8.92304C14.5487 8.919 14.4481 8.919 14.1179 8.93526L14.1017 8.90678C14.1581 8.67906 14.2105 8.45135 14.2628 8.22363C14.3997 7.60959 14.432 7.37377 14.4722 7.06064L14.4964 7.04438C14.8186 6.99967 14.8991 6.98745 15.2453 6.91834L15.2736 6.95087L15.2252 7.14606C15.2816 7.10948 15.342 7.07286 15.3984 7.04438C15.5635 6.96305 15.7447 6.93865 15.8453 6.93865C15.9984 6.93865 16.1635 6.9834 16.2359 7.16232C16.3004 7.32089 16.2561 7.51608 16.1675 7.9024L16.1232 8.09759C16.0306 8.52863 16.0185 8.60587 15.9702 8.89865L15.938 8.92304L15.942 8.92713ZM18.3546 5.56044L18.1211 5.56453C17.517 5.57266 17.2754 5.56858 17.1788 5.5564C17.1707 5.60115 17.1546 5.67839 17.1546 5.67839C17.1546 5.67839 16.9372 6.68685 16.9372 6.6909C16.9372 6.6909 16.4218 8.83794 16.3976 8.93958C16.9251 8.93145 17.1385 8.93145 17.2311 8.94367C17.2513 8.84199 17.3721 8.24425 17.3761 8.24425C17.3761 8.24425 17.4808 7.80508 17.4849 7.78882C17.4849 7.78882 17.517 7.74407 17.5493 7.72376H17.5976C18.0526 7.72376 18.564 7.72376 18.9667 7.42693C19.2406 7.22361 19.4258 6.91861 19.5103 6.55264C19.5305 6.46318 19.5466 6.35745 19.5466 6.24768C19.5466 6.10534 19.5184 5.96712 19.4378 5.85731C19.2325 5.56858 18.8257 5.56453 18.3546 5.56044ZM18.6566 6.61365C18.6083 6.83729 18.4633 7.02842 18.2781 7.11789C18.1251 7.19513 17.9399 7.20326 17.7466 7.20326H17.6217L17.6298 7.15446C17.6298 7.15446 17.8593 6.146 17.8593 6.15009L17.8674 6.0972L17.8714 6.05654L17.964 6.06471C17.964 6.06471 18.4392 6.10534 18.4472 6.10534C18.6325 6.17853 18.713 6.36559 18.6566 6.61365ZM23.6066 6.95087L23.5784 6.91834C23.2361 6.98745 23.1717 6.99967 22.8576 7.04442L22.8335 7.06878C22.8335 7.07286 22.8294 7.07695 22.8294 7.08504V7.081C22.5959 7.62994 22.5999 7.51203 22.4107 7.94307C22.4107 7.92272 22.4107 7.91054 22.4066 7.89019L22.3583 6.95492L22.3301 6.92239C21.9677 6.99154 21.9597 7.00371 21.6294 7.04846L21.6053 7.07286C21.6012 7.08504 21.6012 7.09726 21.6012 7.10944L21.6053 7.11353C21.6456 7.32903 21.6375 7.28023 21.6778 7.61776C21.6979 7.78446 21.7221 7.9512 21.7422 8.11386C21.7744 8.39037 21.7945 8.52454 21.8348 8.9434C21.6093 9.3175 21.5569 9.45981 21.3395 9.78916L21.3516 9.82169C21.6778 9.80951 21.7502 9.80951 21.9918 9.80951L22.0442 9.7485C22.2254 9.35408 23.6106 6.95496 23.6106 6.95496L23.6066 6.95087ZM11.8271 7.22023C12.0123 7.0901 12.0364 6.91118 11.8794 6.81767C11.7223 6.72413 11.4445 6.75261 11.2592 6.88274C11.074 7.00881 11.0539 7.18769 11.211 7.28529C11.364 7.37479 11.6418 7.35035 11.8271 7.22023Z" fill="#FEFEFE"/>
<path id="Vector_8" fill-rule="evenodd" clip-rule="evenodd" d="M21.9929 9.80165L21.723 10.2693C21.6385 10.4279 21.4774 10.5499 21.2278 10.5499L20.7969 10.5417L20.9217 10.1188H21.0063C21.0505 10.1188 21.0828 10.1148 21.1069 10.1026C21.1311 10.0944 21.1432 10.0782 21.1633 10.0538L21.3244 9.79761H21.9969L21.9929 9.80165Z" fill="#FEFEFE"/>
</g>
</g>
</svg>
