<svg width="30" height="20" viewBox="0 0 30 20" fill="none" xmlns="http://www.w3.org/2000/svg">
<g id="Group">
<rect id="Rectangle 77" x="1" y="1" width="27" height="18" fill="white"/>
<path id="Vector" d="M27.6255 0.696533H1.71824C0.864556 0.696533 0.171875 1.40408 0.171875 2.27694V17.723C0.171875 18.5961 0.864183 19.3034 1.71824 19.3034H27.6255C28.4792 19.3034 29.1719 18.5959 29.1719 17.723V2.27694C29.1718 1.40393 28.4795 0.696533 27.6255 0.696533ZM19.4873 18.0368C17.6738 18.0368 16.0007 17.4096 14.6663 16.3541C13.3317 17.4096 11.6594 18.0368 9.84527 18.0368C5.49548 18.0368 1.95701 14.4232 1.95701 9.98207C1.95701 5.54176 5.49537 1.92879 9.84527 1.92879C11.6595 1.92879 13.3317 2.55759 14.6663 3.61194C16.0007 2.55759 17.6738 1.92879 19.4873 1.92879C23.8386 1.92879 27.3771 5.5418 27.3771 9.98207C27.377 14.4235 23.8385 18.0368 19.4873 18.0368Z" fill="black"/>
<path id="Vector_2" d="M14.0666 9.98623C14.0666 9.92238 14.1603 9.47961 13.6717 9.46948C13.4018 9.46948 13.2078 9.65361 13.1289 9.98623H14.0666Z" fill="#393939"/>
<path id="Vector_3" d="M11.0095 10.4796C10.9201 10.4694 10.8804 10.4666 10.8185 10.4666C10.3341 10.4666 10.0898 10.6127 10.0898 10.9037C10.0898 11.088 10.2092 11.2007 10.396 11.2007C10.7429 11.2007 10.9946 10.9038 11.0095 10.4796Z" fill="#393939"/>
<path id="Vector_4" d="M22.9402 9.50024C22.5124 9.50024 22.2461 10.0174 22.2461 10.4749C22.2461 10.8614 22.4273 11.1188 22.7291 11.1147C23.1427 11.1147 23.4043 10.728 23.4043 10.077C23.4043 9.78097 23.2859 9.50024 22.9402 9.50024Z" fill="#393939"/>
<path id="Vector_5" d="M19.4877 2.65015C17.8877 2.65015 16.4106 3.18544 15.2158 4.08852C16.3824 5.19602 17.2188 6.65932 17.5624 8.30532H16.8393C16.5021 6.83246 15.7286 5.52998 14.6668 4.54819C13.6057 5.53009 12.8325 6.83257 12.495 8.30532H11.7723C12.1155 6.65913 12.9522 5.19584 14.118 4.08852C12.9246 3.18544 11.4462 2.65015 9.84567 2.65015C5.87994 2.65015 2.66406 5.93221 2.66406 9.98188C2.66406 14.0318 5.87994 17.3162 9.84567 17.3162C11.4461 17.3162 12.9245 16.7805 14.118 15.8775C13.0992 14.9084 12.3315 13.6706 11.9245 12.272H12.6636C13.0567 13.4943 13.7559 14.5738 14.6668 15.4181C15.5798 14.5738 16.2776 13.4943 16.6707 12.272H17.4097C17.004 13.6706 16.2351 14.9083 15.2158 15.8775C16.4107 16.7805 17.8878 17.3162 19.4877 17.3162C23.4546 17.3162 26.6701 14.0317 26.6701 9.98188C26.67 5.93195 23.4546 2.65015 19.4877 2.65015ZM7.86913 11.7688L8.374 9.05243L7.21166 11.7688H6.43699L6.29603 9.06897L5.78957 11.7688H5.01873L5.67535 8.23559H7.00223L7.07238 10.422L8.00655 8.23559H9.38789L8.71831 11.7688H7.86913ZM11.8874 10.2299C11.8582 10.4188 11.6554 11.5099 11.634 11.7688H10.924L10.9414 11.4647C10.7251 11.7026 10.4377 11.8153 10.0457 11.8153C9.58324 11.8153 9.26545 11.492 9.26545 11.0279C9.26545 10.3218 9.81728 9.91449 10.7649 9.91449C10.8618 9.91449 10.9867 9.9206 11.1135 9.93542C11.1395 9.83999 11.1465 9.79987 11.1465 9.74839C11.1465 9.55502 10.9981 9.48409 10.5983 9.48409C10.2056 9.48577 9.94055 9.54529 9.69469 9.61283L9.81565 8.96496C10.2415 8.8553 10.5203 8.81276 10.8351 8.81276C11.5687 8.81276 11.9572 9.1054 11.9572 9.65794C11.9629 9.80478 11.9126 10.1016 11.8874 10.2299ZM14.7346 10.5679H13.0441C12.9831 10.9806 13.2786 11.1622 13.7818 11.1622C14.0831 11.1622 14.3549 11.1075 14.6564 10.983L14.524 11.7011C14.2322 11.7777 13.9495 11.8153 13.6516 11.8153C12.7015 11.8153 12.2053 11.3729 12.2053 10.5262C12.2053 9.53933 12.8355 8.81279 13.6923 8.81279C14.3919 8.81279 14.839 9.2208 14.839 9.85828C14.839 10.0689 14.8091 10.2749 14.7346 10.5679ZM17.216 9.53933C16.9954 9.51158 16.7632 9.49542 16.5937 9.49542C16.3133 9.49542 16.1699 9.57521 16.1699 9.73241C16.1699 9.86584 16.2116 9.89925 16.5733 10.0464C17.0079 10.2205 17.1828 10.4543 17.1828 10.8503C17.1828 11.5099 16.7623 11.8153 15.8502 11.8153C15.5427 11.8089 15.196 11.7889 14.9494 11.7301L15.0733 11.0658C15.3499 11.1445 15.5854 11.1769 15.8431 11.1785C16.1865 11.18 16.3401 11.098 16.3401 10.9153C16.3401 10.7843 16.285 10.7422 15.9358 10.5956C15.4781 10.4091 15.2767 10.1561 15.2767 9.79111C15.2737 9.25705 15.6089 8.81279 16.5771 8.81279C16.7739 8.81279 17.1152 8.83853 17.3388 8.86897L17.216 9.53933ZM19.05 9.58273H18.6144C18.6144 9.58273 18.3755 10.8068 18.3755 10.9001C18.3755 11.0496 18.4637 11.1141 18.6655 11.1141C18.7624 11.1141 18.8365 11.1059 18.8955 11.0853L18.782 11.7236C18.5497 11.789 18.3675 11.8153 18.1724 11.8153C17.7368 11.8153 17.4997 11.5886 17.4997 11.1848C17.4852 11.0756 17.5925 10.5619 17.6162 10.4188C17.6397 10.275 18.0178 8.18824 18.0178 8.18824H18.8623L18.7333 8.87865H19.1664L19.05 9.58273ZM20.0911 11.7688H19.2373L19.2736 11.5723C19.4216 10.6778 19.6124 9.77103 19.7195 8.8766H20.5119C20.5231 9.01212 20.4786 9.16008 20.4551 9.31493C20.7167 8.97439 21.0066 8.73278 21.4555 8.90156C21.4555 8.90156 21.1784 9.62669 21.1452 9.71952C20.501 9.54537 20.3984 10.0385 20.0911 11.7688ZM22.6583 11.8153C21.707 11.8153 21.3233 11.2249 21.3233 10.5036C21.3233 9.49545 21.973 8.81276 22.9789 8.81276C23.8527 8.81276 24.3166 9.37487 24.3166 10.0962C24.3167 11.2927 23.6202 11.8153 22.6583 11.8153Z" fill="black"/>
</g>
</svg>
