<?xml version="1.0" encoding="utf-8"?>
<!-- Generator: Adobe Illustrator 23.0.6, SVG Export Plug-In . SVG Version: 6.00 Build 0)  -->
<svg version="1.1" id="Layer_1" xmlns="http://www.w3.org/2000/svg" xmlns:xlink="http://www.w3.org/1999/xlink" x="0px" y="0px"
	 viewBox="0 0 24 22" style="enable-background:new 0 0 24 22;" xml:space="preserve">
<style type="text/css">
	.st0{fill:#636363;}
	.st1{fill:#9E9E9E;}
	.st2{fill:#909090;}
	.st3{fill:#646464;}
	.st4{fill:#BFBFBF;}
	.st5{fill:#737373;}
</style>
<g>
	<path class="st0" d="M8.9,8.9v2.3l3,1.9l7.2-5.3c-0.3-0.6-0.6-1.1-0.9-1.6l-6.3,4.6L8.9,8.9z"/>
	<path class="st1" d="M4,10.6c0,0.1,0,0.3,0,0.4c0,0,0,0,0,0C4,10.9,4,10.7,4,10.6L4,10.6z"/>
	<path class="st1" d="M7.6,15.3L7.6,15.3c-1.1-1.1-1.8-2.6-1.8-4.3H4c0,2,0.8,3.9,2.1,5.3l1.3-1.2C7.5,15.1,7.5,15.2,7.6,15.3z"/>
	<path class="st2" d="M11.5,18.9c0.1,0,0.3,0,0.4,0c0,0,0,0,0,0C11.8,18.9,11.6,18.9,11.5,18.9L11.5,18.9z"/>
	<path class="st2" d="M16.2,15.3c-1.1,1.1-2.6,1.8-4.3,1.8v1.8c2,0,3.9-0.8,5.3-2.1L16,15.5C16,15.4,16.1,15.4,16.2,15.3z"/>
	<path class="st3" d="M12.2,5c1.2,0.1,2.2,0.4,3.1,1l1.5-1.1c-1.4-1.1-3.1-1.7-5-1.7v1.8C12,4.9,12.1,5,12.2,5z"/>
	<path class="st0" d="M19.7,9.6L18,10.9c0,0,0,0.1,0,0.2c0,1.7-0.7,3.2-1.8,4.3c-0.1,0.1-0.1,0.2-0.2,0.2l1.2,1.3
		c1.6-1.4,2.6-3.5,2.6-5.8C19.8,10.5,19.8,10.1,19.7,9.6z"/>
	<path class="st4" d="M7.6,15.3c-0.1-0.1-0.1-0.1-0.2-0.2l-1.3,1.2l0,0c1.4,1.5,3.3,2.5,5.4,2.6c0.1,0,0.3,0,0.4,0c0,0,0,0,0,0v0
		v-1.8C10.2,17.1,8.7,16.4,7.6,15.3z"/>
	<path class="st5" d="M7.6,6.7L7.6,6.7c1.1-1.1,2.6-1.8,4.3-1.8V3.1c-2,0-3.9,0.8-5.3,2l0,0C5.1,6.5,4.1,8.5,4,10.6
		c0,0.1,0,0.3,0,0.4c0,0,0,0,0,0h0h1.8C5.8,9.4,6.5,7.8,7.6,6.7z"/>
</g>
</svg>
