<svg width="30" height="20" viewBox="0 0 30 20" fill="none" xmlns="http://www.w3.org/2000/svg">
<g id="Group">
<rect id="Rectangle 77" x="1" y="1" width="27" height="18" fill="white"/>
<path id="Vector" d="M27.6255 0.693848H1.71822C0.864558 0.693848 0.171875 1.4016 0.171875 2.2747V17.7251C0.171875 18.5984 0.864222 19.306 1.71822 19.306H27.6255C28.4792 19.306 29.1719 18.5982 29.1719 17.7251V2.2747C29.1719 1.40145 28.4795 0.693848 27.6255 0.693848ZM19.4965 18.0529C17.6807 18.0529 16.0067 17.4229 14.6711 16.3694C13.3365 17.4229 11.6625 18.0529 9.84646 18.0529C5.4929 18.0529 1.95097 14.4394 1.95097 9.99925C1.95097 5.55878 5.49286 1.9471 9.84646 1.9471C11.6624 1.9471 13.3363 2.57473 14.6711 3.62978C16.0066 2.57473 17.6805 1.9471 19.4965 1.9471C23.8501 1.9471 27.392 5.55893 27.392 9.99925C27.392 14.4393 23.8498 18.0529 19.4965 18.0529Z" fill="black"/>
<path id="Vector_2" d="M8.30493 10.5147C8.22705 10.5066 8.19311 10.5034 8.13966 10.5034C7.71949 10.5034 7.50781 10.6505 7.50781 10.9402C7.50781 11.1196 7.61169 11.2337 7.77223 11.2337C8.07442 11.2337 8.29151 10.9402 8.30493 10.5147Z" fill="#393939"/>
<path id="Vector_3" d="M20.6494 10.5147C20.5723 10.5066 20.5378 10.5034 20.4834 10.5034C20.064 10.5034 19.8516 10.6505 19.8516 10.9402C19.8516 11.1196 19.9555 11.2337 20.1177 11.2337C20.419 11.2337 20.6369 10.9402 20.6494 10.5147Z" fill="#393939"/>
<path id="Vector_4" d="M14.3322 10.0247C14.3369 9.96515 14.41 9.50977 13.9899 9.50977C13.7554 9.50977 13.5871 9.69399 13.5195 10.0247H14.3322Z" fill="#393939"/>
<path id="Vector_5" d="M24.2661 11.1321C24.6107 11.1321 24.8538 10.7321 24.8538 10.1628C24.8538 9.79679 24.7163 9.59888 24.4611 9.59888C24.1251 9.59888 23.8867 9.99865 23.8867 10.5641C23.8867 10.9413 24.0143 11.1321 24.2661 11.1321Z" fill="#393939"/>
<path id="Vector_6" d="M19.4723 2.66919C17.8728 2.66919 16.3961 3.20492 15.203 4.10894C16.285 5.13836 17.0852 6.47512 17.4675 7.98171H16.7368C16.3623 6.64987 15.6304 5.47398 14.6531 4.56902C13.6769 5.47398 12.9444 6.64983 12.5714 7.98171H11.8395C12.2227 6.47523 13.0228 5.13847 14.1049 4.10894C12.9112 3.20492 11.4351 2.66919 9.83485 2.66919C5.86995 2.66919 2.65625 5.95472 2.65625 10.0085C2.65625 14.0615 5.87028 17.3479 9.83485 17.3479C11.4351 17.3479 12.9112 16.8122 14.1049 15.9082C13.0867 14.9389 12.3187 13.697 11.9127 12.2991H12.6516C13.0442 13.5231 13.7412 14.6035 14.653 15.4481C15.5659 14.6035 16.2638 13.5231 16.6564 12.2991H17.3952C16.9885 13.6971 16.2206 14.9388 15.203 15.9082C16.396 16.8121 17.8726 17.3479 19.4723 17.3479C23.4368 17.3479 26.6509 14.0613 26.6509 10.0085C26.6509 5.9545 23.4368 2.66919 19.4723 2.66919ZM5.61601 11.7967L6.04014 9.07793L5.09364 11.7967H4.58853L4.52636 9.09408L4.08112 11.7967H3.38784L3.96605 8.25925H5.03135L5.06126 10.4486L5.77968 8.25925H6.92924L6.3564 11.7967H5.61601ZM9.06529 10.2701C9.0008 10.6859 8.86306 11.5787 8.84415 11.7967H8.23043L8.24471 11.4983C8.05736 11.7339 7.80794 11.8467 7.46896 11.8467C7.06684 11.8467 6.7931 11.5257 6.7931 11.0615C6.7931 10.3601 7.27057 9.95238 8.09201 9.95238C8.17619 9.95238 8.28395 9.96039 8.39413 9.97487C8.417 9.87916 8.42252 9.83895 8.42252 9.78744C8.42252 9.59766 8.29417 9.52608 7.948 9.52608C7.58616 9.52123 7.28713 9.61377 7.16438 9.65559C7.17232 9.60736 7.26747 9.00889 7.26747 9.00889C7.6358 8.89793 7.87955 8.85608 8.15333 8.85608C8.78913 8.85608 9.12587 9.14723 9.12508 9.69904C9.12587 9.84697 9.10226 10.0295 9.06529 10.2701ZM11.0708 9.57994C10.8835 9.5526 10.6845 9.53642 10.5398 9.53642C10.2998 9.53642 10.1763 9.6153 10.1763 9.77133C10.1763 9.90564 10.2125 9.93783 10.5224 10.0842C10.8938 10.2589 11.0441 10.4889 11.0441 10.8853C11.0441 11.5417 10.6837 11.8466 9.90247 11.8466C9.45003 11.8335 9.30058 11.7983 9.13142 11.7613L9.23366 11.0969C9.47055 11.1756 9.6767 11.2095 9.89699 11.2095C10.1904 11.2095 10.3226 11.1291 10.3226 10.9506C10.3226 10.8193 10.2762 10.7776 9.97644 10.6328C9.58453 10.4438 9.41307 10.1937 9.41307 9.82929C9.4099 9.29763 9.69628 8.856 10.5247 8.856C10.694 8.856 10.9843 8.88174 11.1763 8.91233L11.0708 9.57994ZM12.6185 9.61206H12.2386C12.1536 10.1583 12.0316 10.8387 12.03 10.9304C12.03 11.0792 12.1079 11.1434 12.2841 11.1434C12.3683 11.1434 12.4336 11.1339 12.4831 11.1162L12.3857 11.7533C12.1825 11.8176 12.0245 11.8467 11.8529 11.8467C11.4745 11.8467 11.2683 11.6238 11.2683 11.2143C11.2637 11.0873 11.3234 10.7535 11.3706 10.447C11.4123 10.1792 11.6908 8.48618 11.6908 8.48618H12.4265L12.3408 8.92034H12.7193L12.6185 9.61206ZM14.9301 10.6055H13.465C13.4155 11.0212 13.6768 11.195 14.1049 11.195C14.3683 11.195 14.6053 11.1403 14.8695 11.0149L14.7476 11.7307C14.4943 11.8097 14.2502 11.8466 13.9923 11.8466C13.1676 11.8448 12.7381 11.405 12.7381 10.5629C12.7381 9.57987 13.2849 8.85597 14.0268 8.85597C14.6335 8.85597 15.0215 9.26055 15.0215 9.89758C15.0215 10.1084 14.994 10.3135 14.9301 10.6055ZM16.573 9.73749C16.1584 9.69408 16.0947 10.0376 15.8295 11.7966H15.0891L15.123 11.6029C15.2512 10.7116 15.4164 9.80993 15.5094 8.92027H16.189C16.1952 9.06667 16.1631 9.20908 16.1449 9.35708C16.3709 9.01687 16.5454 8.83665 16.8547 8.9027C16.7634 9.06197 16.6399 9.37636 16.573 9.73749ZM18.7957 11.742C18.5234 11.8192 18.3464 11.8467 18.1419 11.8467C17.345 11.8467 16.8482 11.2594 16.8482 10.32C16.8482 9.05548 17.5344 8.17238 18.5156 8.17238C18.8389 8.17238 19.2205 8.31237 19.3291 8.35575L19.2078 9.12307C18.9435 8.98629 18.7516 8.93153 18.5461 8.93153C17.9932 8.93153 17.6066 9.47778 17.6066 10.2571C17.6066 10.7937 17.8664 11.1186 18.2967 11.1186C18.4795 11.1186 18.6808 11.06 18.9255 10.9369L18.7957 11.742ZM21.4086 10.2701C21.3449 10.6859 21.2066 11.5787 21.1876 11.7967H20.5747L20.5889 11.4983C20.4008 11.7339 20.1505 11.8467 19.8122 11.8467C19.4109 11.8467 19.1354 11.5257 19.1354 11.0615C19.1354 10.3601 19.6147 9.95238 20.4353 9.95238C20.5195 9.95238 20.6273 9.96039 20.7376 9.97487C20.7601 9.87916 20.7658 9.83895 20.7658 9.78744C20.7658 9.59766 20.6376 9.52608 20.2921 9.52608C19.9295 9.52123 19.6313 9.61377 19.5085 9.65559C19.5155 9.60736 19.6108 9.00889 19.6108 9.00889C19.9798 8.89793 20.2236 8.85608 20.4959 8.85608C21.1324 8.85608 21.4693 9.14723 21.4684 9.69904C21.47 9.84697 21.4457 10.0295 21.4086 10.2701ZM22.3009 11.7966H21.5613L21.5952 11.6029C21.7234 10.7116 21.8879 9.80993 21.9807 8.92027H22.6605C22.6676 9.06667 22.6353 9.20908 22.6173 9.35708C22.843 9.01687 23.0162 8.83665 23.3268 8.9027C23.234 9.06197 23.1112 9.37636 23.0451 9.73749C22.6306 9.69408 22.5661 10.0376 22.3009 11.7966ZM24.6567 11.7966L24.692 11.5288C24.4881 11.7501 24.2797 11.8467 24.0091 11.8467C23.4708 11.8467 23.1152 11.3728 23.1152 10.6538C23.1152 9.69565 23.6666 8.88976 24.3196 8.88976C24.6062 8.88976 24.8248 9.00882 25.0272 9.28151L25.1908 8.25922H25.9211L25.3575 11.7966H24.6567Z" fill="black"/>
</g>
</svg>
