<?xml version="1.0" encoding="utf-8"?>
<!-- Generator: Adobe Illustrator 23.0.6, SVG Export Plug-In . SVG Version: 6.00 Build 0)  -->
<svg version="1.1" id="Layer_1" xmlns="http://www.w3.org/2000/svg" xmlns:xlink="http://www.w3.org/1999/xlink" x="0px" y="0px"
	 viewBox="0 0 22 18" style="enable-background:new 0 0 22 18;" xml:space="preserve">
<style type="text/css">
	.st0{fill:#EBF0EC;}
</style>
<g>
	<path class="st0" d="M8.9,17c-1,0-1.9-0.4-2.8-1.3l-4-4c-1-1-1.4-2.4-1-3.7C1.6,6.4,3,5.3,4.7,5.3c0,0,0,0,0,0c1,0,1.9,0.4,2.7,1.2
		L8.9,8c0.8-0.8,4.7-4.7,5.7-5.8c0.5-0.5,1-0.8,1.5-1C16.5,1.1,16.9,1,17.3,1c0.3,0,0.7,0.1,1,0.2c1.2,0.3,2.1,1.2,2.5,2.4
		C21.2,4.7,21,6,20.2,7c-0.1,0.1-0.2,0.3-0.3,0.3l-0.2,0.2c-1.8,1.8-8.1,8.2-8.1,8.2C10.8,16.6,9.9,17,8.9,17L8.9,17z"/>
	<path d="M17.3,2c0.3,0,0.5,0,0.8,0.1c1.8,0.5,2.5,2.7,1.4,4.2c-0.1,0.1-0.2,0.2-0.2,0.3c0,0.1-0.1,0.1-0.1,0.1c0,0,0,0,0,0l0,0l0,0
		c-1.8,1.8-3.6,3.6-5.4,5.5c-0.9,0.9-1.8,1.9-2.7,2.8l0,0c-0.5,0.5-1.2,1-2.1,1c0,0,0,0,0,0c-0.9,0-1.6-0.5-2.1-1
		c-0.7-0.7-1.3-1.3-2-2l0,0c-0.7-0.7-1.3-1.3-2-2l0,0c-0.6-0.6-1.1-1.5-0.8-2.7c0.3-1.2,1.4-2,2.6-2c0,0,0,0,0.1,0
		c0.9,0,1.6,0.5,1.9,0.9l0,0l0,0C7,7.6,7.4,8,7.8,8.3c0.4,0.4,0.7,0.7,1.1,1.1C10,8.4,11,7.3,12.1,6.2c1.1-1.1,2.2-2.2,3.2-3.3l0,0
		c0.3-0.3,0.6-0.6,1.1-0.8C16.7,2.1,17,2,17.3,2 M9.7,10.3C9.7,10.3,9.7,10.3,9.7,10.3L9.7,10.3C9.7,10.3,9.7,10.3,9.7,10.3 M17.3,0
		C17.3,0,17.3,0,17.3,0c-0.5,0-1,0.1-1.5,0.3c-0.7,0.2-1.3,0.7-1.9,1.2c-1.1,1.1-2.1,2.2-3.2,3.3C10.1,5.4,9.5,6,8.9,6.6
		C8.6,6.3,8.4,6.1,8.1,5.8C6.9,4.6,5.6,4.3,4.8,4.3l-0.1,0c-2.1,0-3.9,1.4-4.5,3.5c-0.5,1.7,0,3.4,1.3,4.7l1.9,1.9l0.1,0.1l2,2
		C6.7,17.7,8,18,8.9,18c0.9,0,2.2-0.3,3.5-1.6l2.7-2.8c1.8-1.8,3.6-3.6,5.4-5.5l0,0l0,0L20.7,8c0.1-0.1,0.2-0.2,0.4-0.4
		c0.9-1.2,1.2-2.8,0.7-4.3c-0.5-1.5-1.6-2.6-3.1-3C18.2,0.1,17.8,0,17.3,0L17.3,0L17.3,0z"/>
</g>
</svg>
