<svg width="20" height="19" viewBox="0 0 20 19" fill="none" xmlns="http://www.w3.org/2000/svg">
<path d="M9.04256 16.2092C9.04256 17.2135 8.22855 18.0274 7.22434 18.0274C6.22027 18.0274 5.40625 17.2134 5.40625 16.2092C5.40625 15.2051 6.22027 14.3911 7.22434 14.3911C8.22859 14.3911 9.04256 15.2051 9.04256 16.2092Z" fill="black"/>
<path d="M16.4096 16.2197C16.4096 17.224 15.5956 18.0379 14.5915 18.0379C13.5875 18.0379 12.7734 17.2239 12.7734 16.2197C12.7734 15.2156 13.5875 14.4016 14.5915 14.4016C15.5956 14.4016 16.4096 15.2156 16.4096 16.2197Z" fill="black"/>
<path d="M19.0425 2.82282H7.72698V4.73669H17.8463L16.6981 9.61695C16.6278 9.93351 16.4524 10.217 16.2005 10.4213C15.9485 10.6254 15.6348 10.7382 15.3106 10.7413H7.46387C7.13546 10.7437 6.81624 10.6334 6.55924 10.4286C6.30243 10.224 6.12355 9.93751 6.05246 9.61695L4.04282 0.741574C3.99409 0.530647 3.87544 0.342584 3.7059 0.207924C3.53653 0.0730932 3.32644 -0.000166322 3.10984 2.83541e-07H0V1.91387H2.3444L4.1865 10.0476C4.35103 10.7922 4.76637 11.4575 5.36294 11.9323C5.95969 12.407 6.70143 12.6624 7.46388 12.6554H15.3106C16.0688 12.6569 16.8051 12.399 17.3968 11.9248C17.9886 11.4505 18.4004 10.7882 18.5641 10.0476L19.9755 3.99516C20.0411 3.71097 19.9735 3.41225 19.7918 3.184C19.6102 2.95572 19.3342 2.82289 19.0425 2.82306L19.0425 2.82282Z" fill="black"/>
</svg>
