<svg width="42" height="42" viewBox="0 0 42 42" fill="none" xmlns="http://www.w3.org/2000/svg">
<g id="Frame" clip-path="url(#clip0_1303_13495)">
<g id="Group">
<path id="Vector" d="M21.0492 -0.000158505C32.6485 0.032654 42.0328 9.48265 42 21.0655C41.9672 32.6647 32.5008 42.0491 20.9016 41.9998C9.35158 41.9506 -0.0163847 32.5334 2.15165e-05 20.967C0.0164278 9.36781 9.45002 -0.032971 21.0492 -0.000158505ZM21.0328 40.1787C31.5821 40.1623 40.1789 31.5491 40.1789 20.9998C40.1789 10.4178 31.5492 1.78812 20.9672 1.80453C10.418 1.83734 1.82112 10.4506 1.82112 20.9998C1.82112 31.5655 10.4508 40.1951 21.0328 40.1787Z" fill="black"/>
<path id="Vector_2" d="M21.9204 16.3899C21.9204 17.5711 21.9532 18.736 21.9039 19.9172C21.8875 20.4586 22.0844 20.836 22.4618 21.1969C25.3493 24.068 28.2204 26.9391 31.1079 29.8266C31.2883 30.0071 31.4688 30.1711 31.6164 30.3516C31.961 30.7618 32.0102 31.2047 31.6329 31.5985C31.2555 31.9922 30.8125 31.9594 30.386 31.6313C30.2383 31.5165 30.1071 31.3688 29.9758 31.2375C26.9079 28.1696 23.8399 25.0852 20.7555 22.0336C20.2961 21.5743 20.0664 21.0985 20.0829 20.4422C20.0993 17.9321 20.0993 15.4219 20.0993 12.9118C20.0993 12.7477 20.0993 12.5836 20.1157 12.4196C20.1649 11.8782 20.3946 11.4516 21.0016 11.4516C21.6743 11.4352 21.9204 11.8782 21.9368 12.4688C21.9696 13.4204 21.9532 14.3719 21.9532 15.3399C21.9204 15.6844 21.9204 16.0454 21.9204 16.3899Z" fill="black"/>
<path id="Vector_3" d="M21.9195 5.62739C21.9031 6.30005 21.6898 6.80864 21.0008 6.80864C20.3281 6.80864 20.082 6.31646 20.082 5.69302C20.082 5.08599 20.2789 4.57739 20.9844 4.57739C21.7063 4.5938 21.8867 5.10239 21.9195 5.62739Z" fill="black"/>
<path id="Vector_4" d="M5.66016 21.9188C5.10234 21.886 4.59375 21.7055 4.59375 20.9836C4.59375 20.2782 5.10234 20.0813 5.70937 20.0813C6.31641 20.0813 6.825 20.3274 6.80859 21C6.80859 21.6891 6.31641 21.9024 5.66016 21.9188Z" fill="black"/>
<path id="Vector_5" d="M36.3086 21.9187C35.636 21.8859 35.1602 21.6398 35.193 20.9507C35.2258 20.2781 35.7344 20.0648 36.3414 20.0812C36.9485 20.0976 37.4407 20.3273 37.4078 21.0328C37.375 21.7546 36.85 21.9023 36.3086 21.9187Z" fill="black"/>
<path id="Vector_6" d="M21.9195 36.3071C21.8867 36.8977 21.7063 37.4063 20.9844 37.4063C20.2789 37.4063 20.082 36.8977 20.082 36.2907C20.082 35.6836 20.3281 35.175 21.0008 35.175C21.6898 35.1915 21.9031 35.7001 21.9195 36.3071Z" fill="black"/>
<path id="Vector_7" d="M9.17216 9.95873C9.22137 9.49935 9.50028 9.18763 10.0417 9.15482C10.5667 9.13842 11.305 9.84388 11.2722 10.3525C11.2393 10.8775 10.9112 11.2056 10.3862 11.2384C9.86122 11.304 9.15575 10.5658 9.17216 9.95873Z" fill="black"/>
<path id="Vector_8" d="M32.1391 9.17117C32.582 9.26961 32.861 9.58132 32.8281 10.1227C32.7953 10.6805 32.0406 11.3368 31.532 11.2384C31.0235 11.1399 30.7117 10.8118 30.7445 10.2704C30.7774 9.74539 31.5485 9.10554 32.1391 9.17117Z" fill="black"/>
<path id="Vector_9" d="M9.97376 32.8454C9.51439 32.7962 9.18626 32.5337 9.15345 31.9923C9.12064 31.4673 9.8261 30.729 10.3347 30.7618C10.8597 30.7946 11.1878 31.1063 11.237 31.6313C11.3027 32.1235 10.5808 32.829 9.97376 32.8454Z" fill="black"/>
</g>
</g>
<defs>
<clipPath id="clip0_1303_13495">
<rect width="42" height="42" fill="white"/>
</clipPath>
</defs>
</svg>
