<svg width="64" height="76" viewBox="0 0 64 76" fill="none" xmlns="http://www.w3.org/2000/svg">
<g id="Frame" clip-path="url(#clip0_705_45842)">
<g id="Group">
<path id="Vector" d="M0 32.9531C0 23.5125 0 14.0719 0 4.60156C0 1.30625 1.3037 0 4.53333 0C19.4963 0 34.4593 0 49.4222 0C52.6222 0 53.9259 1.30625 53.9259 4.48281C53.9259 6.02656 53.9556 7.54063 53.9259 9.08438C53.8963 9.85625 54.1333 10.1234 54.9333 10.1234C56.6519 10.0641 58.4 10.0938 60.1185 10.1234C62.5185 10.1531 64 11.6078 64 14.0422C64.0296 28.5891 64.0296 43.1359 64 57.6828C64 60.2062 62.9333 62.4031 61.1259 64.1547C57.9556 67.1828 54.7556 70.2109 51.5259 73.2094C49.4815 75.1094 47.0815 76.0891 44.2667 76.0891C34.3407 76.0891 24.4148 76.0891 14.4889 76.0891C11.437 76.0891 10.1037 74.7234 10.0741 71.6656C10.0741 70.1813 10.0148 68.6969 10.1037 67.2125C10.163 66.2031 9.77778 65.9656 8.82963 65.9953C7.43704 66.0547 6.07407 66.025 4.68148 66.025C1.27407 65.9062 0 64.6594 0 61.3047C0 51.8641 0 42.4234 0 32.9531ZM12.7704 43.0469C12.7704 52.4875 12.7704 61.9281 12.7704 71.3688C12.7704 72.4969 12.8889 73.2984 14.3111 73.2984C24.3259 73.2687 34.3407 73.2687 44.3556 73.2984C45.4222 73.2984 45.6889 72.8828 45.6593 71.9031C45.6 69.3797 45.6296 66.8562 45.6296 64.3328C45.6593 60.6516 47.6444 58.6328 51.2889 58.6031C54.0148 58.5734 56.7111 58.5141 59.437 58.6328C60.9185 58.6922 61.2444 58.1875 61.2444 56.7922C61.1852 42.8094 61.2148 28.7969 61.2148 14.8141C61.2148 12.9438 61.0667 12.825 59.1407 12.825C44.3259 12.825 29.5407 12.825 14.7259 12.825C12.8593 12.825 12.7407 12.9437 12.7407 14.8734C12.7704 24.2547 12.7704 33.6359 12.7704 43.0469ZM2.72593 32.8937C2.72593 36.5453 2.72593 40.2266 2.72593 43.8781C2.72593 49.7266 2.75556 55.5453 2.6963 61.3937C2.6963 62.7297 3.11111 63.3234 4.5037 63.2344C5.68889 63.1453 6.87407 63.2344 8.05926 63.2047C10.3407 63.175 10.0444 63.5016 10.0444 61.275C10.0444 45.6891 10.0444 30.1031 10.0444 14.5172C10.0444 13.3594 10.1333 12.2609 10.963 11.3406C11.8519 10.3313 13.0074 10.0641 14.2815 10.0641C26.0444 10.0938 37.7778 10.0344 49.5407 10.1234C50.9333 10.1234 51.3185 9.70781 51.2 8.37187C51.0815 7.18438 51.1704 5.99688 51.1704 4.80938C51.1704 2.82031 51.0815 2.73125 49.0667 2.73125C34.3111 2.73125 19.5556 2.73125 4.77037 2.73125C2.78519 2.73125 2.6963 2.85 2.6963 4.83906C2.72593 14.1906 2.72593 23.5422 2.72593 32.8937ZM48.5333 72.1406C52.4148 68.4594 56 65.075 59.9111 61.3937C56.4741 61.3937 53.5111 61.3641 50.5778 61.4234C49.4519 61.4531 48.6222 62.1359 48.563 63.2344C48.4444 66.0547 48.5333 68.875 48.5333 72.1406Z" fill="black"/>
<path id="Vector_2" d="M37.0354 25.6203C32.828 25.6203 28.6503 25.6203 24.4429 25.6203C23.4354 25.6203 22.428 25.5312 22.4577 24.225C22.4873 22.9187 23.4947 22.8594 24.5021 22.8594C32.828 22.8594 41.1836 22.8594 49.5095 22.8594C50.3688 22.8594 51.2577 22.8594 51.554 23.8984C51.8503 24.9078 51.1391 25.5906 49.7762 25.5906C45.5095 25.6203 41.2725 25.6203 37.0354 25.6203Z" fill="black"/>
<path id="Vector_3" d="M36.9202 34.764C32.6832 34.764 28.4461 34.764 24.1795 34.764C23.2313 34.764 22.4609 34.5265 22.4609 33.428C22.4609 32.3296 23.2017 32.0327 24.1498 32.0327C32.6832 32.0327 41.2165 32.0327 49.7498 32.0327C50.7572 32.0327 51.5869 32.2702 51.5572 33.4577C51.5276 34.5562 50.7276 34.764 49.7795 34.764C45.5128 34.764 41.2165 34.764 36.9202 34.764Z" fill="black"/>
<path id="Vector_4" d="M37.0387 43.9375C32.8313 43.9375 28.6535 43.9375 24.4461 43.9375C23.4387 43.9375 22.4609 43.8485 22.4609 42.5422C22.4609 41.236 23.498 41.2063 24.4758 41.2063C32.8609 41.2063 41.2461 41.2063 49.6313 41.2063C50.4017 41.2063 51.1424 41.2063 51.498 42.0672C51.9128 43.1063 51.172 43.9079 49.7498 43.9375C45.5424 43.9672 41.3054 43.9375 37.0387 43.9375Z" fill="black"/>
<path id="Vector_5" d="M31.2002 53.1406C28.8891 53.1406 26.578 53.1406 24.2669 53.1406C23.2594 53.1406 22.4594 52.8734 22.4891 51.6859C22.5187 50.5578 23.3483 50.3796 24.2669 50.3796C28.8594 50.3796 33.4224 50.3796 38.015 50.3796C38.9632 50.3796 39.7335 50.6171 39.7335 51.7453C39.7335 52.8437 38.9632 53.1406 38.015 53.1406C35.7335 53.1406 33.452 53.1406 31.2002 53.1406Z" fill="black"/>
</g>
</g>
<defs>
<clipPath id="clip0_705_45842">
<rect width="64" height="76" fill="white"/>
</clipPath>
</defs>
</svg>
