<svg width="39" height="40" viewBox="0 0 39 40" fill="none" xmlns="http://www.w3.org/2000/svg">
<path id="Vector" d="M18.1524 3.27023L18.1524 3.27021C18.545 2.96843 19.0262 2.80433 19.5216 2.80433C20.0167 2.80433 20.4982 2.96839 20.8905 3.27018L18.1524 3.27023ZM18.1524 3.27023L2.86183 15.0292L2.72954 15.1309L2.84477 15.2516L12.8401 25.7242L12.9376 25.8264L13.0455 25.7353L17.3435 22.1031L17.3435 22.1032L17.3474 22.0997C17.9365 21.5654 18.7032 21.2696 19.4984 21.2696C20.2937 21.2696 21.0602 21.5654 21.6491 22.0997L21.649 22.0997L21.653 22.1031L25.9932 25.7729L26.1015 25.8645L26.199 25.7615L36.1771 15.2216L36.2914 15.1008L36.1596 14.9995L20.8906 3.27025L18.1524 3.27023ZM0.15 15.6841L0.15 15.6841C0.149716 14.8201 0.550643 14.005 1.23519 13.4779L16.781 1.51372L16.6895 1.39485L16.781 1.51372C17.5604 0.913859 18.5164 0.588477 19.5002 0.588477C20.484 0.588477 21.44 0.913843 22.2194 1.51372L22.3105 1.39534L22.2194 1.51372L37.7653 13.4779C37.7653 13.4779 37.7653 13.4779 37.7653 13.4779C38.4498 14.005 38.8503 14.8198 38.85 15.6838V34.9534C38.85 36.136 38.3805 37.2698 37.5443 38.1057L37.6503 38.2118L37.5442 38.1058C36.7083 38.9417 35.5747 39.4115 34.3922 39.4115H4.6081C3.42558 39.4115 2.2917 38.9417 1.45576 38.1058L1.34969 38.2118L1.45574 38.1057C0.619551 37.2698 0.15 36.1362 0.15 34.9537V15.6841ZM2.62246 18.224L2.36395 17.9531V18.3276V34.4468V34.7702L2.61083 34.5614L11.1228 27.3603L11.2444 27.2574L11.1344 27.1422L2.62246 18.224ZM34.3926 37.2026L34.3938 37.2026C34.7616 37.1994 35.123 37.1055 35.4452 36.9284L35.6364 36.8233L35.4698 36.6824L20.2108 23.7772L20.1724 23.7425C20.1721 23.7423 20.1719 23.742 20.1716 23.7418C19.793 23.3913 19.2084 23.3913 18.8296 23.7417C18.8293 23.742 18.8291 23.7422 18.8288 23.7425L18.7903 23.7772L3.5313 36.6824L3.36471 36.8233L3.5559 36.9283C3.87812 37.1055 4.23944 37.1994 4.60719 37.2026H4.60847L34.3926 37.2026ZM36.3903 34.5616L36.6371 34.7702V34.447V18.3273V17.9505L36.3781 18.2242L27.9036 27.1805L27.7945 27.2957L27.9157 27.3981L36.3903 34.5616Z" fill="black" stroke="white" stroke-width="0.3"/>
</svg>
