<svg width="21" height="17" viewBox="0 0 21 17" fill="none" xmlns="http://www.w3.org/2000/svg">
<g id="Frame" clip-path="url(#clip0_704_36155)">
<g id="Group">
<path id="Vector" d="M6.75176 5.31803C4.88203 5.31803 3.01231 5.32799 1.14258 5.31803C0.296279 5.30807 -0.225276 4.55119 0.099466 3.82419C0.315961 3.34615 0.709588 3.18681 1.2213 3.18681C3.20912 3.19677 5.18709 3.18681 7.17491 3.18681C8.86751 3.18681 10.5503 3.17685 12.2429 3.19677C12.5676 3.19677 12.7546 3.13701 12.8825 2.77849C13.6402 0.697062 15.7757 -0.408386 17.8816 0.139358C19.9776 0.687103 21.2766 2.74861 20.942 4.98939C20.6271 7.06086 18.7279 8.62442 16.5826 8.48499C14.8014 8.36549 13.5517 7.41938 12.8923 5.73631C12.7546 5.39771 12.607 5.30807 12.2625 5.30807C10.4223 5.31803 8.58213 5.31803 6.75176 5.31803ZM18.8853 4.30222C18.905 3.1171 18.0095 2.15107 16.8581 2.13116C15.6969 2.10128 14.7424 3.02747 14.7227 4.20263C14.703 5.40766 15.6281 6.38365 16.8089 6.38365C17.9308 6.38365 18.8656 5.45746 18.8853 4.30222Z" fill="black"/>
<path id="Vector_2" d="M14.2896 13.803C12.4396 13.803 10.5895 13.813 8.72963 13.793C8.40488 13.793 8.24743 13.8727 8.12935 14.2014C7.36177 16.3127 5.21651 17.4281 3.10076 16.8504C1.02438 16.2828 -0.254909 14.2412 0.069833 12.0303C0.374894 9.95883 2.27414 8.38531 4.41941 8.51477C6.18089 8.61436 7.43066 9.55051 8.09982 11.2037C8.25727 11.6021 8.44425 11.6917 8.83787 11.6917C12.4888 11.6817 16.1495 11.6817 19.8004 11.6817C20.6565 11.6817 21.1781 12.3191 20.9419 13.0561C20.7845 13.5441 20.4203 13.793 19.8004 13.793C17.97 13.803 16.1298 13.803 14.2896 13.803ZM6.28914 12.7673C6.29898 11.5821 5.37396 10.636 4.2226 10.6261C3.07124 10.6161 2.12653 11.5622 2.11669 12.7374C2.10685 13.9125 3.03188 14.8686 4.19308 14.8786C5.35428 14.8786 6.28914 13.9424 6.28914 12.7673Z" fill="black"/>
</g>
</g>
<defs>
<clipPath id="clip0_704_36155">
<rect width="21" height="17" fill="white"/>
</clipPath>
</defs>
</svg>
