<svg width="99" height="90" viewBox="0 0 99 90" fill="none" xmlns="http://www.w3.org/2000/svg">
<path d="M40.7606 6.9227L47.3604 5.35092L46.6503 10.0787C46.6131 10.4399 46.4044 10.7602 46.0898 10.9403C45.781 11.1281 45.4026 11.1634 45.0652 11.0356L44.5734 12.3062H44.5724C44.866 12.4177 45.1758 12.4778 45.4884 12.4844C45.9698 12.4978 46.4454 12.3691 46.8553 12.1146C47.5244 11.7219 47.9743 11.0404 48.0706 10.2702L48.795 5.0774L51.0902 4.57222L50.79 3.20536L48.7816 3.65622C48.5605 2.38755 47.797 1.27901 46.6894 0.620466C45.5828 -0.0381718 44.2437 -0.180188 43.0236 0.231559C41.8026 0.643329 40.8227 1.56697 40.3404 2.76124C39.8582 3.95551 39.922 5.30043 40.5149 6.44436L40.7606 6.9227ZM44.5048 1.3885C45.9888 1.38659 47.2575 2.45415 47.511 3.91622L41.5803 5.28308V5.28213C41.4983 4.99331 41.4564 4.69498 41.4573 4.39473C41.4869 2.73049 42.8406 1.39509 44.5048 1.3885Z" fill="white"/>
<path d="M21.0571 64.3972L15.2494 54.8322L14.6622 55.1877L15.2361 54.8188V54.8179C13.9369 52.7724 13.223 50.4096 13.1724 47.9855C13.1067 44.5074 14.4211 41.1447 16.8278 38.6321C19.2355 36.1195 22.5391 34.663 26.0173 34.581L40.269 35.497L47.3884 40.0883L48.1261 38.9407L39.7362 33.4753L39.8315 17.2419L39.8325 17.24C39.8325 16.7739 40.0184 16.3268 40.3491 15.999C40.6808 15.6701 41.1288 15.488 41.5949 15.4909H43.1391L47.4978 23.3069V23.3078C48.1365 24.4354 49.3985 25.0579 50.6825 24.8787L58.8818 23.6901L58.6902 22.3232L50.4909 23.5118V23.5128C49.7664 23.6243 49.0497 23.2687 48.7008 22.6244L43.9455 14.1116L41.595 14.1106C39.8726 14.1106 38.4733 15.5041 38.4658 17.2266L38.3704 33.9386L26.0727 33.1465C22.18 33.2017 18.4778 34.8345 15.8098 37.6692C15.5629 37.9199 15.3304 38.1849 15.113 38.4613L13.5822 38.5709C11.7893 38.7883 10.1195 39.5994 8.83912 40.8738C7.55996 42.1492 6.74212 43.8154 6.51815 45.6081L4.11328 64.3285L5.48014 64.4925L7.885 45.7855H7.88405C8.08326 44.3033 8.76289 42.9269 9.819 41.8679C10.8761 40.8089 12.2505 40.1255 13.7327 39.9234H14.0473C12.5555 42.2577 11.7625 44.9696 11.7625 47.7394C11.7625 50.5101 12.5555 53.2221 14.0473 55.5563L19.6766 64.7392L21.2761 76.5719L32.4406 88.5285L33.4386 87.5991L22.5751 75.957L21.0571 64.3972Z" fill="white"/>
<path d="M59.3334 57.1674L57.5843 54.7759L56.4777 55.5823L57.0925 56.4154V56.4164C52.5582 57.4162 47.92 57.8747 43.2782 57.7823C39.5141 57.4124 35.8473 56.3668 32.455 54.694C32.8649 52.1558 32.577 49.5527 31.6219 47.165L30.3514 47.6569C31.4933 50.4459 31.581 53.5542 30.5973 56.4023C29.7404 59.0015 27.7872 61.0939 25.2539 62.128L25.7591 63.3986H25.76C28.6587 62.2195 30.8994 59.8348 31.8957 56.8674C31.991 56.5938 32.0597 56.3212 32.1416 56.0476C35.5978 57.7128 39.3219 58.7537 43.1412 59.1217C43.7427 59.1217 44.3851 59.1903 45.0542 59.1903C49.3969 59.0655 53.7196 58.5441 57.9679 57.6328L58.2138 57.9741C58.5007 58.3563 58.8152 58.7118 59.1155 59.0674L53.4583 81.3001V88.3784H54.8252V81.546L60.2905 60.2569C60.6871 60.6534 61.0826 61.049 61.5068 61.4045L65.8656 65.0391L66.7539 64.0002L62.2722 60.3656C61.1665 59.4229 60.18 58.3487 59.3335 57.1678L59.3334 57.1674Z" fill="white"/>
<path d="M0 82.0932V89.3086H1.36686V82.5173L15.2365 61.9649L14.1023 61.1995L0 82.0932Z" fill="white"/>
<path d="M58.1695 31.219C67.7345 23.7032 79.4042 20.287 90.0619 21.8311L90.2669 20.4643C79.2263 18.8515 67.2143 22.3773 57.3203 30.1389L58.1695 31.219Z" fill="white"/>
<path d="M98.8369 38.5298L92.9606 17.3768L91.5938 17.7457L97.4691 38.9394H97.47C97.8513 40.3282 97.1993 41.7921 95.9125 42.4376L94.6553 43.0657L95.2568 44.282L96.514 43.6672C97.4433 43.2211 98.1849 42.4604 98.61 41.5216C99.0351 40.5817 99.1152 39.5228 98.8369 38.5295L98.8369 38.5298Z" fill="white"/>
<path d="M84.5283 28.2126L83.1615 28.103V28.104C83.0509 29.5719 83.334 31.0436 83.9821 32.3666C81.7689 33.8565 73.5011 40.032 72.2439 50.131C72.2439 50.131 72.162 55.1047 69.0193 55.7337L65.7127 50.4455L64.5508 51.1699L74.9633 67.7867L72.162 83.8695L66.7918 87.0666L67.4886 88.2419L73.4049 84.7847L76.3979 67.4854L69.784 56.8814C72.7627 55.9387 73.5967 52.1536 73.5967 50.1586C74.7586 40.9623 82.5602 35.0184 84.6783 33.5418C84.8146 33.7191 84.9375 33.8974 85.0748 34.0613C86.4502 35.6941 88.4148 36.7159 90.5411 36.9036L90.6508 35.5367H90.6498C88.8645 35.3976 87.2097 34.5454 86.0595 33.1729C84.9166 31.785 84.3666 30.0036 84.5287 28.2126L84.5283 28.2126Z" fill="white"/>
<path d="M49.4929 53.2046L50.7501 53.7507L55.7648 42.3546H55.7658C56.2395 41.2918 56.0813 40.0537 55.3559 39.1434L49.2336 31.4636L48.168 32.311L54.2902 39.9908H54.2893C54.6944 40.5084 54.784 41.2052 54.5219 41.8085L49.4929 53.2046Z" fill="white"/>
</svg>
