<svg width="26" height="36" viewBox="0 0 26 36" fill="none" xmlns="http://www.w3.org/2000/svg">
<path id="Vector" d="M24.5594 7.24001C22.4292 2.92001 18.3656 0.24 13.6706 0H12.3293C7.63445 0.200058 3.57095 2.91993 1.44053 7.24001C-0.769006 11.72 -0.413725 16.8 2.34786 20.88L12.3293 35.6401C12.487 35.8401 12.7239 36 12.9606 36C13.1972 36 13.4735 35.88 13.5919 35.6401L23.6522 20.88C26.4138 16.8 26.769 11.72 24.5594 7.24001ZM22.3502 19.96L13 33.8001L3.64985 19.96C1.20389 16.3602 0.927579 11.88 2.86088 7.96001C4.71485 4.15979 8.26576 1.79986 12.4083 1.59979H13H13.5917C17.7342 1.79985 21.2848 4.15979 23.1391 7.96001C25.0721 11.88 24.7964 16.4 22.3502 19.96ZM13 4.00001C7.98952 4.00001 3.92602 8.12002 3.92602 13.2C3.92602 18.2801 7.98959 22.4 13 22.4C18.0105 22.4 22.074 18.28 22.074 13.2C22.074 8.11994 18.0105 4.00001 13 4.00001ZM13 20.8C8.85747 20.8 5.5041 17.3999 5.5041 13.2C5.5041 8.99995 8.85768 5.60001 13 5.60001C17.1426 5.60001 20.4959 9.00016 20.4959 13.2C20.4959 17.4001 17.1426 20.8 13 20.8Z" fill="black"/>
</svg>
