<svg width="32" height="29" viewBox="0 0 32 29" fill="none" xmlns="http://www.w3.org/2000/svg">
<path id="Vector" d="M8.99335 11.1216L8.81509 11.2123C8.92792 11.4341 8.90664 11.7002 8.76006 11.9017C8.76001 11.9018 8.75996 11.9018 8.75991 11.9019L5.08549 16.9232L5.08532 16.9235C4.96017 17.095 4.75997 17.1965 4.54695 17.1965C4.33364 17.1965 4.13374 17.095 4.00857 16.9235L4.0083 16.9231L0.3271 11.9018C0.327068 11.9018 0.327035 11.9017 0.327003 11.9017C0.180446 11.7005 0.159099 11.4346 0.271466 11.213C0.384156 10.9911 0.611816 10.8503 0.861483 10.8486H3.42881H3.58102L3.62158 10.7019C5.29148 4.66205 10.8439 0.211518 17.4223 0.200022L17.4235 0.20034H17.4491C25.358 0.20034 31.8 6.61457 31.8 14.4993C31.8 22.3841 25.3581 28.8 17.4491 28.8C12.7206 28.8 8.29764 26.479 5.62361 22.5914L5.62317 22.5907C5.47722 22.3803 5.42144 22.1208 5.46813 21.8698L5.46817 21.8696C5.51462 21.6185 5.65959 21.3962 5.87136 21.252L5.87165 21.2518C6.31009 20.9522 6.90873 21.0632 7.21 21.4992C9.52602 24.8666 13.3535 26.8791 17.4483 26.8791C24.3188 26.8791 29.8696 21.3525 29.8696 14.499C29.8696 7.64543 24.3192 2.12049 17.4483 2.12049C11.9494 2.12049 7.30132 5.65968 5.66385 10.5855L5.57639 10.8486H5.85363L8.22314 10.8486C8.22321 10.8486 8.22329 10.8486 8.22337 10.8486C8.4735 10.8497 8.70191 10.9903 8.81517 11.2124L8.99335 11.1216ZM8.99335 11.1216C8.84596 10.8325 8.5489 10.6499 8.22393 10.6486L8.9216 12.0196C9.11249 11.7574 9.14041 11.4107 8.99335 11.1216ZM15.9615 7.63602C16.1412 7.45527 16.3857 7.35303 16.6416 7.35187L16.6416 7.3519C16.8986 7.35109 17.1453 7.45253 17.3271 7.63355C17.5086 7.81466 17.6099 8.06024 17.6091 8.31605V8.31668V14.8771V14.9826L17.6962 15.0422L21.1047 17.3715C21.1047 17.3715 21.1047 17.3715 21.1047 17.3715C21.5415 17.6715 21.6529 18.2661 21.3552 18.7025C21.0543 19.1391 20.4559 19.2509 20.0171 18.9517L20.0169 18.9516L16.1014 16.2867C16.1014 16.2867 16.1014 16.2867 16.1014 16.2867C15.8386 16.1077 15.6818 15.8109 15.6821 15.4936V15.4935L15.6821 8.31666L15.6821 8.31581C15.681 8.06156 15.7814 7.81704 15.9614 7.63612L15.9615 7.63602Z" fill="black" stroke="white" stroke-width="0.4"/>
</svg>
