<svg width="29" height="36" viewBox="0 0 29 36" fill="none" xmlns="http://www.w3.org/2000/svg">
<path id="Vector" d="M28.1219 21.047C27.6925 18.121 27.1585 14.4801 26.7146 10.1258H26.7144C26.6438 9.4104 26.3085 8.74679 25.7739 8.26474C25.2394 7.78245 24.544 7.51655 23.8233 7.51833H21.6361V7.12013V7.12038C21.6361 4.57639 20.2759 2.22579 18.0678 0.953823C15.8598 -0.317941 13.1393 -0.317941 10.9315 0.953823C8.72343 2.22585 7.36319 4.57639 7.36319 7.12038V7.51859L5.17603 7.51833C4.45532 7.51653 3.76002 7.78243 3.22539 8.26448C2.69076 8.74652 2.35551 9.41013 2.28497 10.1256C1.84113 14.4804 1.3071 18.1211 0.877687 21.0467C-0.0895965 27.6406 -0.621844 31.2732 1.26233 33.462C3.08109 35.5745 6.8141 35.9523 14.4947 36H14.5053C22.1856 35.9523 25.9186 35.5745 27.7377 33.462C29.6219 31.2731 29.0894 27.6404 28.1224 21.0467L28.1219 21.047ZM9.05483 7.1204C9.05483 5.17941 10.0925 3.38592 11.7773 2.41563C13.462 1.44513 15.5377 1.44513 17.2223 2.41563C18.9072 3.38586 19.9448 5.17935 19.9448 7.1204V7.51861L9.05502 7.51835L9.05483 7.1204ZM26.4543 32.3629C25.0819 33.9565 21.3518 34.2686 14.4997 34.3127C7.64794 34.2717 3.91764 33.9565 2.54517 32.3629C1.16296 30.7569 1.65617 27.3948 2.55137 21.2906C2.9828 18.3486 3.51971 14.6868 3.96739 10.2962H3.96713C3.99686 9.99701 4.13696 9.71976 4.36056 9.51808C4.5839 9.31666 4.87445 9.2055 5.17584 9.20627H7.363V12.4623C7.363 12.9284 7.7417 13.3062 8.20879 13.3062C8.67587 13.3062 9.05457 12.9284 9.05457 12.4623V9.20627H19.9444V12.4131C19.9444 12.8791 20.3231 13.2569 20.7902 13.2569C21.2572 13.2569 21.6359 12.8791 21.6359 12.4131V9.20627H23.8231C24.1245 9.2055 24.4151 9.31666 24.6386 9.51834C24.862 9.72003 25.0021 9.99728 25.0318 10.2964C25.4793 14.6873 26.0164 18.3488 26.4478 21.2908C27.3427 27.3948 27.8362 30.7568 26.4538 32.3632L26.4543 32.3629ZM21.4397 18.0825C21.7734 18.4067 21.782 18.939 21.4586 19.2737L13.6248 27.3102C13.4671 27.4722 13.2507 27.5643 13.0245 27.5658H13.0176C12.7932 27.5661 12.5781 27.4774 12.4197 27.3193L8.25756 23.1654C8.08824 23.0099 7.99001 22.7922 7.9851 22.5627C7.98045 22.3331 8.06963 22.1113 8.23223 21.9488C8.39482 21.7864 8.61687 21.6971 8.84694 21.7015C9.077 21.7059 9.29543 21.8036 9.45156 21.9721L13.008 25.5206L20.2436 18.0975C20.5695 17.7637 21.1049 17.757 21.4393 18.0823L21.4397 18.0825Z" fill="black"/>
</svg>
