<svg width="38" height="31" viewBox="0 0 38 31" fill="none" xmlns="http://www.w3.org/2000/svg">
<g id="Group 3789">
<path id="Vector" d="M19.2592 17.7374L19.3757 17.8017L19.3596 17.9567C20.5639 18.2096 21.4717 19.2825 21.4717 20.5677V24.0174C21.4717 24.4761 21.102 24.846 20.6474 24.846H11.7868C11.3325 24.846 10.9625 24.4764 10.9625 24.0174V20.5677C10.9625 19.2835 11.8702 18.2096 13.0746 17.9567L13.2733 17.915L13.1751 17.7373C12.8951 17.2309 12.7231 16.6586 12.7231 16.0453C12.7231 14.1096 14.2915 12.5353 16.2172 12.5353C18.1428 12.5353 19.7112 14.1086 19.7112 16.0453C19.7112 16.6596 19.5389 17.2308 19.2592 17.7374ZM19.6733 23.1889H19.8233V23.0389L19.8233 20.5677C19.8233 20.01 19.3717 19.5555 18.8149 19.5555H13.6205C13.0635 19.5555 12.6111 20.0098 12.6111 20.5677V23.0389V23.1889H12.7611H19.6733ZM18.0625 16.0455C18.0625 15.0247 17.2351 14.1927 16.2171 14.1927C15.1992 14.1927 14.3717 15.0247 14.3717 16.0455C14.3717 17.0664 15.1992 17.8984 16.2171 17.8984C17.2351 17.8984 18.0625 17.0664 18.0625 16.0455Z" fill="black" stroke="white" stroke-width="0.3"/>
<path id="Vector_2" d="M10.6852 7.58115H33.755V7.5815H33.905C35.9881 7.5815 37.6842 9.28366 37.6842 11.3755V26.9067C37.6842 28.9996 35.9881 30.701 33.905 30.701H10.6852C8.60329 30.701 6.90781 28.9996 6.90781 26.9067V11.3755C6.90781 9.28324 8.6033 7.58115 10.6852 7.58115ZM33.905 29.0285C35.073 29.0285 36.0212 28.0757 36.0212 26.9055V11.3751C36.0212 10.2037 35.0718 9.25208 33.905 9.25208H10.6852C9.51818 9.25208 8.57116 10.2051 8.57116 11.3751V26.9055C8.57116 28.0755 9.51818 29.0285 10.6852 29.0285H33.905Z" fill="black" stroke="white" stroke-width="0.3"/>
<path id="Vector_3" d="M5.74675 24.9085V26.8679C5.74675 27.2834 5.80983 27.6805 5.90909 28.0601C5.12683 27.5644 4.52963 26.7912 4.27888 25.8516L4.27885 25.8515L0.278614 10.9138C0.278606 10.9137 0.2786 10.9137 0.278592 10.9137C-0.258823 8.90231 0.938038 6.82577 2.94721 6.28701L25.351 0.280425C25.3511 0.280423 25.3511 0.28042 25.3511 0.280418C25.6722 0.194384 26.0011 0.15 26.331 0.15C28.0345 0.15 29.5322 1.30239 29.9726 2.95128L29.9726 2.95136L30.8809 6.34427H29.1619L28.3683 3.38013C28.1224 2.45688 27.2844 1.81245 26.3309 1.81245C26.1461 1.81245 25.9613 1.83677 25.781 1.88539L3.37734 7.89192L3.37728 7.89194C2.25216 8.19409 1.58223 9.35686 1.88293 10.4826L1.88295 10.4827L5.74675 24.9085Z" fill="black" stroke="white" stroke-width="0.3"/>
<path id="Vector_4" d="M23.7984 13.6612H32.9565V15.388H23.7984V13.6612Z" fill="black" stroke="white" stroke-width="0.3"/>
<path id="Vector_5" d="M23.7984 17.94H32.9565V19.6668H23.7984V17.94Z" fill="black" stroke="white" stroke-width="0.3"/>
<path id="Vector_6" d="M23.7984 22.2188H29.3534V23.9456H23.7984V22.2188Z" fill="black" stroke="white" stroke-width="0.3"/>
</g>
</svg>
