<svg width="13" height="13" viewBox="0 0 13 13" fill="none" xmlns="http://www.w3.org/2000/svg">
<path fill-rule="evenodd" clip-rule="evenodd" d="M12.6065 9.47966C13.0972 9.88123 13.1348 10.5894 12.6865 11.0377L11.1872 12.5371C9.84952 13.8748 5.56139 12.1163 3.22247 9.77754C0.883383 7.43846 -0.874831 3.15043 0.463034 1.81252L1.96246 0.313129C2.41012 -0.134646 3.11918 -0.0971111 3.52034 0.393191L5.50909 2.82408C5.88865 3.28806 5.85489 3.99077 5.43144 4.41425L4.48415 5.36148C4.36464 5.48109 4.33194 5.7289 4.41605 5.86907C4.44171 5.91797 4.46109 5.95463 4.49264 6.0099C4.54771 6.10646 4.616 6.21671 4.6978 6.33796C4.93422 6.68849 5.23006 7.05312 5.58848 7.41147C5.94682 7.76993 6.31181 8.06596 6.66311 8.30297C6.78465 8.38487 6.89519 8.45335 6.99212 8.50863C7.04759 8.54036 7.08434 8.55975 7.09986 8.56737C7.27194 8.66615 7.52031 8.63383 7.63839 8.51586L8.58569 7.56853C9.00895 7.14525 9.71211 7.11159 10.1757 7.49088L12.6065 9.47966ZM3.8533 4.73052L4.80059 3.78319C4.89946 3.68441 4.90843 3.49872 4.81854 3.38895L2.82979 0.958059C2.76208 0.875295 2.66687 0.870184 2.59328 0.94388L1.09385 2.44327C0.25478 3.28237 1.82933 7.12252 3.85329 9.14643C5.87705 11.1704 9.71737 12.7451 10.5562 11.906L12.0555 10.4065C12.1296 10.3325 12.1246 10.2381 12.0413 10.17L9.61062 8.18114C9.50104 8.09153 9.31487 8.10041 9.21629 8.19909L8.269 9.14642C7.8687 9.54663 7.18666 9.63894 6.69386 9.36162C6.57946 9.30452 6.39678 9.19928 6.16402 9.04233C5.76721 8.77465 5.35802 8.44264 4.95745 8.04203C4.55686 7.64152 4.22525 7.23273 3.95795 6.83657C3.80237 6.60593 3.69781 6.42458 3.64053 6.31037C3.35666 5.81755 3.45127 5.13256 3.8533 4.73052Z" fill="#D2D2D3"/>
</svg>
