<svg width="34" height="48" viewBox="0 0 34 48" fill="none" xmlns="http://www.w3.org/2000/svg">
<path id="Vector" d="M32.1162 10.0938C29.3305 4.51062 24.0165 1.04699 17.877 0.736816H16.123C9.98352 0.99537 4.6697 4.51053 1.88377 10.0938C-1.00562 15.8837 -0.541025 22.4491 3.07028 27.7221L16.1229 46.798C16.3291 47.0565 16.6389 47.2631 16.9484 47.2631C17.2579 47.2631 17.6192 47.1081 17.774 46.798L30.9298 27.7221C34.5411 22.449 35.0056 15.8837 32.1162 10.0938ZM29.2272 26.5331L17 44.4199L4.77288 26.5331C1.57431 21.8807 1.21299 16.0905 3.74115 11.0243C6.16557 6.11292 10.8091 3.06295 16.2263 2.80438H17H17.7737C23.1909 3.06293 27.834 6.11292 30.2588 11.0243C32.7866 16.0904 32.4261 21.9322 29.2272 26.5331ZM17 5.90642C10.4478 5.90642 5.13402 11.2311 5.13402 17.7965C5.13402 24.362 10.4479 29.6866 17 29.6866C23.5521 29.6866 28.866 24.3619 28.866 17.7965C28.866 11.231 23.5521 5.90642 17 5.90642ZM17 27.6187C11.5828 27.6187 7.19767 23.2244 7.19767 17.7965C7.19767 12.3683 11.5831 7.97426 17 7.97426C22.4172 7.97426 26.8024 12.3686 26.8024 17.7965C26.8024 23.2247 22.4173 27.6187 17 27.6187Z" fill="black"/>
</svg>
