<svg width="13" height="18" viewBox="0 0 13 18" fill="black" xmlns="http://www.w3.org/2000/svg">
<path id="Subtract" fill-rule="evenodd" clip-rule="evenodd" d="M6.83532 0C9.1828 0.118597 11.2146 1.44293 12.2797 3.57767C13.3845 5.79147 13.2069 8.30173 11.8261 10.3179L6.79593 17.6116C6.73676 17.7302 6.59861 17.7895 6.48028 17.7895C6.36195 17.7895 6.24348 17.7105 6.16463 17.6116L1.17393 10.3179C-0.206863 8.30177 -0.384503 5.79144 0.720264 3.57767C1.78547 1.44289 3.81723 0.0988588 6.16467 0H6.83532ZM6.49931 10.4242C8.61099 10.4242 10.3228 8.71231 10.3228 6.60063C10.3228 4.48895 8.61099 2.7771 6.49931 2.7771C4.38763 2.7771 2.67578 4.48895 2.67578 6.60063C2.67578 8.71231 4.38763 10.4242 6.49931 10.4242Z"/>
</svg>
