<svg width="18" height="18" viewBox="0 0 18 18" fill="none" xmlns="http://www.w3.org/2000/svg">
<path d="M17.7445 16.2478L14.2934 12.7967C15.9435 10.6354 16.3767 7.78172 15.4427 5.22789C14.5086 2.6743 12.3362 0.773916 9.68105 0.187564C7.02597 -0.398857 4.25503 0.409867 2.33257 2.33261C0.410097 4.25522 -0.398883 7.02613 0.187534 9.68113C0.773952 12.3362 2.67423 14.5086 5.22784 15.4428C7.78142 16.3769 10.6353 15.9436 12.7966 14.2935L16.2477 17.7446C16.521 17.9788 16.8942 18.0584 17.2393 17.9565C17.5844 17.8543 17.8545 17.5843 17.9565 17.2393C18.0584 16.8943 17.9788 16.5209 17.7446 16.2477L17.7445 16.2478ZM7.97008 13.8108C6.42125 13.8108 4.93582 13.1954 3.8406 12.1003C2.74535 11.005 2.1301 9.51964 2.1301 7.97079C2.1301 6.42181 2.74548 4.93651 3.8406 3.84129C4.93585 2.74603 6.42125 2.13078 7.97008 2.13078C9.51906 2.13078 11.0043 2.74617 12.0996 3.84129C13.1948 4.93655 13.8101 6.42195 13.8101 7.97079C13.8101 9.51977 13.1947 11.0051 12.0996 12.1003C11.0043 13.1956 9.51902 13.8108 7.97008 13.8108Z" fill="black"/>
</svg>
