<svg width="22" height="24" viewBox="0 0 22 24" fill="none" xmlns="http://www.w3.org/2000/svg">
<path id="Vector" d="M0.95003 12.0226C0.95003 14.1806 2.70578 15.9364 4.86382 15.9364C6.1233 15.9364 7.24225 15.3357 7.95841 14.4091L13.5442 17.6343C13.3388 18.1093 13.2224 18.6316 13.2224 19.1814C13.2224 21.3395 14.9782 23.0952 17.1362 23.0952C19.2942 23.0952 21.05 21.3395 21.05 19.1814C21.05 17.0234 19.2942 15.2676 17.1362 15.2676C15.825 15.2676 14.6641 15.9173 13.9538 16.9096L8.39447 13.7C8.63743 13.1912 8.77728 12.6234 8.77728 12.0226C8.77728 11.4216 8.63776 10.8547 8.39498 10.3461L13.9544 7.13641C14.6649 8.12802 15.8252 8.77758 17.136 8.77758C19.2941 8.77758 21.0498 7.02182 21.0498 4.86379C21.0498 2.70575 19.2941 0.95 17.136 0.95C14.978 0.95 13.2222 2.70575 13.2222 4.86379C13.2222 5.41412 13.3387 5.93691 13.5449 6.41195L7.95908 9.63708C7.24293 8.71006 6.12379 8.10887 4.86379 8.10887C2.70575 8.10887 0.95003 9.86453 0.95003 12.0226ZM17.1363 16.1C18.8354 16.1 20.2179 17.4824 20.2179 19.1816C20.2179 20.8807 18.8356 22.2632 17.1363 22.2632C15.4372 22.2632 14.0547 20.8809 14.0547 19.1816C14.0547 17.4825 15.4371 16.1 17.1363 16.1ZM17.1363 1.78225C18.8354 1.78225 20.2179 3.16462 20.2179 4.86388C20.2179 6.56296 18.8356 7.9455 17.1363 7.9455C15.4372 7.9455 14.0547 6.56313 14.0547 4.86388C14.0547 3.16479 15.4371 1.78225 17.1363 1.78225ZM4.86377 8.94134C6.56286 8.94134 7.9454 10.3237 7.9454 12.023C7.9454 13.722 6.56303 15.1046 4.86377 15.1046C3.16469 15.1046 1.78215 13.7222 1.78215 12.023C1.78215 10.3239 3.16452 8.94134 4.86377 8.94134Z" fill="#356A41" stroke="#356A41" stroke-width="0.1"/>
</svg>
