<svg width="27" height="24" viewBox="0 0 27 24" fill="none" xmlns="http://www.w3.org/2000/svg">
<g id="&#208;&#160;&#208;&#181;&#209;&#129;&#209;&#131;&#209;&#128;&#209;&#129; 2 1" clip-path="url(#clip0_705_42893)">
<g id="&#208;&#161;&#208;&#187;&#208;&#190;&#208;&#185; 2">
<g id="&#208;&#161;&#208;&#187;&#208;&#190;&#208;&#185; 1">
<g id="MO4Kl7.tif">
<path id="Vector" d="M0 8.58708V7.51874C0.0102234 7.50855 0.0193885 7.49731 0.0273497 7.4852C0.618181 6.42259 1.21318 5.36246 1.81236 4.30479C2.56273 2.98212 3.29622 1.64906 4.03525 0.319562C4.15163 0.111828 4.3038 -5.20335e-05 4.55897 0.000244729C10.4987 0.00598215 16.4384 0.00598215 22.3782 0.000244729C22.6313 0.000244729 22.7884 0.105596 22.9063 0.314517C23.7966 1.89122 24.659 3.48424 25.5653 5.05174C25.979 5.76754 26.3552 6.50588 26.7847 7.21188C26.9971 7.56088 27.0294 7.91966 26.9796 8.29121C26.7923 9.69757 26.0634 10.7229 24.8304 11.374C24.7201 11.4333 24.6796 11.4906 24.6796 11.6182C24.6837 15.4937 24.6849 19.3691 24.6831 23.2442C24.6843 23.3136 24.6809 23.383 24.6729 23.4519C24.6375 23.7167 24.4614 23.8716 24.2537 24.0004H2.70791C2.39776 23.8463 2.26188 23.6024 2.26246 23.2421C2.26828 19.3603 2.27022 15.4783 2.26828 11.5963C2.26828 11.4776 2.23308 11.4256 2.13037 11.3746C1.34217 10.982 0.750954 10.3837 0.349145 9.58747C0.187957 9.26904 0.095724 8.92806 0 8.58708ZM7.05448 10.0451C6.9672 10.1581 6.89068 10.2653 6.80543 10.365C5.99308 11.3146 4.97241 11.7972 3.73295 11.7675C3.61657 11.7645 3.58398 11.8007 3.59649 11.9076C3.59853 11.9422 3.59853 11.9768 3.59649 12.0114C3.59649 14.0059 3.59649 16.0003 3.59649 17.9948C3.59649 19.5041 3.59649 21.0135 3.59649 22.5231C3.59649 22.6358 3.62268 22.6765 3.74197 22.6756C4.43095 22.6699 5.11954 22.6699 5.80774 22.6756C5.91656 22.6756 5.94624 22.6459 5.94537 22.5346C5.94013 21.9655 5.94333 21.3963 5.94333 20.8271C5.94333 19.0058 5.93955 17.1846 5.94333 15.3634C5.94653 14.3016 6.63405 13.4021 7.63727 13.1261C7.8375 13.0683 8.04485 13.0402 8.25293 13.0427C8.98468 13.059 9.71817 12.9976 10.4479 13.0724C11.5422 13.1848 12.4264 14.1725 12.4293 15.2939C12.4374 17.6597 12.4328 20.0252 12.4334 22.391C12.4334 22.6688 12.4334 22.6679 12.6978 22.6679C16.1868 22.6679 19.6755 22.6687 23.1641 22.6703C23.3095 22.6703 23.3503 22.6406 23.3497 22.4854C23.3439 20.4971 23.3462 18.5064 23.3462 16.5169C23.3462 14.9826 23.3439 13.4484 23.3485 11.9141C23.3485 11.7814 23.304 11.761 23.1891 11.7657C23.0054 11.774 22.8214 11.7671 22.6389 11.7452C21.6994 11.6307 20.9176 11.206 20.272 10.5107C20.1396 10.3683 20.0241 10.2101 19.8952 10.0525C19.8646 10.0926 19.837 10.1267 19.8123 10.162C19.4203 10.7074 18.8978 11.1412 18.2946 11.4221C17.4413 11.8197 16.5539 11.8883 15.6586 11.6351C14.8023 11.3933 14.1046 10.8879 13.5762 10.1513C13.5207 10.0739 13.4942 10.0394 13.4177 10.1421C12.6391 11.1844 11.6158 11.747 10.3202 11.7713C9.59461 11.7888 8.87945 11.593 8.25991 11.2075C7.78013 10.9134 7.38472 10.5252 7.05448 10.0451ZM25.0666 6.91779C25.011 6.816 24.9703 6.73973 24.9264 6.66257C24.5566 6.02453 24.2057 5.37462 23.8379 4.7351C23.2121 3.64746 22.6092 2.54617 22.0026 1.44696C21.9444 1.33924 21.8783 1.30986 21.7634 1.30986C18.43 1.31243 15.0965 1.31243 11.7627 1.30986C9.56484 1.30986 7.36678 1.30986 5.16852 1.30986C5.07512 1.30986 5.00995 1.3247 4.95641 1.42026C4.28111 2.6266 3.62762 3.846 2.92904 5.03898C2.69278 5.44199 2.47282 5.85508 2.24559 6.26402C2.12746 6.4768 2.0105 6.69047 1.88509 6.9169L25.0666 6.91779ZM11.1008 18.913C11.1008 17.7358 11.1008 16.5586 11.1008 15.3815C11.1008 14.8351 10.706 14.4108 10.1756 14.4039C9.52091 14.3956 8.86616 14.3956 8.21132 14.4039C7.68993 14.4114 7.28725 14.8387 7.28696 15.3717C7.28579 17.7458 7.28473 20.1199 7.28376 22.494C7.28376 22.6266 7.31285 22.6706 7.45106 22.67C8.61487 22.6644 9.77869 22.6644 10.9425 22.67C11.0714 22.67 11.1043 22.6347 11.1037 22.505C11.0996 21.3078 11.1014 20.1101 11.1014 18.913H11.1008ZM23.1329 8.2826C22.3369 8.2826 21.5411 8.28468 20.7454 8.28023C20.629 8.28023 20.613 8.30634 20.6394 8.4209C20.7594 8.9341 21.0297 9.39793 21.4142 9.75078C21.7988 10.1036 22.2795 10.3288 22.7925 10.3964C24.0765 10.5706 25.309 9.70885 25.6098 8.43039C25.6375 8.31169 25.6145 8.27904 25.4911 8.27964C24.705 8.28527 23.9188 8.2826 23.1329 8.2826ZM3.82896 8.27993H1.48707C1.31075 8.27993 1.3125 8.27993 1.35788 8.46304C1.67793 9.73378 2.89151 10.5549 4.13708 10.3967C5.17114 10.2662 6.08095 9.45927 6.31371 8.42831C6.33961 8.31465 6.32273 8.27726 6.19908 8.27786C5.40972 8.28349 4.61949 8.27993 3.82896 8.27993ZM10.2931 8.27993H7.93637C7.7519 8.27993 7.7519 8.27993 7.79846 8.46957C8.06235 9.53791 9.03647 10.3534 10.1214 10.4154C11.3434 10.4852 12.4595 9.64386 12.7528 8.43484C12.7819 8.31376 12.7671 8.27548 12.633 8.27667C11.8538 8.28409 11.0734 8.27993 10.2931 8.27993ZM16.7101 8.27993C15.9245 8.27993 15.1389 8.2826 14.3519 8.27726C14.2192 8.27726 14.2038 8.31198 14.2332 8.43692C14.4863 9.51002 15.4497 10.343 16.5317 10.4145C17.7491 10.4953 18.885 9.63169 19.1681 8.41793C19.1972 8.29447 19.1637 8.27667 19.0549 8.27726C18.2719 8.28231 17.4913 8.27993 16.7101 8.27993Z" fill="black"/>
<path id="Vector_2" d="M17.3347 19.6487C16.7281 19.6487 16.1215 19.6576 15.5151 19.6466C14.7246 19.6324 14.0813 19.1798 13.8066 18.4625C13.7263 18.2546 13.685 18.0332 13.685 17.8097C13.685 16.8247 13.6818 15.8398 13.685 14.8548C13.6882 13.971 14.3851 13.1781 15.2341 13.0653C15.5012 13.03 15.7665 13.0428 16.0324 13.0419C17.095 13.038 18.1582 13.0229 19.2201 13.046C20.2222 13.0674 20.9609 13.8731 20.9868 14.8046C21.0159 15.8282 21.0028 16.8523 20.99 17.8776C20.9787 18.8041 20.1887 19.614 19.2702 19.6407C18.6251 19.6597 17.9795 19.6446 17.3342 19.6446L17.3347 19.6487ZM17.3347 18.2952C17.9266 18.2952 18.5182 18.2952 19.1096 18.2952C19.4462 18.2952 19.6563 18.0836 19.6569 17.7423C19.6584 16.8221 19.6584 15.9022 19.6569 14.9824C19.6569 14.5951 19.4634 14.4025 19.0799 14.4025C17.9161 14.4025 16.7523 14.4025 15.5884 14.4025C15.2157 14.4025 15.0188 14.5987 15.0182 14.9753C15.017 15.9004 15.017 16.8256 15.0182 17.7509C15.0182 18.0827 15.2323 18.2958 15.5588 18.2958C16.1506 18.2958 16.7424 18.2956 17.3342 18.2952H17.3347Z" fill="black"/>
</g>
</g>
</g>
</g>
<defs>
<clipPath id="clip0_705_42893">
<rect width="27" height="24" fill="white"/>
</clipPath>
</defs>
</svg>
