<svg width="43" height="46" viewBox="0 0 43 46" fill="none" xmlns="http://www.w3.org/2000/svg">
<path id="Vector" d="M37.6342 16.1687C37.3909 7.4877 30.2498 0.5 21.5012 0.5C12.7508 0.5 5.60998 7.48863 5.36562 16.1696C2.32272 16.6996 0 19.3507 0 22.5411V25.0141C0 28.5833 2.9074 31.4873 6.48061 31.4873C7.10272 31.4873 7.60917 30.9838 7.60917 30.3621C7.60917 30.3621 7.59061 17.0003 7.56642 16.9096C7.59061 16.8189 7.60917 16.7249 7.60917 16.6269C7.60917 8.97584 13.8399 2.74895 21.5013 2.74895C29.1612 2.74895 35.3935 8.97618 35.3935 16.6269C35.3935 16.7252 35.4091 16.8186 35.4326 16.9096C35.4088 16.9993 35.3929 34.7039 35.3929 34.7039C35.3929 37.3864 33.2063 39.5704 30.5207 39.5704H26.1723C25.6618 37.4626 23.765 35.8904 21.5006 35.8904C18.8465 35.8904 16.6878 38.0456 16.6878 40.6957C16.6878 43.3457 18.8464 45.5 21.5006 45.5C23.7653 45.5 25.6618 43.9281 26.1723 41.82H30.5207C34.4482 41.82 37.645 38.6272 37.645 34.7039V31.3827C40.6826 30.8477 43 28.2005 43 25.0144V22.5414C43 19.3507 40.6773 16.6995 37.6334 16.1689L37.6342 16.1687ZM5.35374 29.083C3.56727 28.5898 2.25348 26.953 2.25348 25.0136V22.5406C2.25348 20.6002 3.56761 18.9625 5.35374 18.4696V29.083ZM21.5012 43.25C20.0906 43.25 18.9415 42.1041 18.9415 40.6951C18.9415 39.2862 20.0902 38.1394 21.5012 38.1394C22.9118 38.1394 24.0569 39.2862 24.0569 40.6951C24.0569 42.1041 22.9118 43.25 21.5012 43.25ZM40.7464 25.0133C40.7464 26.9526 39.4323 28.5894 37.6462 29.0827V18.4694C39.4326 18.9626 40.7464 20.6004 40.7464 22.5404V25.0133Z" fill="black"/>
</svg>
