<svg width="14" height="18" viewBox="0 0 14 18" fill="none" xmlns="http://www.w3.org/2000/svg">
<path d="M14 16.4592C14 17.1869 13.4098 17.7836 12.6783 17.7836H1.32173C0.5933 17.7836 0 17.1893 0 16.4592C0 12.5934 3.1342 9.45934 6.99987 9.45934C10.8655 9.45934 13.9997 12.5935 13.9997 16.4592H14ZM7.00013 11.3511C4.37086 11.3511 2.20557 13.3376 1.92341 15.8917H12.0766C11.7944 13.3376 9.62914 11.3511 6.99987 11.3511H7.00013ZM7.00013 8.70253C4.59707 8.70253 2.649 6.75446 2.649 4.3514C2.649 1.94834 4.59707 0 7.00013 0C9.4032 0 11.3513 1.94834 11.3513 4.3514C11.3513 6.75446 9.4032 8.70253 7.00013 8.70253ZM7.00013 6.81068C8.35835 6.81068 9.45941 5.70955 9.45941 4.3514C9.45941 2.99298 8.35828 1.89186 7.00013 1.89186C5.64199 1.89186 4.54086 2.99298 4.54086 4.3514C4.54086 5.70962 5.64199 6.81068 7.00013 6.81068Z" fill="black"/>
</svg>
