<svg width="30" height="17" viewBox="0 0 30 17" fill="none" xmlns="http://www.w3.org/2000/svg">
<g id="&#208;&#160;&#208;&#181;&#209;&#129;&#209;&#131;&#209;&#128;&#209;&#129; 1 1" clip-path="url(#clip0_704_36547)">
<g id="&#208;&#161;&#208;&#187;&#208;&#190;&#208;&#185; 2">
<g id="&#208;&#161;&#208;&#187;&#208;&#190;&#208;&#185; 1">
<g id="ouWiNx.tif">
<path id="Vector" d="M9.9467 1.13397C10.3586 0.452775 10.918 0.243266 11.5324 0.162505C13.0829 -0.0475688 14.6544 -0.0522913 16.2063 0.14846C17.2127 0.283061 17.5988 0.726659 17.5953 1.75665C17.5895 3.06637 17.5602 4.37493 17.5193 5.68348C17.4894 6.24876 17.5188 6.81562 17.607 7.37477C17.7662 8.25963 18.3443 8.45977 18.9984 7.85465C20.2236 6.72167 20.9878 5.26095 21.7625 3.8178C22.1674 3.06403 22.4939 2.26696 22.8298 1.47691C23.0123 1.04619 23.3049 0.839021 23.7659 0.833169C25.4651 0.813271 27.1596 0.775817 28.8635 0.768795C29.9412 0.768795 30.2338 1.20186 29.8242 2.20142C29.2028 3.72299 28.1859 4.98356 27.2134 6.28275C26.6283 7.06577 26.028 7.83476 25.4803 8.64119C24.9327 9.44763 24.9982 9.91229 25.6699 10.6204C26.7851 11.7967 28.0525 12.8267 29.039 14.1235C29.4029 14.6023 29.8008 15.0599 29.9401 15.6791C30.0945 16.3567 29.823 16.8495 29.1338 16.8823C27.4756 16.963 25.8127 17.0298 24.1556 16.9864C23.2978 16.963 22.577 16.4422 21.9813 15.8219C21.3599 15.1734 20.7877 14.4782 20.1558 13.8403C19.7532 13.433 19.3366 12.8665 18.6825 13.062C18.0283 13.2574 17.8305 13.9058 17.6749 14.532C17.5649 14.9768 17.6082 15.4262 17.5579 15.871C17.49 16.5171 17.2068 16.887 16.6451 16.8975C15.0887 16.9244 13.5194 17.093 12.0016 16.5581C9.9467 15.8359 8.18433 14.6737 6.78708 13.0163C3.96682 9.6782 1.91073 5.87661 0.156558 1.8971C-0.169936 1.15738 -0.000252778 0.856578 0.802525 0.828487C2.22318 0.779329 3.65437 0.750068 5.07971 0.766454C5.73387 0.774647 6.21718 1.06609 6.50037 1.75665C7.22159 3.48428 8.07732 5.1526 9.05966 6.74624C9.35793 7.25378 9.75318 7.69763 10.2229 8.05246C10.7811 8.4586 11.2831 8.32517 11.4867 7.66621C11.894 6.34127 11.8928 4.97419 11.7957 3.60478C11.7793 3.37069 11.743 3.1366 11.7126 2.90251C11.585 1.91115 11.1169 1.22176 9.9467 1.13397Z" fill="black"/>
</g>
</g>
</g>
</g>
<defs>
<clipPath id="clip0_704_36547">
<rect width="30" height="17" fill="white"/>
</clipPath>
</defs>
</svg>
