<svg width="25" height="17" viewBox="0 0 25 17" fill="none" xmlns="http://www.w3.org/2000/svg">
<g id="bxl-youtube">
<path id="Shape" fill-rule="evenodd" clip-rule="evenodd" d="M22.3208 0.530197C23.3796 0.810457 24.2135 1.63182 24.4977 2.67279C25.0252 4.57273 25.0005 8.53397 25.0005 8.53397C25.0005 8.53397 24.9968 12.4734 24.4853 14.3721C24.1975 15.4119 23.3598 16.232 22.3022 16.5111C20.3674 17.0085 12.6271 17 12.6271 17C12.6271 17 4.90776 16.9915 2.95322 16.4698C1.89317 16.1895 1.05921 15.3682 0.77505 14.3284C0.268499 12.4479 0.273439 8.48787 0.273439 8.48787C0.273439 8.48787 0.278383 4.54725 0.78864 2.64731C1.07527 1.60756 1.9327 0.767993 2.97052 0.49016C4.90653 -0.00848349 12.6456 9.21562e-06 12.6456 9.21562e-06C12.6456 9.21562e-06 20.386 0.00850196 22.3208 0.530197ZM10.1741 4.85898L10.168 12.1384L16.6073 8.50478L10.1741 4.85898Z" fill="black"/>
</g>
</svg>
