<svg width="22" height="21" viewBox="0 0 22 21" fill="none" xmlns="http://www.w3.org/2000/svg">
<g id="Group">
<path id="Vector" d="M6.54469 20.2698C3.94237 20.1192 1.75844 18.8138 0.612078 16.1195C-0.500809 13.5004 -0.0991654 10.9818 1.84211 8.89827C4.11809 6.46331 6.52795 4.16223 8.87924 1.80257C9.34782 1.32562 9.82478 0.848668 10.3017 0.380084C10.787 -0.0968678 11.3728 -0.121971 11.7828 0.28804C12.2012 0.706419 12.1593 1.26705 11.6656 1.7691C8.95455 4.48019 6.24345 7.19129 3.53236 9.91075C1.95089 11.5006 1.55761 13.6343 2.46131 15.5505C3.84196 18.4624 7.64084 19.249 10.0591 17.1152C10.6364 16.6048 11.1552 16.0442 11.6991 15.5003C14.0002 13.2076 16.3013 10.9065 18.594 8.60541C19.7989 7.39211 19.8324 5.60982 18.686 4.43836C17.6568 3.36731 15.9833 3.25016 14.8118 4.17896C14.5274 4.40489 14.2763 4.66428 14.0253 4.92368C11.6991 7.24986 9.37293 9.57605 7.03837 11.9022C6.78735 12.1533 6.56142 12.421 6.58652 12.8059C6.61163 13.1992 6.80408 13.4921 7.17226 13.6511C7.5739 13.8268 7.94207 13.7431 8.25167 13.4419C8.77046 12.9398 9.28088 12.421 9.79131 11.9022C10.9126 10.781 12.0422 9.65135 13.1634 8.5301C13.3894 8.30418 13.6237 8.12009 13.9584 8.12009C14.36 8.11172 14.6612 8.28744 14.8453 8.63888C15.0294 8.99032 15.0043 9.34175 14.7616 9.65972C14.6361 9.82707 14.4771 9.96932 14.3349 10.1116C12.7702 11.6763 11.2138 13.2578 9.62395 14.8141C8.05085 16.3538 5.48201 15.7513 4.79586 13.6929C4.41932 12.5633 4.67872 11.5424 5.49874 10.6889C6.11794 10.0446 6.75388 9.42543 7.38981 8.78949C9.28088 6.89842 11.172 4.99898 13.0714 3.10791C14.8955 1.30052 17.5146 1.08296 19.5061 2.55565C21.782 4.23753 22.1335 7.52599 20.2675 9.65135C19.8993 10.0697 19.4977 10.4546 19.096 10.8479C16.6695 13.2745 14.2429 15.7011 11.8246 18.1277C10.444 19.5251 8.80393 20.2447 6.54469 20.2698Z" fill="black"/>
</g>
</svg>
