<svg width="76" height="88" viewBox="0 0 76 88" fill="none" xmlns="http://www.w3.org/2000/svg">
<path id="XMLID_1_" d="M2.67461 78.9697C1.31673 83.4389 0 84.0129 0 84.0129C0 84.0129 4.40282 76.0995 2.67461 62.3639C2.09854 57.9357 2.7569 54.6555 3.99134 52.2364C3.99134 52.2774 3.95019 52.2774 3.95019 52.3184C3.82675 52.4824 3.7033 52.7285 3.62101 52.8925C3.49756 53.0975 3.41527 53.3025 3.29182 53.5075C3.12723 53.9175 2.92149 54.3685 2.79805 54.7785C2.67461 55.2296 2.51002 55.6396 2.42772 56.0496C2.34543 56.4596 2.26313 56.8696 2.18083 57.2797C2.13969 57.6897 2.09854 58.0587 2.05739 58.3867C2.05739 58.5507 2.01624 58.7147 2.01624 58.8787C2.01624 59.0427 2.01624 59.2068 2.01624 59.3298C2.01624 59.6168 2.01624 59.8628 2.01624 60.0678C2.01624 60.4778 2.01624 60.7238 2.01624 60.7238C2.01624 60.7238 2.01624 60.4778 1.97509 60.0678C1.97509 59.8628 1.97509 59.6168 1.93395 59.3298C1.93395 59.2068 1.93395 59.0427 1.93395 58.8787C1.93395 58.7147 1.93395 58.5507 1.97509 58.3867C2.01624 58.0177 2.01624 57.6487 2.05739 57.2387C2.09854 56.8286 2.18083 56.4186 2.26313 55.9676C2.34543 55.5166 2.46887 55.1066 2.59231 54.6555C2.71576 54.2045 2.92149 53.7945 3.04494 53.3435C3.12723 53.1385 3.25068 52.9335 3.33297 52.6875C3.45642 52.4824 3.53871 52.2774 3.66215 52.0724C3.7856 51.8674 3.90904 51.6624 4.03249 51.4984C4.15593 51.2934 4.27937 51.1294 4.40282 50.9654C4.6497 50.5964 4.93774 50.2683 5.22577 49.9813C5.34922 49.8173 5.51381 49.6943 5.63725 49.5713C5.76069 49.4483 5.92528 49.2843 6.04873 49.2023C6.17217 49.0793 6.33676 48.9563 6.46021 48.8743C6.58365 48.7923 6.70709 48.6693 6.83054 48.5873C9.79318 46.0041 13.2084 45.5531 13.2084 45.5531C13.908 44.3641 14.6898 43.257 15.4716 42.191C18.64 37.9678 22.3021 37.2707 26.5403 35.5487C30.7786 33.8266 34.1938 29.3574 34.5642 28.9473C34.9345 28.5373 35.2225 28.1273 35.7574 26.9383C36.2512 25.7902 35.3048 25.3392 35.3048 25.3392C34.4819 25.6262 34.1527 26.4462 34.1527 26.4462C33.9881 25.5852 34.9345 24.6832 35.0579 24.5601C34.2761 25.3802 33.124 25.2162 33.124 25.2162C34.523 24.9702 35.5106 22.51 35.5106 22.51C34.5642 24.0271 33.2063 23.6991 33.2063 23.6991C34.2761 23.6581 34.8933 22.059 35.1402 21.157C35.3871 20.2549 36.9919 18.9839 36.9919 18.9839C34.8522 20.501 33.9058 19.7219 33.9058 19.7219C35.2225 19.7629 36.8684 17.7538 36.8684 17.7538C33.9881 19.5169 33.2063 18.2458 33.2063 18.2458C35.5517 18.6969 36.3747 16.7698 36.3747 16.7698C34.8522 16.1958 33.0005 16.9748 33.0005 16.9748C33.5355 16.1138 34.6465 15.9087 35.3871 15.8677C34.1527 15.6627 34.1527 14.6787 34.1527 14.6787C34.811 15.4987 35.8809 15.1707 35.8809 15.1707C35.8809 15.1707 36.0455 14.0227 37.033 13.6536C38.0617 13.2846 40.2014 12.1366 38.7201 12.3006C37.2388 12.4646 37.1565 13.5716 37.1565 13.5716C37.1565 11.9726 38.2263 11.6445 38.8435 11.6035C37.1153 11.6035 36.6215 10.7425 36.6215 10.7425C39.0081 11.9316 42.588 10.0865 41.1067 9.92246C41.0655 9.92246 41.0244 9.92246 40.9421 9.92246C39.543 9.79946 38.3909 10.4145 38.3909 10.4145C38.9258 9.71745 40.2426 9.26643 40.6952 9.18443C39.5019 9.47144 39.1727 8.77441 39.1727 8.77441C40.2014 9.18443 41.5593 8.5284 42.0531 7.70836C42.5468 6.88832 44.1927 5.98628 44.1927 5.98628C44.1927 5.98628 43.7813 6.10928 42.2177 6.92932C40.654 7.74936 40.078 7.09333 40.078 7.09333C40.7775 7.21634 42.6291 5.65826 43.4109 4.71522C44.1516 3.77218 45.5506 3.89518 45.5506 3.89518C44.3573 2.66512 41.3535 5.04323 41.3535 5.04323C41.3535 5.04323 41.765 3.69017 44.0693 3.03414C46.3736 2.37811 47.1142 3.81318 47.1142 3.81318C47.1142 3.81318 47.2788 2.1731 45.3449 2.46011C43.4109 2.74713 43.2052 1.51707 43.2052 1.51707C43.2052 1.51707 43.8636 2.33711 45.3449 1.64008C46.8262 0.943044 48.1429 2.78813 48.1429 2.78813C47.896 1.27106 46.5382 0.86104 46.5382 0.86104C48.3487 0.697033 49.1716 3.19815 49.1716 3.19815C49.3362 2.99314 50.2415 2.46011 50.2415 2.46011C48.8836 2.0911 49.007 1.23006 49.007 1.23006C49.007 1.23006 49.5831 2.1321 51.0644 1.80408C52.5457 1.43507 53.4099 2.70613 53.4099 2.70613C53.4921 1.68108 52.5046 1.35306 52.5046 1.35306C54.0682 1.23006 54.6854 3.07514 54.6854 3.07514C54.9735 0.533025 57.0309 0 57.0309 0C56.6605 0.697033 57.0309 2.95214 57.0309 2.95214C57.4012 2.87013 58.0596 3.23915 58.0596 3.23915C58.1007 2.99314 58.8002 2.25511 59.4997 1.88609C60.1992 1.51707 60.5284 0.697032 60.5284 0.697032C61.4337 2.95214 59.294 4.87923 59.294 4.87923C59.294 4.87923 59.2528 5.94528 60.3227 7.46235C61.3925 8.97942 60.7753 9.71745 60.2404 11.2345C59.7055 12.7516 61.2691 18.3689 61.7217 18.8199C62.1743 19.2709 60.6107 20.542 60.3638 21.731C60.1169 22.9201 59.294 22.5511 59.294 22.5511C56.8251 22.51 57.8127 22.51 56.5371 21.731C55.3027 20.952 56.7017 19.8449 56.0022 19.2709C55.3027 18.6969 54.85 17.6308 53.9036 16.6058C52.9572 15.5807 52.7103 17.0158 53.2864 22.141C53.9036 27.2253 54.2328 27.9633 55.8376 28.9884C57.4423 30.0134 57.7304 33.1705 57.7304 33.1705C57.7304 33.1705 60.693 31.9405 61.5983 31.5305C62.5035 31.1615 63.4499 30.9974 64.6021 31.0384C65.7542 31.0794 65.8365 32.2685 66.6183 32.7605C67.4001 33.2525 70.5273 35.0156 71.8852 35.4667C73.2431 35.9177 72.3378 36.4097 73.0374 37.9268C73.7369 39.4438 74.2306 38.8288 74.6833 39.6488C75.1359 40.4689 76 42.15 76 42.15C76 42.15 73.2842 42.396 72.5847 41.986C71.9264 41.5349 70.3628 41.2479 71.2269 40.2639C72.0498 39.2798 71.556 38.3778 70.3216 38.0908C69.0872 37.8038 69.2518 37.2297 67.8527 36.0817C66.4537 34.9336 63.738 33.6216 61.7629 35.5897C59.7878 37.5578 57.895 39.2388 57.895 39.2388C59.4586 39.8129 63.1207 40.0179 63.1207 40.0179C64.9312 42.806 65.6308 42.314 63.6145 45.7991C61.5983 49.2433 62.7916 51.3754 61.3102 51.2524C59.8289 51.1294 57.8538 52.8515 56.5782 53.4255C55.3027 53.9995 54.4797 55.5576 54.0682 54.8605C53.6567 54.1635 54.274 51.0064 54.562 50.9654C54.8089 50.9244 55.5084 50.5964 56.1256 49.9403C56.7428 49.2843 56.5371 49.7353 57.1955 50.3913C57.8538 51.0474 58.6768 50.4734 58.471 49.7353C58.3064 48.9973 58.1418 49.4483 59.1294 48.7103C60.1581 47.9722 61.6806 44.4461 61.6806 44.1181C61.6806 43.79 61.9274 41.6579 59.8289 42.601C57.7304 43.544 52.8749 44.2411 50.6118 45.4301C48.3487 46.6602 47.9372 45.9631 47.9372 45.9631C40.2014 52.3594 33.5355 52.8105 33.5355 52.8105C36.2512 62.7329 28.5977 67.9402 29.6264 71.4253C30.6551 74.8695 33.8235 77.2476 34.9756 78.5187C36.1689 79.7897 34.7699 79.0517 35.5929 80.0357C36.457 81.0198 38.0617 81.2658 38.4321 82.4138C38.8024 83.5619 40.366 84.2999 39.7488 84.874C39.1316 85.407 35.9632 85.284 35.4694 84.874C35.0168 84.4639 34.4819 83.2749 35.0168 82.6598C35.5106 82.0448 34.8522 81.6758 33.8235 81.4298C32.7948 81.1838 32.8771 82.1678 31.8896 81.0608C30.8609 79.9127 27.7336 73.7214 26.4992 72.2864C25.2236 70.8513 23.2897 70.1953 24.0715 69.2522C24.8944 68.3092 25.5939 64.701 25.9643 62.6099C26.3346 60.5188 24.9356 58.5097 24.9356 59.4528C24.9356 60.3958 23.9069 61.3389 23.9069 61.3389C23.2897 66.7511 20.5328 68.8832 20.5739 70.2773C20.6151 71.6713 19.8332 73.1064 19.7509 74.3775C19.7098 75.6485 21.1088 79.0517 22.2198 80.8148C23.3308 82.5778 22.1787 81.7168 22.5901 82.7829C23.0016 83.8899 24.8121 84.5459 24.8121 84.5459C26.458 87.5391 26.8284 86.555 25.9643 87.4981C25.059 88.4411 22.3433 87.8261 21.9729 87.4981C21.6437 87.1701 20.6973 86.227 20.9854 85.53C21.2734 84.8329 21.15 84.3409 20.4505 83.7669C19.7509 83.1929 19.3395 84.0949 18.928 83.5619C18.5165 83.0289 17.6524 77.2476 16.8295 75.1565C15.9654 73.0654 14.3194 70.6873 15.0189 70.1953C15.6773 69.7032 16.706 68.0222 17.529 65.152C18.3519 62.2819 14.0726 58.9197 14.0726 58.9197C11.0276 54.7785 10.7396 51.3754 11.686 48.4233C9.66973 49.3663 9.17596 51.9494 9.09367 52.7285C9.05252 52.8925 9.05252 53.0565 9.05252 53.2615C9.05252 53.5485 9.05252 53.7945 9.05252 54.1225C9.09367 54.4915 9.17596 54.8196 9.2994 55.1476C9.3817 55.3116 9.50514 55.5166 9.58744 55.7216C9.71088 55.9266 9.79318 56.1316 9.87547 56.3366C10.0401 56.7466 10.2047 57.1567 10.3281 57.5257C10.4515 57.9357 10.5338 58.3047 10.6161 58.6737C10.6984 59.0427 10.7396 59.4118 10.7396 59.7398C10.7807 60.0678 10.7396 60.3548 10.7396 60.6418C10.7396 60.9288 10.6984 61.1338 10.6984 61.3389C10.6984 61.5439 10.6573 61.6669 10.6573 61.7899C10.6573 61.8719 10.6573 61.9539 10.6573 61.9539C10.6573 61.9539 10.6573 61.9129 10.6573 61.7899C10.6573 61.7079 10.6573 61.5439 10.6573 61.3389C10.6573 61.1338 10.6573 60.9288 10.6573 60.6418C10.6573 60.3958 10.6161 60.0678 10.575 59.7398C10.5338 59.4118 10.4927 59.0838 10.4104 58.7147C10.3281 58.3457 10.2047 57.9767 10.0812 57.6077C9.91662 57.2387 9.75203 56.8696 9.54629 56.4596C9.42285 56.2546 9.34055 56.0906 9.21711 55.9266C9.17596 55.8446 9.13481 55.8036 9.09367 55.7216C9.17596 56.5416 9.25826 57.4437 9.42285 58.3047C9.50514 58.7967 9.62859 59.2478 9.71088 59.7398C9.83433 60.1908 9.95777 60.6418 10.0812 61.0928C10.3692 61.9539 10.6984 62.7329 11.0688 63.389C11.1511 63.553 11.2334 63.717 11.3156 63.84C11.3979 63.963 11.4802 64.127 11.5625 64.25C11.7271 64.496 11.8917 64.701 12.0152 64.865C12.3032 65.193 12.4266 65.398 12.4266 65.398C12.4266 65.398 12.262 65.234 11.974 64.906C11.8506 64.742 11.686 64.537 11.4802 64.291C11.3979 64.168 11.3156 64.045 11.1922 63.922C11.1099 63.799 10.9865 63.635 10.9042 63.471C10.5338 62.8559 10.1224 62.0769 9.79318 61.2158C9.62859 60.7648 9.464 60.3138 9.34055 59.8628C9.21711 59.4118 9.05252 58.9197 8.97022 58.4277C8.88793 58.0177 8.80563 57.6487 8.72334 57.2387C8.76448 58.2227 8.88793 59.3298 9.09367 60.4368C9.17596 60.8878 9.25826 61.3389 9.42285 61.7489C9.54629 62.1589 9.71088 62.5689 9.95777 62.8969C10.1635 63.2659 10.3692 63.635 10.575 64.004C10.7396 64.373 10.9042 64.701 10.9865 65.029C11.1922 65.6851 11.1922 66.2591 11.2334 66.6691C11.2334 67.0791 11.2745 67.2841 11.2745 67.2841C11.2745 67.2841 11.2334 67.0381 11.1922 66.6691C11.1511 66.2591 11.1099 65.6851 10.863 65.07C10.7396 64.742 10.575 64.414 10.4104 64.086C10.2047 63.758 9.99892 63.3889 9.75203 63.0609C9.50514 62.6919 9.29941 62.2819 9.13481 61.8719C8.97022 61.4209 8.84678 61.0108 8.72334 60.5598C8.5176 59.6988 8.353 58.7967 8.22956 57.9357C8.22956 58.2637 8.22956 58.6327 8.27071 58.9607C8.31186 59.2888 8.31186 59.6578 8.353 59.9448C8.39415 60.2728 8.4353 60.5598 8.47645 60.8468C8.5176 61.1338 8.59989 61.3799 8.64104 61.5849C8.68219 61.7899 8.76448 61.9949 8.80563 62.1589C8.88793 62.4869 8.92907 62.6509 8.92907 62.6509C8.92907 62.6509 8.84678 62.4869 8.72334 62.1589C8.68219 61.9949 8.59989 61.8309 8.5176 61.5849C8.4353 61.3799 8.35301 61.1338 8.27071 60.8468C8.18841 60.6418 8.14727 60.3958 8.10612 60.1908C8.14727 60.3548 8.14727 60.5188 8.18841 60.6418C8.22956 60.8878 8.27071 61.1338 8.353 61.3799C8.4353 61.8719 8.55874 62.3639 8.68219 62.8559C8.80563 63.3479 8.97022 63.84 9.09367 64.332C9.17596 64.578 9.25826 64.824 9.34055 65.111L9.54629 65.8491C9.62859 66.0951 9.71088 66.3411 9.75203 66.6281L9.91662 67.4071C9.95777 67.6532 10.0401 67.9402 10.0812 68.1862C10.1224 68.4322 10.1635 68.7192 10.1635 68.9652C10.2047 69.2112 10.2458 69.4982 10.2458 69.7442C10.2458 69.9903 10.287 70.2773 10.287 70.5233C10.287 70.7693 10.3281 71.0153 10.3281 71.3023C10.3281 71.5483 10.3281 71.7943 10.3281 72.0404C10.3281 72.2864 10.3281 72.5324 10.3281 72.7784C10.3281 73.0244 10.287 73.2704 10.287 73.5164C10.287 73.7624 10.2458 74.0084 10.2458 74.2135C10.2458 74.4595 10.2047 74.6645 10.1635 74.9105C10.1224 75.3615 10.0812 75.8125 9.99892 76.2225C9.91662 76.6326 9.87547 77.0426 9.79318 77.4526C9.66973 78.2316 9.50514 78.9287 9.34055 79.5437C9.17596 80.1587 9.01137 80.6918 8.88793 81.1428C8.59989 82.0038 8.39415 82.4958 8.39415 82.4958C8.39415 82.4958 8.59989 82.0038 8.84678 81.1018C8.97022 80.6507 9.13481 80.1177 9.25826 79.5027C9.3817 78.8877 9.54629 78.1906 9.66973 77.4116C9.75203 77.0426 9.79318 76.6326 9.83433 76.1815C9.87547 75.7715 9.91662 75.3205 9.95777 74.8695C9.95777 74.6645 9.99892 74.4185 9.99892 74.1725C9.99892 73.9264 9.99892 73.7214 10.0401 73.4754C10.0401 73.2294 10.0401 72.9834 10.0812 72.7784C10.0812 72.5324 10.0812 72.2864 10.0812 72.0404C10.0812 71.7943 10.0812 71.5483 10.0812 71.3023C10.0812 71.0563 10.0401 70.8103 10.0401 70.5643C9.99892 70.3183 9.99892 70.0723 9.95777 69.8262C9.91662 69.5802 9.87547 69.3342 9.83433 69.0472C9.79318 68.8012 9.75203 68.5552 9.71088 68.2682C9.66973 68.0222 9.58744 67.7762 9.54629 67.5301L9.3817 66.7921C9.34055 66.5461 9.21711 66.3001 9.13481 66.0541L8.88793 65.316C8.80563 65.07 8.72334 64.824 8.64104 64.578C8.59989 64.455 8.55874 64.373 8.5176 64.25C9.58744 68.4322 9.79318 72.2864 9.83433 74.0904H9.87547C9.87547 74.0904 9.87547 74.2545 9.87547 74.5005C9.87547 74.6235 9.87547 74.7875 9.83433 74.9925C9.83433 75.1565 9.83433 75.2385 9.83433 75.2385C9.83433 75.3615 9.83433 75.4845 9.79318 75.6485C9.71088 76.5506 9.54629 77.7806 9.2994 78.9697C9.05252 80.1587 8.59989 81.3068 8.14727 82.0858C7.07742 84.0129 6.5425 83.8489 6.6248 83.7669C6.70709 83.6849 6.78939 83.5209 6.91283 83.3979C6.99513 83.2339 7.11857 83.0699 7.20087 82.8649C7.5712 82.0448 7.03627 82.9059 6.5425 83.6849C6.46021 83.8079 6.41906 83.8899 6.33676 84.0129C6.33676 84.0539 5.96643 84.4639 5.88414 84.5869C5.80184 84.6689 5.71955 84.7509 5.6784 84.7919C5.63725 84.8329 5.63725 84.8329 5.6784 84.7919C5.71955 84.7509 6.41906 83.6029 6.5425 82.1268C6.5425 81.9218 6.5425 81.7168 6.5425 81.5118C6.50135 81.5528 6.50135 81.5938 6.46021 81.6348C6.33676 81.7988 6.21332 81.9628 6.04873 82.1268C5.76069 82.4138 5.55495 82.7419 5.34922 83.0699C5.14348 83.3979 4.97888 83.7259 4.85544 84.0949C4.77315 84.2589 4.732 84.4639 4.60855 84.6279C4.48511 84.7919 4.36167 84.956 4.19708 85.038C3.90904 85.243 3.62101 85.407 3.33297 85.53C2.7569 85.776 2.22198 85.776 1.85165 85.694C1.68706 85.653 1.56362 85.571 1.48132 85.53C1.56362 85.571 1.68706 85.612 1.8928 85.653C2.09854 85.694 2.30428 85.694 2.59231 85.653C2.63346 85.653 3.33297 85.407 3.74445 84.6279C3.74445 84.5869 3.7856 84.4639 3.86789 84.2999C3.86789 84.2589 3.90904 84.1359 3.95019 84.0129C4.03249 83.5619 4.11478 82.9469 4.19708 82.2908C4.03249 82.6599 3.86789 83.0289 3.7033 83.3159C3.57986 83.5209 3.45642 83.6849 3.37412 83.8489C3.25068 84.0129 3.16838 84.1359 3.04494 84.2179C2.96264 84.2999 2.88035 84.3819 2.8392 84.4229C2.88035 84.3819 2.96264 84.2999 3.04494 84.1769C3.12723 84.0949 3.20953 83.9309 3.33297 83.8079C3.41527 83.6439 3.53871 83.4799 3.62101 83.2749C3.90904 82.6598 4.23822 80.4457 4.23822 80.4457C4.19708 80.6098 4.15593 80.7738 4.11478 80.9788C3.86789 82.1678 3.45642 83.3159 2.96264 84.0949C2.88035 84.2179 2.8392 84.2999 2.7569 84.4229C2.7569 84.4639 2.7569 84.4639 2.71576 84.5049C2.67461 84.6689 2.59231 84.7919 2.55116 84.915C2.46887 85.12 2.38657 85.243 2.38657 85.243C2.38657 85.243 2.42772 85.12 2.51002 84.874C2.55116 84.7919 2.55116 84.7099 2.59231 84.5869C2.46887 84.7509 2.38657 84.8329 2.26313 84.956C2.18083 85.038 2.09854 85.12 2.05739 85.161C2.05739 84.956 2.05739 84.956 2.05739 84.956C2.05739 84.956 2.09854 84.915 2.13969 84.874C2.18083 84.833 2.26313 84.7509 2.34542 84.6279C2.42772 84.5459 2.51002 84.3819 2.63346 84.2589C2.67461 84.1769 2.71576 84.0949 2.7569 84.0129C2.79805 83.8899 2.79805 83.7669 2.8392 83.6029C2.88035 83.3979 2.88035 83.1929 2.92149 82.9469C2.96264 82.7008 2.96264 82.4548 2.96264 82.2088C2.96264 82.0038 2.96264 81.7578 2.96264 81.5528C2.13969 85.161 0 84.997 0 84.997C2.46887 84.6279 2.67461 79.3387 2.67461 78.9697Z" fill="#E2E2E2"/>
</svg>
