<svg width="74" height="53" viewBox="0 0 74 53" fill="none" xmlns="http://www.w3.org/2000/svg">
<path d="M36.7638 52.1436C31.2275 52.0432 26.8386 51.4264 22.5501 50.1499C17.0998 48.5292 12.1229 46.0192 7.86306 42.204C4.75067 39.4215 2.3124 36.1513 1.02155 32.1497C-1.02947 25.7959 0.0605814 19.901 3.81839 14.4651C6.74432 10.2339 10.7316 7.2076 15.2496 4.88407C20.3126 2.27368 25.7198 0.825061 31.3709 0.265693C38.3128 -0.422761 45.1256 0.208321 51.7663 2.37408C57.3744 4.20996 62.4374 7.0068 66.5968 11.2666C69.7092 14.4507 71.9036 18.1655 72.6925 22.5974C73.6391 27.8325 72.5203 32.666 69.6231 37.1123C66.9697 41.1713 63.341 44.169 59.1672 46.5355C54.4197 49.2176 49.2994 50.824 43.9208 51.6129C41.21 51.9858 38.4562 52.1436 36.7638 52.1436Z" fill="#3A5A3D"/>
<path d="M36.5664 2.25903C43.6374 2.30206 50.4072 3.65029 56.7467 6.87741C60.9492 9.01449 64.6353 11.8257 67.3604 15.7413C69.77 19.1979 71.0034 23.0131 70.7166 27.2585C70.4728 30.7582 69.1819 33.8849 67.1309 36.6961C64.4058 40.4395 60.8201 43.1503 56.718 45.23C52.2144 47.5249 47.4096 48.8731 42.4039 49.4611C34.5728 50.3791 26.9424 49.5759 19.5702 46.6786C15.3534 45.0149 11.5383 42.72 8.32548 39.4786C5.6147 36.7391 3.59236 33.5837 2.7318 29.7828C1.6274 24.892 2.64574 20.3883 5.35653 16.2289C7.86651 12.385 11.3231 9.5882 15.3104 7.37941C19.8284 4.88377 24.6906 3.40646 29.7823 2.70366C32.0341 2.4168 34.3003 2.25903 36.5664 2.25903Z" fill="white"/>
<path d="M38.1753 33.9568C36.5402 34.301 35.2494 35.0182 34.5322 36.5528C34.0015 37.6859 33.7434 38.8907 33.643 40.1385C33.5139 41.6876 33.7577 43.2222 33.9011 44.7569C33.9585 45.3306 33.9728 45.9043 33.9298 46.4781C33.8724 47.353 33.2127 47.898 32.223 47.898C31.1043 47.898 29.9999 47.7115 28.9098 47.5394C25.8835 47.0518 22.9146 46.3777 20.1034 45.1585C19.3432 44.8286 18.6117 44.4414 17.9233 43.9681C17.7512 43.8533 17.45 43.7099 17.536 43.4948C17.6364 43.2796 17.952 43.4087 18.1528 43.4517C18.8699 43.5951 19.5584 43.8246 20.2611 44.0685C23.3592 45.1155 26.5433 45.6749 29.8134 45.7322C30.5019 45.7466 31.1903 45.7035 31.8501 45.4884C32.3521 45.3306 32.3808 45.1872 32.1083 44.7713C31.721 44.1975 31.2047 43.8963 30.5019 43.9107C30.4015 43.9107 30.3154 43.9107 30.215 43.9107C29.8995 43.9107 29.5266 43.9824 29.3688 43.6238C29.1967 43.2366 29.1967 42.8206 29.4549 42.4334C29.5553 42.2756 29.6844 42.1322 29.8421 42.0174C30.172 41.788 30.4876 41.5441 30.8174 41.329C32.3951 40.2963 32.8541 38.8047 32.5816 37.0118C32.5529 36.811 32.5099 36.6102 32.4812 36.3951C32.3808 35.7066 32.639 35.2333 33.2987 35.0182C33.7003 34.8891 34.1306 34.8174 34.5466 34.717C34.8047 34.6453 35.0342 34.5448 35.0486 34.2293C35.0629 33.9281 34.8621 33.7703 34.6183 33.6556C34.4031 33.5552 34.1737 33.4691 33.9585 33.3974C33.0406 33.0819 32.3234 32.4938 31.8071 31.6619C31.6637 31.4325 31.4915 31.2173 31.3194 31.0165C31.219 30.9018 31.1043 30.7584 30.9178 30.787C30.7027 30.8301 30.674 31.0309 30.631 31.1886C30.5019 31.8484 30.4732 32.5082 30.4302 33.1823C30.3728 34.0142 30.3298 34.8317 30.0573 35.6349C29.9138 36.0652 29.7274 36.4811 29.1967 36.5385C28.5943 36.5959 28.1784 36.2947 27.9202 35.7927C27.4182 34.803 27.4182 33.7273 27.5043 32.6659C27.8055 28.9512 28.7664 25.3798 30.0716 21.8945C30.172 21.622 30.3154 21.3782 30.4302 21.12C30.4876 21.0053 30.5449 20.8475 30.7027 20.8905C30.8891 20.9335 30.8318 21.1343 30.8174 21.2634C30.717 21.8658 30.6023 22.4539 30.5162 23.0563C30.172 25.2794 30.4302 27.4452 31.2621 29.5249C31.8931 31.1026 33.2127 32.0635 34.7187 32.7377C37.286 33.8851 39.4805 33.4261 41.4311 31.3321C41.8614 30.8731 42.2486 30.3998 42.6646 29.9265C42.8223 29.74 42.9801 29.5679 43.1522 29.3958C43.3243 29.238 43.5108 29.0946 43.7403 29.2954C43.9698 29.4818 43.8837 29.697 43.769 29.8978C43.6399 30.1273 43.4821 30.3568 43.31 30.5719C42.7937 31.2747 42.2486 31.9631 41.8183 32.7377C41.6175 33.1249 41.718 33.2683 42.1196 33.3544C42.4638 33.4261 42.8223 33.4118 43.1666 33.4118C44.7156 33.3687 46.2072 33.713 47.6846 34.1002C48.8893 34.4158 49.7786 35.1616 50.3523 36.266C50.5818 36.7106 50.9117 36.8971 51.385 36.8684C52.1595 36.811 52.9053 36.9688 53.6655 37.0979C54.1818 37.1839 54.6551 36.9401 54.9277 36.5098C55.0424 36.3234 54.9707 36.1656 54.8559 36.0222C54.6695 35.764 54.4257 35.5488 54.1531 35.3767C53.1778 34.7456 52.2025 34.1433 51.0408 33.8707C50.0655 33.6413 50.1228 33.3974 50.2376 32.2213C50.2663 31.8914 50.3667 31.4325 50.7682 31.3894C51.1842 31.3464 51.3133 31.791 51.428 32.0922C51.6862 32.795 52.2456 33.1966 52.8767 33.4691C53.6798 33.8134 54.2822 34.3727 54.8559 35.0038C55.6305 35.8644 56.0607 35.8787 56.95 35.1186C57.0791 35.0038 57.2082 34.8747 57.3373 34.76C58.0401 34.215 58.3412 33.5552 57.997 32.6803C57.911 32.4365 57.9397 32.1783 57.9683 31.9201C58.1405 30.9018 57.4377 30.242 56.405 30.4858C56.0894 30.5576 55.8026 30.658 55.4727 30.6436C54.9564 30.6149 54.6982 30.3998 54.5691 29.8978C54.4687 29.5105 54.5834 29.1376 54.7125 28.779C54.8129 28.5065 55.0711 28.4778 55.3149 28.5065C55.9747 28.5926 56.5484 28.8938 57.0791 29.2954C57.3659 29.5249 57.6241 29.783 57.9827 29.8978C58.4273 30.0412 58.7428 29.7974 58.6568 29.3528C58.542 28.7217 58.2122 28.2053 57.6815 27.8181C57.1078 27.3878 56.4623 27.0579 55.8313 26.728C53.7659 25.638 52.0161 24.132 50.1802 22.7264C49.0615 21.8802 47.9714 21.0053 46.9387 20.0443C46.7953 19.9152 46.6662 19.7718 46.5228 19.6427C45.9778 19.112 45.6479 18.5096 45.5905 17.7208C45.5331 16.8889 45.0885 16.3582 44.2423 16.3008C42.6502 16.1861 41.5458 15.2538 40.4701 14.2498C39.8821 13.7048 39.3657 13.1024 38.7346 12.6004C38.5052 12.4283 38.4908 12.1558 38.5339 11.8976C38.5912 11.5677 38.6629 11.2378 38.7633 10.9223C39.251 9.43063 38.8494 7.96767 38.706 6.46167C37.1283 7.25053 36.7697 8.85692 35.9665 10.2051C35.7227 8.71349 35.2494 7.33658 34.9051 5.88796C34.6326 6.03139 34.6183 6.24653 34.5609 6.4043C33.8438 8.13978 33.1553 9.8896 32.2804 11.5534C31.9792 12.1127 31.6206 12.6004 31.176 13.045C28.3648 15.8562 25.5249 18.6244 22.8715 21.579C19.8309 24.9495 17.2061 28.5783 15.2268 32.6803C14.4953 34.2006 13.6204 35.6492 12.5447 36.9688C12.1288 37.4708 11.6698 37.9441 11.0818 38.2596C10.3503 38.6469 9.67616 38.6182 9.10245 38.0301C6.52075 35.4771 4.61316 32.5225 3.9534 28.8938C3.13586 24.3615 4.45539 20.2881 6.86498 16.516C9.05943 13.088 12.1575 10.6354 15.7001 8.72783C19.1137 6.87762 22.7138 5.50071 26.5146 4.68317C28.4222 4.26723 30.3728 4.06643 32.3234 3.83694C34.3171 3.60746 36.2964 3.59312 38.29 3.67917C44.1993 3.96603 49.9364 5.05608 55.3436 7.58041C59.7182 9.61709 63.4616 12.4283 66.2011 16.4586C67.8075 18.8252 68.9406 21.3782 69.3135 24.2324C69.7007 27.187 69.2131 30.0125 67.9366 32.6946C65.6561 37.4564 61.9987 40.8844 57.3659 43.3083C54.985 44.5561 52.5755 45.7609 50.0081 46.6071C48.2296 47.1952 46.4081 47.5394 44.5578 47.7832C42.6216 48.0271 40.6709 48.2996 38.706 48.2996C36.3107 48.2996 35.235 47.4964 34.6613 45.1585C34.1163 42.9354 33.9011 40.6979 34.4748 38.4461C34.9051 36.768 35.8804 35.5058 37.4151 34.6739C37.6733 34.5305 37.9028 34.3727 38.1466 34.215C38.1179 34.1289 38.1323 34.0715 38.1753 33.9568Z" fill="#0E0E0E"/>
<path d="M42.2566 24.5481C41.5394 24.5481 41.0948 24.2899 41.5251 23.4868C41.5824 23.372 41.6398 23.2573 41.6972 23.1425C41.9267 22.6405 42.0988 22.3393 41.3673 22.0668C41.3243 22.0525 41.2813 22.0238 41.2526 21.9808C40.7793 21.1919 40.0191 21.2923 39.2733 21.3067C38.0972 21.321 36.7202 20.2596 36.3473 19.1122C36.2039 18.6532 36.2469 18.2373 36.4477 17.8214C36.5768 17.5632 36.7059 17.3194 36.835 17.0468C37.1505 16.3871 37.0358 15.9855 36.4334 15.5839C36.1896 15.4261 35.9027 15.297 35.6445 15.1536C36.2756 14.8237 37.4661 15.1679 37.8103 15.7847C37.9824 16.1002 37.925 16.3871 37.7529 16.6883C37.4087 17.2907 37.1362 17.9074 36.9928 18.5815C36.9641 18.7393 36.9354 18.8971 36.9354 19.0548C36.9497 19.3991 37.0932 19.5425 37.4661 19.4421C37.9394 19.2987 38.3123 18.9975 38.6852 18.7106C39.6318 18.0078 40.6645 17.7927 41.7976 18.1943C42.486 18.4381 42.7729 18.9114 42.6869 19.6429C42.6725 19.772 42.6582 19.9154 42.5147 19.9584C42.357 20.0015 42.2996 19.8724 42.2135 19.772C42.1992 19.7576 42.1992 19.7433 42.1849 19.7289C41.8693 19.313 41.6255 18.7536 41.0374 18.7393C40.2199 18.7249 39.431 18.9257 38.7713 19.4564C38.4701 19.7003 38.384 20.0445 38.4844 20.4174C38.5705 20.7616 38.843 20.9051 39.2015 20.9624C39.7179 21.0341 40.2199 20.9911 40.7219 20.9337C40.8223 20.9194 40.9227 20.8907 40.937 20.7903C40.9514 20.6756 40.8366 20.6469 40.7649 20.5895C40.5641 20.4461 40.3346 20.317 40.1338 20.1592C39.9474 20.0015 39.9187 19.7863 40.1338 19.6285C40.5067 19.3417 40.9227 19.1552 41.4247 19.2843C41.9697 19.4277 42.1705 20.0301 41.8119 20.4748C41.7689 20.5321 41.7115 20.6039 41.6685 20.6612C41.4964 20.9051 41.2526 21.1632 41.3816 21.4788C41.5394 21.823 41.898 21.823 42.2135 21.8086C42.5721 21.78 42.6868 21.9521 42.6008 22.2676C42.4717 22.7696 42.3139 23.2716 42.1705 23.7736C42.0558 24.0318 42.0127 24.2899 42.2566 24.5481Z" fill="#0F0F0F"/>
<path d="M34.827 8.1543C35.6732 9.9328 35.415 11.4962 34.1959 12.8731C34.0381 13.0452 33.952 12.9735 33.8516 12.8587C33.2923 12.2707 32.9194 11.3527 33.8373 10.6356C34.5831 10.0619 34.87 9.23001 34.827 8.1543Z" fill="#0F0F0F"/>
<path d="M65.9329 26.2547C65.8038 29.2811 64.6994 31.9201 62.8636 34.2867C61.1998 36.4381 59.0054 37.9728 56.7535 39.4358C53.34 41.6589 49.6395 43.1362 45.6235 43.8677C44.4618 44.0828 43.2857 44.2119 42.1096 44.2836C41.4498 44.3266 40.8044 44.1976 40.1876 43.9681C39.3701 43.6812 38.782 43.1505 38.5095 42.3187C37.9932 40.784 37.9645 39.235 38.5239 37.729C38.9972 36.4525 40.0442 35.8644 41.3494 35.6779C42.9701 35.4485 44.4331 35.9361 45.8387 36.6819C46.3263 36.9401 46.814 37.2413 47.2586 37.5569C48.5781 38.5178 50.0841 38.8477 51.6762 38.9194C52.6802 38.9625 53.6842 38.9624 54.6882 38.8334C55.8499 38.6756 56.8252 38.1306 57.7288 37.4278C59.2348 36.266 60.2532 34.76 60.7839 32.9098C61.3145 31.0165 60.7552 29.3528 59.8659 27.689C59.3926 26.8141 58.7185 26.3121 57.8866 25.8675C55.6492 24.677 53.5551 23.2858 51.8053 21.4356C50.9877 20.575 50.2993 19.6284 49.7399 18.567C49.4531 18.0363 49.1949 17.477 48.9224 16.9463C48.32 15.7558 47.3734 15.01 46.0538 14.8092C45.3797 14.7088 44.6913 14.6227 44.0171 14.5223C43.802 14.4937 43.5869 14.4219 43.3717 14.3502C42.2673 13.9773 41.794 13.2028 42.0092 12.0554C42.1813 11.0944 42.5685 10.1908 43.0418 9.3446C43.6156 8.3406 44.6052 8.35494 45.5375 8.52706C48.2052 9.0434 50.787 9.86093 53.2969 10.9366C55.7639 11.9837 58.03 13.3749 60.0811 15.0961C63.0644 17.606 65.0724 20.6897 65.7608 24.5623C65.8755 25.1217 65.9473 25.681 65.9329 26.2547Z" fill="#3A5A3D"/>
<path d="M25.9067 9.5456C26.6238 9.5456 27.2263 9.51691 27.8286 9.646C28.0151 9.68903 28.2016 9.71771 28.388 9.77509C29.7362 10.191 29.9944 11.1233 29.0478 12.1847C28.0581 13.2891 26.8677 14.1496 25.6916 15.0102C24.329 16.0142 23.0382 17.1043 21.776 18.223C20.4851 19.3704 19.266 20.5895 18.0756 21.823C16.3114 23.6589 14.6907 25.5952 13.658 27.9617C13.2277 28.9514 12.7257 29.9267 12.0229 30.7729C12.0086 30.8016 11.9799 30.8303 11.9655 30.8446C10.8755 32.2359 9.46988 32.3506 8.30811 31.0311C6.9312 29.4677 6.01327 27.6319 6.09933 25.5091C6.2571 21.823 7.51926 18.5242 10.2157 15.8995C11.5496 14.5943 13.156 13.6046 14.7767 12.6723C16.9425 11.4388 19.2086 10.4062 21.6899 9.96154C23.1242 9.73206 24.5585 9.48823 25.9067 9.5456Z" fill="#3A5A3D"/>
</svg>
