<svg width="92" height="92" viewBox="0 0 92 92" fill="none" xmlns="http://www.w3.org/2000/svg">
<g id="&#208;&#151;&#208;&#144;&#208;&#147;&#208;&#155;&#208;&#163;&#208;&#168;&#208;&#154;&#208;&#144;">
<rect id="image 39" width="92" height="92" fill="#F0F0F0"/>
<path id="Union" fill-rule="evenodd" clip-rule="evenodd" d="M10.1678 82.5064H9.68359V82.0222V38.9275H10.1678V82.0222H26.7874V82.5064H10.1678Z" fill="#DEDEDE"/>
<path id="Union_2" fill-rule="evenodd" clip-rule="evenodd" d="M81.9884 9.68436L82.4727 9.68436L82.4727 10.1686L82.4727 53.2633L81.9884 53.2633L81.9884 10.1686L65.3688 10.1686L65.3688 9.68436L81.9884 9.68436Z" fill="#DEDEDE"/>
<path id="XMLID_1_" d="M34.7295 55.9992C34.3056 57.4009 33.8945 57.5809 33.8945 57.5809C33.8945 57.5809 35.269 55.099 34.7295 50.791C34.5497 49.4022 34.7552 48.3734 35.1406 47.6147C35.1406 47.6276 35.1277 47.6276 35.1277 47.6404C35.0892 47.6918 35.0507 47.769 35.025 47.8204C34.9864 47.8847 34.9607 47.949 34.9222 48.0133C34.8708 48.1419 34.8066 48.2834 34.7681 48.412C34.7295 48.5534 34.6781 48.682 34.6524 48.8106C34.6267 48.9392 34.6011 49.0678 34.5754 49.1964C34.5625 49.325 34.5497 49.4408 34.5368 49.5436C34.5368 49.5951 34.524 49.6465 34.524 49.698C34.524 49.7494 34.524 49.8008 34.524 49.8394C34.524 49.9294 34.524 50.0066 34.524 50.0709C34.524 50.1995 34.524 50.2766 34.524 50.2766C34.524 50.2766 34.524 50.1995 34.5111 50.0709C34.5111 50.0066 34.5111 49.9294 34.4983 49.8394C34.4983 49.8008 34.4983 49.7494 34.4983 49.698C34.4983 49.6465 34.4983 49.5951 34.5111 49.5436C34.524 49.4279 34.524 49.3122 34.5368 49.1836C34.5497 49.055 34.5754 48.9264 34.6011 48.7849C34.6267 48.6435 34.6653 48.5149 34.7038 48.3734C34.7424 48.232 34.8066 48.1034 34.8451 47.9619C34.8708 47.8976 34.9094 47.8333 34.935 47.7561C34.9736 47.6918 34.9993 47.6276 35.0378 47.5633C35.0764 47.499 35.1149 47.4347 35.1534 47.3832C35.192 47.3189 35.2305 47.2675 35.269 47.216C35.3461 47.1003 35.436 46.9974 35.526 46.9074C35.5645 46.856 35.6159 46.8174 35.6544 46.7788C35.693 46.7402 35.7443 46.6888 35.7829 46.6631C35.8214 46.6245 35.8728 46.5859 35.9113 46.5602C35.9499 46.5345 35.9884 46.4959 36.0269 46.4702C36.9518 45.66 38.0181 45.5186 38.0181 45.5186C38.2364 45.1456 38.4805 44.7984 38.7246 44.4641C39.7137 43.1395 40.857 42.9209 42.1801 42.3808C43.5032 41.8407 44.5694 40.439 44.6851 40.3104C44.8007 40.1818 44.8906 40.0532 45.0576 39.6803C45.2117 39.3202 44.9163 39.1787 44.9163 39.1787C44.6594 39.2688 44.5566 39.5259 44.5566 39.5259C44.5052 39.2559 44.8007 38.973 44.8392 38.9344C44.5951 39.1916 44.2355 39.1402 44.2355 39.1402C44.6722 39.063 44.9805 38.2914 44.9805 38.2914C44.6851 38.7672 44.2611 38.6643 44.2611 38.6643C44.5951 38.6515 44.7878 38.15 44.8649 37.867C44.942 37.5841 45.443 37.1855 45.443 37.1855C44.775 37.6613 44.4795 37.417 44.4795 37.417C44.8906 37.4298 45.4044 36.7997 45.4044 36.7997C44.5052 37.3527 44.2611 36.954 44.2611 36.954C44.9934 37.0955 45.2503 36.4911 45.2503 36.4911C44.775 36.311 44.1969 36.5554 44.1969 36.5554C44.3639 36.2853 44.7108 36.221 44.942 36.2081C44.5566 36.1438 44.5566 35.8352 44.5566 35.8352C44.7621 36.0924 45.0961 35.9895 45.0961 35.9895C45.0961 35.9895 45.1475 35.6295 45.4558 35.5137C45.777 35.398 46.4449 35.0379 45.9825 35.0894C45.52 35.1408 45.4944 35.488 45.4944 35.488C45.4944 34.9865 45.8283 34.8836 46.021 34.8707C45.4815 34.8707 45.3274 34.6007 45.3274 34.6007C46.0724 34.9736 47.19 34.3949 46.7276 34.3435C46.7147 34.3435 46.7019 34.3435 46.6762 34.3435C46.2394 34.3049 45.8797 34.4978 45.8797 34.4978C46.0467 34.2792 46.4578 34.1377 46.5991 34.112C46.2266 34.202 46.1238 33.9834 46.1238 33.9834C46.4449 34.112 46.8689 33.9063 47.023 33.6491C47.1772 33.3919 47.691 33.109 47.691 33.109C47.691 33.109 47.5625 33.1475 47.0744 33.4047C46.5862 33.6619 46.4064 33.4562 46.4064 33.4562C46.6248 33.4948 47.2029 33.0061 47.4469 32.7103C47.6781 32.4145 48.1149 32.4531 48.1149 32.4531C47.7424 32.0673 46.8046 32.8132 46.8046 32.8132C46.8046 32.8132 46.9331 32.3888 47.6525 32.1831C48.3718 31.9773 48.6031 32.4274 48.6031 32.4274C48.6031 32.4274 48.6544 31.913 48.0507 32.003C47.4469 32.093 47.3827 31.7073 47.3827 31.7073C47.3827 31.7073 47.5882 31.9644 48.0507 31.7458C48.5131 31.5272 48.9242 32.1059 48.9242 32.1059C48.8471 31.6301 48.4232 31.5015 48.4232 31.5015C48.9884 31.4501 49.2453 32.2345 49.2453 32.2345C49.2967 32.1702 49.5793 32.003 49.5793 32.003C49.1554 31.8873 49.194 31.6172 49.194 31.6172C49.194 31.6172 49.3738 31.9001 49.8363 31.7973C50.2987 31.6815 50.5685 32.0802 50.5685 32.0802C50.5942 31.7587 50.2859 31.6558 50.2859 31.6558C50.774 31.6172 50.9667 32.1959 50.9667 32.1959C51.0566 31.3986 51.6989 31.2314 51.6989 31.2314C51.5833 31.4501 51.6989 32.1573 51.6989 32.1573C51.8145 32.1316 52.0201 32.2474 52.0201 32.2474C52.0329 32.1702 52.2513 31.9387 52.4697 31.823C52.688 31.7073 52.7908 31.4501 52.7908 31.4501C53.0734 32.1573 52.4054 32.7617 52.4054 32.7617C52.4054 32.7617 52.3926 33.0961 52.7266 33.5719C53.0606 34.0477 52.8679 34.2792 52.7009 34.755C52.5339 35.2308 53.022 36.9926 53.1633 37.134C53.3046 37.2755 52.8165 37.6741 52.7394 38.0471C52.6623 38.42 52.4054 38.3043 52.4054 38.3043C51.6347 38.2914 51.943 38.2914 51.5448 38.0471C51.1594 37.8027 51.5961 37.4555 51.3778 37.2755C51.1594 37.0955 51.0181 36.7611 50.7226 36.4396C50.4272 36.1181 50.3501 36.5682 50.5299 38.1757C50.7226 39.7703 50.8254 40.0018 51.3264 40.3232C51.8274 40.6447 51.9173 41.6349 51.9173 41.6349C51.9173 41.6349 52.8422 41.2491 53.1248 41.1205C53.4074 41.0048 53.7029 40.9534 54.0625 40.9662C54.4222 40.9791 54.4479 41.352 54.692 41.5063C54.9361 41.6607 55.9123 42.2136 56.3363 42.3551C56.7602 42.4965 56.4776 42.6509 56.6959 43.1267C56.9143 43.6025 57.0685 43.4096 57.2098 43.6668C57.3511 43.924 57.6208 44.4512 57.6208 44.4512C57.6208 44.4512 56.773 44.5284 56.5546 44.3998C56.3491 44.2583 55.861 44.1683 56.1307 43.8597C56.3876 43.551 56.2335 43.2681 55.8481 43.1781C55.4627 43.0881 55.5141 42.908 55.0774 42.548C54.6406 42.1879 53.7928 41.7764 53.1762 42.3937C52.5596 43.0109 51.9687 43.5382 51.9687 43.5382C52.4568 43.7182 53.6001 43.7825 53.6001 43.7825C54.1653 44.657 54.3837 44.5026 53.7542 45.5957C53.1248 46.6759 53.4973 47.3446 53.0349 47.3061C52.5724 47.2675 51.9558 47.8076 51.5576 47.9876C51.1594 48.1677 50.9025 48.6563 50.774 48.4377C50.6455 48.2191 50.8382 47.2289 50.9282 47.216C51.0052 47.2032 51.2236 47.1003 51.4163 46.8945C51.609 46.6888 51.5448 46.8302 51.7503 47.036C51.9558 47.2418 52.2127 47.0617 52.1485 46.8302C52.0971 46.5988 52.0457 46.7402 52.354 46.5088C52.6752 46.2773 53.1505 45.1713 53.1505 45.0685C53.1505 44.9656 53.2276 44.2969 52.5724 44.5927C51.9173 44.8884 50.4015 45.1071 49.6949 45.48C48.9884 45.8658 48.86 45.6472 48.86 45.6472C46.4449 47.6533 44.3639 47.7947 44.3639 47.7947C45.2117 50.9068 42.8224 52.54 43.1436 53.633C43.4647 54.7132 44.4538 55.4591 44.8135 55.8578C45.186 56.2564 44.7493 56.0249 45.0062 56.3336C45.276 56.6422 45.777 56.7194 45.8926 57.0794C46.0082 57.4395 46.4963 57.671 46.3036 57.851C46.111 58.0182 45.1218 57.9796 44.9677 57.851C44.8264 57.7224 44.6594 57.3495 44.8264 57.1566C44.9805 56.9637 44.775 56.8479 44.4538 56.7708C44.1327 56.6936 44.1584 57.0023 43.8501 56.6551C43.5289 56.295 42.5526 54.3532 42.1673 53.9031C41.769 53.453 41.1653 53.2472 41.4094 52.9515C41.6663 52.6557 41.8847 51.524 42.0003 50.8682C42.1159 50.2123 41.6791 49.5822 41.6791 49.878C41.6791 50.1738 41.358 50.4695 41.358 50.4695C41.1653 52.167 40.3046 52.8357 40.3175 53.273C40.3303 53.7102 40.0862 54.1603 40.0605 54.5589C40.0477 54.9576 40.4845 56.0249 40.8313 56.5779C41.1781 57.1309 40.8185 56.8608 40.9469 57.1952C41.0754 57.5424 41.6406 57.7481 41.6406 57.7481C42.1544 58.6869 42.27 58.3783 42.0003 58.674C41.7177 58.9698 40.8698 58.7769 40.7542 58.674C40.6515 58.5711 40.356 58.2754 40.4459 58.0568C40.5358 57.8381 40.4973 57.6838 40.2789 57.5038C40.0605 57.3238 39.9321 57.6067 39.8036 57.4395C39.6752 57.2723 39.4054 55.4591 39.1485 54.8033C38.8787 54.1474 38.3649 53.4016 38.5833 53.2472C38.7888 53.0929 39.11 52.5657 39.3669 51.6655C39.6238 50.7653 38.2878 49.7108 38.2878 49.7108C37.3372 48.412 37.2473 47.3446 37.5428 46.4187C36.9133 46.7145 36.7592 47.5247 36.7335 47.769C36.7206 47.8204 36.7206 47.8719 36.7206 47.9362C36.7206 48.0262 36.7206 48.1034 36.7206 48.2062C36.7335 48.322 36.7592 48.4249 36.7977 48.5277C36.8234 48.5792 36.8619 48.6435 36.8876 48.7078C36.9262 48.7721 36.9518 48.8364 36.9775 48.9007C37.0289 49.0293 37.0803 49.1579 37.1188 49.2736C37.1574 49.4022 37.1831 49.5179 37.2088 49.6337C37.2345 49.7494 37.2473 49.8651 37.2473 49.968C37.2601 50.0709 37.2473 50.1609 37.2473 50.2509C37.2473 50.3409 37.2345 50.4052 37.2345 50.4695C37.2345 50.5338 37.2216 50.5724 37.2216 50.611C37.2216 50.6367 37.2216 50.6624 37.2216 50.6624C37.2216 50.6624 37.2216 50.6496 37.2216 50.611C37.2216 50.5853 37.2216 50.5338 37.2216 50.4695C37.2216 50.4052 37.2216 50.3409 37.2216 50.2509C37.2216 50.1738 37.2088 50.0709 37.1959 49.968C37.1831 49.8651 37.1702 49.7623 37.1445 49.6465C37.1188 49.5308 37.0803 49.415 37.0418 49.2993C36.9904 49.1836 36.939 49.0678 36.8748 48.9392C36.8362 48.8749 36.8105 48.8235 36.772 48.7721C36.7592 48.7463 36.7463 48.7335 36.7335 48.7078C36.7592 48.965 36.7849 49.2479 36.8362 49.5179C36.8619 49.6722 36.9005 49.8137 36.9262 49.968C36.9647 50.1095 37.0032 50.2509 37.0418 50.3924C37.1317 50.6624 37.2345 50.9068 37.3501 51.1125C37.3758 51.164 37.4015 51.2154 37.4271 51.254C37.4528 51.2926 37.4785 51.344 37.5042 51.3826C37.5556 51.4597 37.607 51.524 37.6455 51.5755C37.7354 51.6784 37.774 51.7427 37.774 51.7427C37.774 51.7427 37.7226 51.6912 37.6327 51.5883C37.5941 51.5369 37.5428 51.4726 37.4785 51.3954C37.4528 51.3569 37.4271 51.3183 37.3886 51.2797C37.3629 51.2411 37.3244 51.1897 37.2987 51.1382C37.1831 50.9453 37.0546 50.701 36.9518 50.431C36.9005 50.2895 36.8491 50.1481 36.8105 50.0066C36.772 49.8651 36.7206 49.7108 36.6949 49.5565C36.6692 49.4279 36.6435 49.3122 36.6179 49.1836C36.6307 49.4922 36.6692 49.8394 36.7335 50.1866C36.7592 50.3281 36.7849 50.4695 36.8362 50.5981C36.8748 50.7267 36.9262 50.8553 37.0032 50.9582C37.0675 51.0739 37.1317 51.1897 37.1959 51.3054C37.2473 51.4212 37.2987 51.524 37.3244 51.6269C37.3886 51.8327 37.3886 52.0127 37.4015 52.1413C37.4015 52.2699 37.4143 52.3342 37.4143 52.3342C37.4143 52.3342 37.4015 52.257 37.3886 52.1413C37.3758 52.0127 37.3629 51.8327 37.2858 51.6398C37.2473 51.5369 37.1959 51.434 37.1445 51.3311C37.0803 51.2283 37.0161 51.1125 36.939 51.0096C36.8619 50.8939 36.7977 50.7653 36.7463 50.6367C36.6949 50.4953 36.6564 50.3667 36.6179 50.2252C36.5536 49.9552 36.5022 49.6722 36.4637 49.4022C36.4637 49.5051 36.4637 49.6208 36.4766 49.7237C36.4894 49.8266 36.4894 49.9423 36.5022 50.0323C36.5151 50.1352 36.5279 50.2252 36.5408 50.3152C36.5536 50.4052 36.5793 50.4824 36.5922 50.5467C36.605 50.611 36.6307 50.6753 36.6435 50.7267C36.6692 50.8296 36.6821 50.8811 36.6821 50.8811C36.6821 50.8811 36.6564 50.8296 36.6179 50.7267C36.605 50.6753 36.5793 50.6239 36.5536 50.5467C36.5279 50.4824 36.5022 50.4052 36.4766 50.3152C36.4509 50.2509 36.438 50.1738 36.4252 50.1095C36.438 50.1609 36.438 50.2123 36.4509 50.2509C36.4637 50.3281 36.4766 50.4052 36.5022 50.4824C36.5279 50.6367 36.5665 50.791 36.605 50.9453C36.6435 51.0997 36.6949 51.254 36.7335 51.4083C36.7592 51.4855 36.7849 51.5626 36.8105 51.6526L36.8748 51.8841C36.9005 51.9613 36.9262 52.0384 36.939 52.1284L36.9904 52.3728C37.0032 52.4499 37.0289 52.54 37.0418 52.6171C37.0546 52.6943 37.0675 52.7843 37.0675 52.8614C37.0803 52.9386 37.0932 53.0286 37.0932 53.1058C37.0932 53.1829 37.106 53.273 37.106 53.3501C37.106 53.4273 37.1188 53.5044 37.1188 53.5944C37.1188 53.6716 37.1188 53.7488 37.1188 53.8259C37.1188 53.9031 37.1188 53.9802 37.1188 54.0574C37.1188 54.1346 37.106 54.2117 37.106 54.2889C37.106 54.366 37.0932 54.4432 37.0932 54.5075C37.0932 54.5846 37.0803 54.6489 37.0675 54.7261C37.0546 54.8676 37.0418 55.009 37.0161 55.1376C36.9904 55.2662 36.9775 55.3948 36.9518 55.5234C36.9133 55.7677 36.8619 55.9863 36.8105 56.1792C36.7592 56.3721 36.7078 56.5393 36.6692 56.6808C36.5793 56.9508 36.5151 57.1051 36.5151 57.1051C36.5151 57.1051 36.5793 56.9508 36.6564 56.6679C36.6949 56.5265 36.7463 56.3593 36.7849 56.1664C36.8234 55.9735 36.8748 55.7549 36.9133 55.5105C36.939 55.3948 36.9518 55.2662 36.9647 55.1247C36.9775 54.9962 36.9904 54.8547 37.0032 54.7132C37.0032 54.6489 37.0161 54.5718 37.0161 54.4946C37.0161 54.4175 37.0161 54.3532 37.0289 54.276C37.0289 54.1989 37.0289 54.1217 37.0418 54.0574C37.0418 53.9802 37.0418 53.9031 37.0418 53.8259C37.0418 53.7488 37.0418 53.6716 37.0418 53.5944C37.0418 53.5173 37.0289 53.4401 37.0289 53.363C37.0161 53.2858 37.0161 53.2087 37.0032 53.1315C36.9904 53.0543 36.9775 52.9772 36.9647 52.8872C36.9518 52.81 36.939 52.7328 36.9262 52.6428C36.9133 52.5657 36.8876 52.4885 36.8748 52.4114L36.8234 52.1799C36.8105 52.1027 36.772 52.0256 36.7463 51.9484L36.6692 51.7169C36.6435 51.6398 36.6179 51.5626 36.5922 51.4855C36.5793 51.4469 36.5665 51.4212 36.5536 51.3826C36.8876 52.6943 36.9518 53.9031 36.9647 54.4689H36.9775C36.9775 54.4689 36.9775 54.5203 36.9775 54.5975C36.9775 54.6361 36.9775 54.6875 36.9647 54.7518C36.9647 54.8033 36.9647 54.829 36.9647 54.829C36.9647 54.8676 36.9647 54.9061 36.9518 54.9576C36.9262 55.2405 36.8748 55.6263 36.7977 55.9992C36.7206 56.3721 36.5793 56.7322 36.438 56.9765C36.104 57.5809 35.937 57.5295 35.9627 57.5038C35.9884 57.4781 36.0141 57.4266 36.0526 57.3881C36.0783 57.3366 36.1169 57.2852 36.1426 57.2209C36.2582 56.9637 36.0912 57.2337 35.937 57.4781C35.9113 57.5167 35.8985 57.5424 35.8728 57.5809C35.8728 57.5938 35.7572 57.7224 35.7315 57.761C35.7058 57.7867 35.6801 57.8124 35.6673 57.8253C35.6544 57.8381 35.6544 57.8381 35.6673 57.8253C35.6801 57.8124 35.8985 57.4524 35.937 56.9894C35.937 56.9251 35.937 56.8608 35.937 56.7965C35.9242 56.8094 35.9242 56.8222 35.9113 56.8351C35.8728 56.8865 35.8343 56.938 35.7829 56.9894C35.693 57.0794 35.6287 57.1823 35.5645 57.2852C35.5003 57.3881 35.4489 57.4909 35.4103 57.6067C35.3847 57.6581 35.3718 57.7224 35.3333 57.7738C35.2947 57.8253 35.2562 57.8767 35.2048 57.9024C35.1149 57.9667 35.025 58.0182 34.935 58.0568C34.7552 58.1339 34.5882 58.1339 34.4726 58.1082C34.4212 58.0953 34.3827 58.0696 34.357 58.0568C34.3827 58.0696 34.4212 58.0825 34.4854 58.0953C34.5497 58.1082 34.6139 58.1082 34.7038 58.0953C34.7167 58.0953 34.935 58.0182 35.0635 57.7738C35.0635 57.761 35.0764 57.7224 35.102 57.671C35.102 57.6581 35.1149 57.6195 35.1277 57.5809C35.1534 57.4395 35.1791 57.2466 35.2048 57.0408C35.1534 57.1566 35.102 57.2723 35.0507 57.3623C35.0121 57.4266 34.9736 57.4781 34.9479 57.5295C34.9094 57.5809 34.8837 57.6195 34.8451 57.6452C34.8194 57.671 34.7937 57.6967 34.7809 57.7095C34.7937 57.6967 34.8194 57.671 34.8451 57.6324C34.8708 57.6067 34.8965 57.5552 34.935 57.5167C34.9607 57.4652 34.9993 57.4138 35.025 57.3495C35.1149 57.1566 35.2177 56.4622 35.2177 56.4622C35.2048 56.5136 35.192 56.565 35.1791 56.6293C35.102 57.0023 34.9736 57.3623 34.8194 57.6067C34.7937 57.6452 34.7809 57.671 34.7552 57.7095C34.7552 57.7224 34.7552 57.7224 34.7424 57.7353C34.7295 57.7867 34.7038 57.8253 34.691 57.8639C34.6653 57.9282 34.6396 57.9667 34.6396 57.9667C34.6396 57.9667 34.6524 57.9282 34.6781 57.851C34.691 57.8253 34.691 57.7996 34.7038 57.761C34.6653 57.8124 34.6396 57.8381 34.6011 57.8767C34.5754 57.9024 34.5497 57.9282 34.5368 57.941C34.5368 57.8767 34.5368 57.8767 34.5368 57.8767C34.5368 57.8767 34.5497 57.8639 34.5625 57.851C34.5754 57.8381 34.6011 57.8124 34.6267 57.7738C34.6524 57.7481 34.6781 57.6967 34.7167 57.6581C34.7295 57.6324 34.7424 57.6067 34.7552 57.5809C34.7681 57.5424 34.7681 57.5038 34.7809 57.4524C34.7937 57.3881 34.7937 57.3238 34.8066 57.2466C34.8194 57.1694 34.8194 57.0923 34.8194 57.0151C34.8194 56.9508 34.8194 56.8737 34.8194 56.8094C34.5625 57.941 33.8945 57.8896 33.8945 57.8896C34.6653 57.7738 34.7295 56.1149 34.7295 55.9992Z" fill="#E2E2E2"/>
</g>
</svg>
