<svg width="400" height="295" viewBox="0 0 400 295" fill="none" xmlns="http://www.w3.org/2000/svg">
<rect width="400" height="295" fill="#F0F0F0"/>
<path fill-rule="evenodd" clip-rule="evenodd" d="M29.7803 265.181H28.8047V264.116V73.4839H29.7803V264.116H67.8291V265.181H29.7803Z" fill="#DEDEDE"/>
<path fill-rule="evenodd" clip-rule="evenodd" d="M369.591 31.9495L370.566 31.9495L370.566 33.0145L370.566 223.646L369.591 223.646L369.591 33.0145L331.542 33.0145L331.542 31.9495L369.591 31.9495Z" fill="#DEDEDE"/>
<path d="M146.99 205.562C144.938 212.973 142.949 213.924 142.949 213.924C142.949 213.924 149.6 200.803 146.99 178.027C146.119 170.684 147.114 165.245 148.979 161.234C148.979 161.302 148.917 161.302 148.917 161.37C148.73 161.642 148.544 162.049 148.419 162.321C148.233 162.661 148.109 163.001 147.922 163.341C147.673 164.021 147.363 164.769 147.176 165.449C146.99 166.197 146.741 166.877 146.617 167.556C146.492 168.236 146.368 168.916 146.244 169.596C146.182 170.276 146.119 170.888 146.057 171.432C146.057 171.704 145.995 171.976 145.995 172.248C145.995 172.52 145.995 172.792 145.995 172.996C145.995 173.471 145.995 173.879 145.995 174.219C145.995 174.899 145.995 175.307 145.995 175.307C145.995 175.307 145.995 174.899 145.933 174.219C145.933 173.879 145.933 173.471 145.871 172.996C145.871 172.792 145.871 172.52 145.871 172.248C145.871 171.976 145.871 171.704 145.933 171.432C145.995 170.82 145.995 170.208 146.057 169.528C146.119 168.848 146.244 168.168 146.368 167.421C146.492 166.673 146.679 165.993 146.865 165.245C147.052 164.497 147.363 163.817 147.549 163.069C147.673 162.729 147.86 162.389 147.984 161.981C148.171 161.642 148.295 161.302 148.482 160.962C148.668 160.622 148.855 160.282 149.041 160.01C149.227 159.67 149.414 159.398 149.6 159.126C149.973 158.514 150.409 157.97 150.844 157.494C151.03 157.222 151.279 157.018 151.465 156.814C151.652 156.61 151.9 156.338 152.087 156.202C152.273 155.998 152.522 155.795 152.708 155.659C152.895 155.523 153.081 155.319 153.268 155.183C157.744 150.899 162.903 150.152 162.903 150.152C163.96 148.18 165.141 146.344 166.322 144.576C171.108 137.574 176.64 136.418 183.043 133.562C189.446 130.707 194.605 123.296 195.164 122.616C195.724 121.936 196.159 121.257 196.967 119.285C197.713 117.381 196.283 116.633 196.283 116.633C195.04 117.109 194.543 118.469 194.543 118.469C194.294 117.041 195.724 115.546 195.91 115.342C194.729 116.701 192.989 116.429 192.989 116.429C195.102 116.021 196.594 111.942 196.594 111.942C195.164 114.458 193.113 113.914 193.113 113.914C194.729 113.846 195.662 111.194 196.035 109.699C196.408 108.203 198.832 106.095 198.832 106.095C195.599 108.611 194.17 107.319 194.17 107.319C196.159 107.387 198.645 104.056 198.645 104.056C194.294 106.979 193.113 104.871 193.113 104.871C196.656 105.619 197.899 102.424 197.899 102.424C195.599 101.472 192.802 102.764 192.802 102.764C193.61 101.336 195.289 100.996 196.408 100.928C194.543 100.588 194.543 98.9565 194.543 98.9565C195.537 100.316 197.154 99.7723 197.154 99.7723C197.154 99.7723 197.402 97.8686 198.894 97.2568C200.448 96.6449 203.68 94.7412 201.443 95.0131C199.205 95.2851 199.081 97.1208 199.081 97.1208C199.081 94.4692 200.697 93.9253 201.629 93.8573C199.018 93.8573 198.272 92.4296 198.272 92.4296C201.878 94.4012 207.286 91.3418 205.048 91.0698C204.986 91.0698 204.924 91.0698 204.799 91.0698C202.686 90.8659 200.945 91.8857 200.945 91.8857C201.753 90.7299 203.743 89.982 204.426 89.846C202.624 90.322 202.126 89.1662 202.126 89.1662C203.68 89.846 205.732 88.7582 206.478 87.3985C207.224 86.0387 209.71 84.543 209.71 84.543C209.71 84.543 209.088 84.7469 206.726 86.1067C204.364 87.4665 203.494 86.3786 203.494 86.3786C204.551 86.5826 207.348 83.9991 208.529 82.4353C209.648 80.8716 211.761 81.0756 211.761 81.0756C209.959 79.0359 205.421 82.9792 205.421 82.9792C205.421 82.9792 206.043 80.7356 209.524 79.6478C213.005 78.56 214.123 80.9396 214.123 80.9396C214.123 80.9396 214.372 78.2201 211.451 78.696C208.529 79.1719 208.218 77.1323 208.218 77.1323C208.218 77.1323 209.213 78.492 211.451 77.3362C213.688 76.1804 215.677 79.2399 215.677 79.2399C215.304 76.7243 213.253 76.0445 213.253 76.0445C215.988 75.7725 217.231 79.9198 217.231 79.9198C217.48 79.5798 218.848 78.696 218.848 78.696C216.796 78.0841 216.983 76.6563 216.983 76.6563C216.983 76.6563 217.853 78.1521 220.091 77.6082C222.329 76.9963 223.634 79.1039 223.634 79.1039C223.758 77.4042 222.267 76.8603 222.267 76.8603C224.629 76.6563 225.561 79.7158 225.561 79.7158C225.996 75.5005 229.104 74.6167 229.104 74.6167C228.545 75.7725 229.104 79.5118 229.104 79.5118C229.664 79.3759 230.658 79.9878 230.658 79.9878C230.72 79.5798 231.777 78.356 232.834 77.7442C233.891 77.1323 234.388 75.7725 234.388 75.7725C235.755 79.5118 232.523 82.7073 232.523 82.7073C232.523 82.7073 232.461 84.475 234.077 86.9905C235.693 89.5061 234.761 90.7299 233.953 93.2454C233.145 95.761 235.507 105.075 236.191 105.823C236.874 106.571 234.512 108.679 234.139 110.65C233.766 112.622 232.523 112.01 232.523 112.01C228.793 111.942 230.285 111.942 228.358 110.65C226.493 109.359 228.607 107.523 227.55 106.571C226.493 105.619 225.81 103.852 224.38 102.152C222.95 100.452 222.577 102.832 223.448 111.33C224.38 119.761 224.877 120.985 227.302 122.684C229.726 124.384 230.161 129.619 230.161 129.619C230.161 129.619 234.637 127.579 236.004 126.9C237.372 126.288 238.801 126.016 240.542 126.084C242.282 126.152 242.407 128.123 243.588 128.939C244.769 129.755 249.493 132.679 251.544 133.426C253.596 134.174 252.228 134.99 253.285 137.506C254.342 140.021 255.087 139.001 255.771 140.361C256.455 141.721 257.76 144.508 257.76 144.508C257.76 144.508 253.658 144.916 252.601 144.237C251.606 143.489 249.244 143.013 250.55 141.381C251.793 139.749 251.047 138.254 249.182 137.778C247.317 137.302 247.566 136.35 245.453 134.446C243.339 132.543 239.236 130.367 236.253 133.63C233.269 136.894 230.41 139.681 230.41 139.681C232.772 140.633 238.304 140.973 238.304 140.973C241.039 145.596 242.096 144.78 239.05 150.559C236.004 156.27 237.807 159.806 235.569 159.602C233.331 159.398 230.347 162.253 228.42 163.205C226.493 164.157 225.25 166.741 224.629 165.585C224.007 164.429 224.939 159.194 225.375 159.126C225.748 159.058 226.804 158.514 227.737 157.426C228.669 156.338 228.358 157.086 229.353 158.174C230.347 159.262 231.591 158.31 231.28 157.086C231.031 155.863 230.783 156.61 232.274 155.387C233.828 154.163 236.128 148.316 236.128 147.772C236.128 147.228 236.501 143.693 233.331 145.256C230.161 146.82 222.826 147.976 219.407 149.948C215.988 151.987 215.367 150.831 215.367 150.831C203.68 161.438 193.61 162.185 193.61 162.185C197.713 178.639 186.151 187.273 187.705 193.052C189.259 198.763 194.045 202.706 195.786 204.814C197.589 206.922 195.475 205.698 196.718 207.33C198.024 208.961 200.448 209.369 201.007 211.273C201.567 213.177 203.929 214.4 202.997 215.352C202.064 216.236 197.278 216.032 196.532 215.352C195.848 214.672 195.04 212.701 195.848 211.681C196.594 210.661 195.599 210.049 194.045 209.641C192.491 209.233 192.616 210.865 191.124 209.029C189.57 207.126 184.846 196.859 182.981 194.48C181.054 192.1 178.132 191.012 179.313 189.449C180.557 187.885 181.613 181.902 182.173 178.435C182.732 174.967 180.619 171.636 180.619 173.199C180.619 174.763 179.065 176.327 179.065 176.327C178.132 185.301 173.968 188.837 174.03 191.148C174.092 193.46 172.911 195.84 172.786 197.947C172.724 200.055 174.838 205.698 176.516 208.621C178.194 211.545 176.454 210.117 177.076 211.885C177.697 213.72 180.432 214.808 180.432 214.808C182.919 219.771 183.478 218.14 182.173 219.703C180.805 221.267 176.703 220.247 176.143 219.703C175.646 219.159 174.216 217.596 174.651 216.44C175.086 215.284 174.9 214.468 173.843 213.516C172.786 212.565 172.165 214.06 171.543 213.177C170.922 212.293 169.616 202.706 168.373 199.239C167.068 195.772 164.581 191.828 165.638 191.012C166.633 190.197 168.187 187.409 169.43 182.65C170.673 177.891 164.208 172.316 164.208 172.316C159.608 165.449 159.173 159.806 160.603 154.911C157.557 156.474 156.811 160.758 156.687 162.049C156.625 162.321 156.625 162.593 156.625 162.933C156.625 163.409 156.625 163.817 156.625 164.361C156.687 164.973 156.811 165.517 156.998 166.061C157.122 166.333 157.308 166.673 157.433 167.013C157.619 167.353 157.744 167.692 157.868 168.032C158.116 168.712 158.365 169.392 158.552 170.004C158.738 170.684 158.862 171.296 158.987 171.908C159.111 172.52 159.173 173.132 159.173 173.675C159.235 174.219 159.173 174.695 159.173 175.171C159.173 175.647 159.111 175.987 159.111 176.327C159.111 176.667 159.049 176.871 159.049 177.075C159.049 177.211 159.049 177.347 159.049 177.347C159.049 177.347 159.049 177.279 159.049 177.075C159.049 176.939 159.049 176.667 159.049 176.327C159.049 175.987 159.049 175.647 159.049 175.171C159.049 174.763 158.987 174.219 158.925 173.675C158.862 173.132 158.8 172.588 158.676 171.976C158.552 171.364 158.365 170.752 158.179 170.14C157.93 169.528 157.681 168.916 157.371 168.236C157.184 167.896 157.06 167.624 156.873 167.353C156.811 167.217 156.749 167.149 156.687 167.013C156.811 168.372 156.935 169.868 157.184 171.296C157.308 172.112 157.495 172.86 157.619 173.675C157.806 174.423 157.992 175.171 158.179 175.919C158.614 177.347 159.111 178.639 159.67 179.726C159.795 179.998 159.919 180.27 160.043 180.474C160.168 180.678 160.292 180.95 160.416 181.154C160.665 181.562 160.914 181.902 161.1 182.174C161.535 182.718 161.722 183.058 161.722 183.058C161.722 183.058 161.473 182.786 161.038 182.242C160.852 181.97 160.603 181.63 160.292 181.222C160.168 181.018 160.043 180.814 159.857 180.61C159.733 180.406 159.546 180.134 159.422 179.862C158.862 178.842 158.241 177.551 157.744 176.123C157.495 175.375 157.246 174.627 157.06 173.879C156.873 173.132 156.625 172.316 156.5 171.5C156.376 170.82 156.252 170.208 156.127 169.528C156.189 171.16 156.376 172.996 156.687 174.831C156.811 175.579 156.935 176.327 157.184 177.007C157.371 177.687 157.619 178.367 157.992 178.91C158.303 179.522 158.614 180.134 158.925 180.746C159.173 181.358 159.422 181.902 159.546 182.446C159.857 183.534 159.857 184.486 159.919 185.165C159.919 185.845 159.981 186.185 159.981 186.185C159.981 186.185 159.919 185.777 159.857 185.165C159.795 184.486 159.733 183.534 159.36 182.514C159.173 181.97 158.925 181.426 158.676 180.882C158.365 180.338 158.054 179.726 157.681 179.182C157.308 178.571 156.998 177.891 156.749 177.211C156.5 176.463 156.314 175.783 156.127 175.035C155.817 173.607 155.568 172.112 155.381 170.684C155.381 171.228 155.381 171.84 155.444 172.384C155.506 172.928 155.506 173.539 155.568 174.015C155.63 174.559 155.692 175.035 155.754 175.511C155.817 175.987 155.941 176.395 156.003 176.735C156.065 177.075 156.189 177.415 156.252 177.687C156.376 178.231 156.438 178.503 156.438 178.503C156.438 178.503 156.314 178.231 156.127 177.687C156.065 177.415 155.941 177.143 155.817 176.735C155.692 176.395 155.568 175.987 155.444 175.511C155.319 175.171 155.257 174.763 155.195 174.423C155.257 174.695 155.257 174.967 155.319 175.171C155.381 175.579 155.444 175.987 155.568 176.395C155.692 177.211 155.879 178.027 156.065 178.842C156.252 179.658 156.5 180.474 156.687 181.29C156.811 181.698 156.935 182.106 157.06 182.582L157.371 183.806C157.495 184.214 157.619 184.621 157.681 185.097L157.93 186.389C157.992 186.797 158.116 187.273 158.179 187.681C158.241 188.089 158.303 188.565 158.303 188.973C158.365 189.381 158.427 189.857 158.427 190.265C158.427 190.672 158.489 191.148 158.489 191.556C158.489 191.964 158.552 192.372 158.552 192.848C158.552 193.256 158.552 193.664 158.552 194.072C158.552 194.48 158.552 194.888 158.552 195.296C158.552 195.704 158.489 196.111 158.489 196.519C158.489 196.927 158.427 197.335 158.427 197.675C158.427 198.083 158.365 198.423 158.303 198.831C158.241 199.579 158.179 200.327 158.054 201.007C157.93 201.687 157.868 202.366 157.744 203.046C157.557 204.338 157.308 205.494 157.06 206.514C156.811 207.533 156.562 208.417 156.376 209.165C155.941 210.593 155.63 211.409 155.63 211.409C155.63 211.409 155.941 210.593 156.314 209.097C156.5 208.349 156.749 207.466 156.935 206.446C157.122 205.426 157.371 204.27 157.557 202.978C157.681 202.366 157.744 201.687 157.806 200.939C157.868 200.259 157.93 199.511 157.992 198.763C157.992 198.423 158.054 198.015 158.054 197.607C158.054 197.199 158.054 196.859 158.116 196.451C158.116 196.044 158.116 195.636 158.179 195.296C158.179 194.888 158.179 194.48 158.179 194.072C158.179 193.664 158.179 193.256 158.179 192.848C158.179 192.44 158.116 192.032 158.116 191.624C158.054 191.216 158.054 190.808 157.992 190.4C157.93 189.993 157.868 189.585 157.806 189.109C157.744 188.701 157.681 188.293 157.619 187.817C157.557 187.409 157.433 187.001 157.371 186.593L157.122 185.369C157.06 184.961 156.873 184.554 156.749 184.146L156.376 182.922C156.252 182.514 156.127 182.106 156.003 181.698C155.941 181.494 155.879 181.358 155.817 181.154C157.433 188.089 157.744 194.48 157.806 197.471H157.868C157.868 197.471 157.868 197.743 157.868 198.151C157.868 198.355 157.868 198.627 157.806 198.967C157.806 199.239 157.806 199.375 157.806 199.375C157.806 199.579 157.806 199.783 157.744 200.055C157.619 201.551 157.371 203.59 156.998 205.562C156.625 207.533 155.941 209.437 155.257 210.729C153.641 213.924 152.833 213.652 152.957 213.516C153.081 213.38 153.206 213.109 153.392 212.905C153.517 212.633 153.703 212.361 153.827 212.021C154.387 210.661 153.579 212.089 152.833 213.38C152.708 213.584 152.646 213.72 152.522 213.924C152.522 213.992 151.963 214.672 151.838 214.876C151.714 215.012 151.59 215.148 151.527 215.216C151.465 215.284 151.465 215.284 151.527 215.216C151.59 215.148 152.646 213.244 152.833 210.797C152.833 210.457 152.833 210.117 152.833 209.777C152.771 209.845 152.771 209.913 152.708 209.981C152.522 210.253 152.336 210.525 152.087 210.797C151.652 211.273 151.341 211.817 151.03 212.361C150.719 212.905 150.471 213.448 150.284 214.06C150.16 214.332 150.098 214.672 149.911 214.944C149.725 215.216 149.538 215.488 149.29 215.624C148.855 215.964 148.419 216.236 147.984 216.44C147.114 216.848 146.306 216.848 145.746 216.712C145.498 216.644 145.311 216.508 145.187 216.44C145.311 216.508 145.498 216.576 145.809 216.644C146.119 216.712 146.43 216.712 146.865 216.644C146.928 216.644 147.984 216.236 148.606 214.944C148.606 214.876 148.668 214.672 148.792 214.4C148.792 214.332 148.855 214.128 148.917 213.924C149.041 213.177 149.165 212.157 149.29 211.069C149.041 211.681 148.792 212.293 148.544 212.769C148.357 213.109 148.171 213.38 148.046 213.652C147.86 213.924 147.736 214.128 147.549 214.264C147.425 214.4 147.3 214.536 147.238 214.604C147.3 214.536 147.425 214.4 147.549 214.196C147.673 214.06 147.798 213.788 147.984 213.584C148.109 213.312 148.295 213.041 148.419 212.701C148.855 211.681 149.352 208.009 149.352 208.009C149.29 208.281 149.227 208.553 149.165 208.893C148.792 210.865 148.171 212.769 147.425 214.06C147.3 214.264 147.238 214.4 147.114 214.604C147.114 214.672 147.114 214.672 147.052 214.74C146.99 215.012 146.865 215.216 146.803 215.42C146.679 215.76 146.555 215.964 146.555 215.964C146.555 215.964 146.617 215.76 146.741 215.352C146.803 215.216 146.803 215.08 146.865 214.876C146.679 215.148 146.555 215.284 146.368 215.488C146.244 215.624 146.119 215.76 146.057 215.828C146.057 215.488 146.057 215.488 146.057 215.488C146.057 215.488 146.119 215.42 146.182 215.352C146.244 215.284 146.368 215.148 146.492 214.944C146.617 214.808 146.741 214.536 146.928 214.332C146.99 214.196 147.052 214.06 147.114 213.924C147.176 213.72 147.176 213.516 147.238 213.244C147.3 212.905 147.3 212.565 147.363 212.157C147.425 211.749 147.425 211.341 147.425 210.933C147.425 210.593 147.425 210.185 147.425 209.845C146.182 215.828 142.949 215.556 142.949 215.556C146.679 214.944 146.99 206.174 146.99 205.562Z" fill="#E2E2E2"/>
</svg>
