<svg width="6" height="6" viewBox="0 0 6 6" fill="none" xmlns="http://www.w3.org/2000/svg">
<path id="Vector" d="M3.09158 4.71748C3.09158 4.96977 3.09231 5.22206 3.09158 5.47435C3.09085 5.65096 3.0294 5.79523 2.89699 5.90324C2.61901 6.12952 2.20057 5.9403 2.15595 5.56738C2.15083 5.5256 2.14863 5.48381 2.14863 5.44203C2.14863 4.94297 2.14863 4.44312 2.14863 3.94406C2.14863 3.88098 2.14863 3.88019 2.09889 3.91173C1.86992 4.05443 1.64095 4.19713 1.41198 4.33984C1.21958 4.45888 1.02938 4.58188 0.834797 4.6962C0.665812 4.79475 0.496097 4.77819 0.341011 4.65914C0.190315 4.54403 0.129598 4.37847 0.150813 4.18373C0.168369 4.02211 0.246644 3.89517 0.37832 3.81239C0.766764 3.56877 1.15667 3.32752 1.54658 3.08469C1.58023 3.06341 1.61388 3.04212 1.64826 3.02162C1.67021 3.00901 1.67606 2.99876 1.64973 2.9822C1.44051 2.8529 1.23202 2.72203 1.0228 2.59194C0.806267 2.45712 0.589001 2.32467 0.374662 2.1867C0.196168 2.07396 0.114236 1.85951 0.158128 1.64191C0.199094 1.43771 0.357837 1.28003 0.557545 1.25244C0.654108 1.23903 0.747744 1.25401 0.833334 1.30684C1.1062 1.47477 1.37833 1.64506 1.65046 1.81378C1.80335 1.90918 1.95624 2.00458 2.10986 2.09918C2.14644 2.12205 2.14863 2.12047 2.14863 2.07317C2.14863 1.55913 2.1479 1.04587 2.14936 0.531833C2.15009 0.316598 2.23495 0.151821 2.41637 0.0524816C2.6351 -0.0681446 2.91894 0.0311946 3.03379 0.26614C3.07622 0.352076 3.09231 0.443531 3.09231 0.539717C3.09231 1.04587 3.09231 1.55124 3.09231 2.0574C3.09231 2.06686 3.09304 2.07553 3.09231 2.08499C3.09085 2.11653 3.10328 2.11732 3.12523 2.10392C3.20204 2.05582 3.27885 2.00773 3.35639 1.95964C3.61609 1.79801 3.87578 1.63718 4.13548 1.47556C4.2196 1.42273 4.30373 1.36991 4.38859 1.31787C4.6812 1.13812 5.04258 1.32497 5.09013 1.68527C5.11719 1.88868 5.03599 2.08499 4.84872 2.20168C4.44126 2.45476 4.03379 2.70783 3.62633 2.9617C3.60804 2.97353 3.57659 2.98141 3.57659 3.00191C3.57585 3.02399 3.60731 3.03108 3.62633 3.04212C4.0038 3.27785 4.382 3.51201 4.75947 3.74774C4.83555 3.79505 4.91163 3.83999 4.97381 3.91015C5.14865 4.10726 5.1289 4.46283 4.93139 4.63312C4.7624 4.77898 4.56854 4.79711 4.37981 4.68121C3.97088 4.42814 3.56269 4.17348 3.15376 3.91961C3.1362 3.90858 3.11645 3.88492 3.09963 3.89517C3.08207 3.90542 3.09231 3.93617 3.09231 3.95746C3.09085 4.21054 3.09085 4.46361 3.09158 4.71748Z" fill="#FF4545"/>
</svg>
