<svg width="12" height="11" viewBox="0 0 12 11" fill="none" xmlns="http://www.w3.org/2000/svg">
<path d="M11.4752 9.92921L9.35889 7.82019C10.3708 6.49939 10.6364 4.7555 10.0637 3.19482C9.49085 1.63429 8.15866 0.472949 6.53046 0.114622C4.90229 -0.243746 3.20307 0.250474 2.02415 1.42548C0.845234 2.60041 0.349143 4.29375 0.708752 5.91624C1.06836 7.5388 2.23367 8.86639 3.79962 9.43727C5.36555 10.0081 7.11561 9.74331 8.441 8.73491L10.5573 10.8439C10.7249 10.987 10.9538 11.0357 11.1654 10.9734C11.377 10.911 11.5426 10.746 11.6052 10.5352C11.6677 10.3243 11.6189 10.0961 11.4753 9.92914L11.4752 9.92921ZM5.48125 8.43993C4.53145 8.43993 3.62054 8.06387 2.94892 7.39463C2.27728 6.7253 1.89999 5.81756 1.89999 4.87104C1.89999 3.92444 2.27736 3.01676 2.94892 2.34745C3.62056 1.67813 4.53145 1.30214 5.48125 1.30214C6.43112 1.30214 7.34195 1.67821 8.01357 2.34745C8.68521 3.01678 9.0625 3.92452 9.0625 4.87104C9.0625 5.81764 8.68513 6.72532 8.01357 7.39463C7.34193 8.06395 6.4311 8.43993 5.48125 8.43993Z" fill="#A4A4A4"/>
</svg>
