<svg width="66" height="52" viewBox="0 0 66 52" fill="none" xmlns="http://www.w3.org/2000/svg">
<g clip-path="url(#clip0_987_13341)">
<path d="M27.3929 16.7006C24.1734 15.7993 21.0892 14.9527 18.0185 14.0924C15.1777 13.3004 12.337 12.522 9.49622 11.73C8.0488 11.3203 7.69709 10.6375 8.17054 9.19007C10.362 2.48524 17.3286 -1.3656 24.1058 0.450573C30.9506 2.26675 37.7955 4.11024 44.6403 5.96738C45.1273 6.10393 45.5196 6.04931 45.966 5.80351C47.8869 4.69742 49.7807 3.56402 51.7422 2.55351C55.9086 0.409607 61.0625 1.84343 63.5786 5.81717C64.3361 7.00519 64.999 8.23419 65.6754 9.47683C66.2706 10.5556 66.0541 11.2384 64.999 11.8529C53.4872 18.5441 41.9889 25.2352 30.4772 31.9264C25.4585 34.835 20.4534 37.7573 15.4347 40.6659C14.339 41.3077 13.9061 41.2394 12.9998 40.3245C8.90102 36.1869 4.80223 32.0493 0.716967 27.9254C-0.270531 26.9285 -0.243476 26.1365 0.798131 25.2216C3.88237 22.5178 8.3464 22.3812 11.5389 24.9621C12.08 25.3991 12.4317 25.3581 12.9863 25.0304C17.5585 22.3539 22.1578 19.7184 26.7571 17.0693C26.9465 16.9873 27.1089 16.8781 27.3929 16.7006ZM3.31422 26.1365C3.31422 26.4915 3.46302 26.5735 3.57124 26.6691C7.12894 30.2604 10.6866 33.8382 14.2308 37.4296C14.6096 37.8119 14.8531 37.6754 15.2048 37.4705C26.1349 31.0934 37.065 24.7163 48.0086 18.3392C52.662 15.6218 57.329 12.9044 61.9959 10.2006C62.4017 9.96843 62.5641 9.79091 62.2529 9.34028C61.9148 8.86234 61.6577 8.32977 61.3466 7.82452C59.3851 4.56087 55.7327 3.59133 52.4591 5.50309C46.4394 9.01255 40.4198 12.5357 34.4001 16.0451C27.2441 20.2237 20.1152 24.3749 12.9863 28.5399C12.4452 28.8539 11.9176 29.0178 11.3224 28.731C10.9301 28.5399 10.6596 28.1848 10.362 27.8844C9.38801 26.8602 8.18407 26.2457 6.79075 26.1638C5.64093 26.0819 4.47757 26.1365 3.31422 26.1365ZM41.6508 8.30246C41.4343 8.22053 41.3126 8.16591 41.2044 8.1386C35.2117 6.5136 29.2191 4.86129 23.213 3.29091C19.0601 2.21213 14.7719 3.89175 12.2829 7.44217C12.0394 7.78356 11.7418 8.11129 12.3776 8.35709C12.5805 8.42536 12.6346 8.63019 12.5669 8.80772C12.3099 9.47683 12.7022 9.58608 13.2162 9.72263C18.9248 11.2657 24.6469 12.8088 30.3419 14.3791C30.7612 14.502 31.0994 14.4747 31.4917 14.2426C33.4126 13.0955 35.347 11.9894 37.2679 10.856C38.7018 10.0231 40.1357 9.19007 41.6508 8.30246Z" fill="black"/>
<path d="M33.452 49.0367C42.1501 49.0367 50.8482 49.0367 59.5463 49.0367C60.7367 49.0367 61.4537 49.8561 61.1696 50.8939C61.0208 51.4538 60.6691 51.8088 60.1145 51.9317C59.8169 52 59.4922 52.0136 59.1811 52.0136C42.0149 52.0136 24.8351 52.0136 7.66889 52.0136C7.35776 52.0136 7.03311 52 6.7355 51.9317C6.03208 51.7678 5.62626 51.167 5.66684 50.4159C5.70743 49.7059 6.24852 49.1323 6.95194 49.0641C7.15485 49.0367 7.35776 49.0504 7.56067 49.0504C16.1911 49.0367 24.8216 49.0367 33.452 49.0367Z" fill="black"/>
</g>
<defs>
<clipPath id="clip0_987_13341">
<rect width="66" height="52" fill="white"/>
</clipPath>
</defs>
</svg>
