<svg width="70" height="56" viewBox="0 0 70 56" fill="none" xmlns="http://www.w3.org/2000/svg">
<g clip-path="url(#clip0_987_13338)">
<path d="M15.5714 32.3934C14.8943 32.8743 14.4793 33.2022 14.0425 33.5082C12.055 34.9071 9.73984 34.6667 8.18914 32.765C5.74296 29.7486 3.34046 26.6667 0.959807 23.5847C-0.394327 21.8142 -0.285123 19.694 1.24374 17.8798C5.15325 13.2459 9.15014 8.65574 13.0378 3.97814C14.6977 1.96721 16.6197 0.415301 19.328 0.0874317C19.8303 0.0218579 20.3327 0 20.8568 0C30.3139 0 39.7929 0 49.25 0C52.1548 0 54.5136 1.07104 56.4138 3.30055C60.498 8.13115 64.626 12.9399 68.7539 17.7486C70.4356 19.7158 70.4575 21.9016 68.7976 23.8688C66.5698 26.5574 64.3202 29.2459 62.0924 31.9126C60.0831 34.3388 57.9863 34.5574 55.4528 32.6995C55.1907 32.5027 54.9941 32.2404 54.4699 32.1967C54.4699 33.1148 54.4918 34.0109 54.4699 34.8852C54.4481 36.0219 53.8802 36.6776 52.9848 36.6776C52.0893 36.6776 51.5214 36.0219 51.5214 34.8852C51.5214 31.0601 51.5214 27.235 51.5214 23.4098C51.5214 22.2951 52.0893 21.6175 52.9848 21.6175C53.8584 21.6175 54.4263 22.2732 54.4699 23.4098C54.4699 23.4535 54.4699 23.4754 54.4699 23.5191C53.7492 26.5355 55.6494 28.3934 57.484 30.2951C58.1174 30.929 58.8163 30.9071 59.4278 30.1858C61.8522 27.3661 64.2547 24.5464 66.679 21.7486C67.2905 21.0273 67.2469 20.4153 66.6572 19.7158C62.3982 14.7322 58.1392 9.74863 53.8802 4.78688C52.8756 3.62841 51.587 3.01639 50.0581 2.97268C48.8132 2.95082 47.5682 3.03825 46.3451 2.92896C45.3841 2.84153 45.1439 3.23497 44.9692 4.08743C44.1611 8.26229 41.6712 11.0164 37.6088 12.153C31.9302 13.7486 26.0331 9.85792 25.1158 4C24.9848 3.1694 24.7445 2.86339 23.8927 2.92896C22.7788 2.99454 21.6431 2.95082 20.5074 2.95082C18.6728 2.92896 17.1876 3.62841 16.0082 5.00546C11.8366 9.94535 7.66496 14.8415 3.49335 19.7377C2.85996 20.4809 2.79444 21.2022 3.42783 21.9891C5.69928 24.8743 7.97073 27.7814 10.2422 30.6448C10.8974 31.4754 11.9458 31.4973 12.6884 30.7104C12.8412 30.5574 12.9504 30.3607 13.1033 30.2076C15.1127 28.5027 16.1174 26.4262 15.7024 23.7158C15.5277 22.6229 16.2266 21.9016 17.1002 21.8798C18.0175 21.8579 18.6072 22.5574 18.6072 23.7596C18.6072 32.3934 18.6072 41.0273 18.6072 49.6612C18.6072 52.1967 19.3935 53.0055 21.9052 53.0055C30.6852 53.0055 39.4434 53.0055 48.2235 53.0055C50.6915 53.0055 51.4996 52.1967 51.4996 49.7486C51.4996 49.1366 51.4777 48.5027 51.5214 47.8907C51.587 47.1475 52.0238 46.6667 52.7445 46.5574C53.4653 46.4481 54.0331 46.7541 54.3171 47.4535C55.147 49.4208 54.186 53.377 52.548 54.7541C51.5214 55.6066 50.3639 56.0219 49.0316 56.0219C39.7055 56.0219 30.4013 56.0219 21.0753 56.0219C17.7991 56.0219 15.5932 53.7049 15.5714 50.2732C15.5495 45.9016 15.5714 41.5301 15.5714 37.1585C15.5714 35.6503 15.5714 34.1639 15.5714 32.3934ZM42.1517 3.06011C41.1689 3.06011 40.186 3.06011 39.225 3.06011C35.7305 3.06011 32.2578 3.06011 28.7632 3.06011C28.4138 3.06011 27.8459 2.79781 27.9551 3.62842C28.4356 7.01639 31.7336 9.74863 35.3155 9.63934C38.8756 9.55191 41.8678 6.68852 42.1517 3.06011Z" fill="black"/>
</g>
<defs>
<clipPath id="clip0_987_13338">
<rect width="70" height="56" fill="white"/>
</clipPath>
</defs>
</svg>
