<svg width="69" height="51" viewBox="0 0 69 51" fill="none" xmlns="http://www.w3.org/2000/svg">
<g clip-path="url(#clip0_987_13351)">
<path d="M34.4524 51C25.5909 51 16.7293 51 7.84907 51C3.29653 51 0.0179573 47.8125 0.0179573 43.2562C-0.000777432 31.4062 -0.000777432 19.575 0.0179573 7.725C0.036692 3.225 3.29653 0 7.79287 0C25.5534 0 43.3139 0 61.0744 0C65.8331 0 68.9805 3.1875 68.9805 7.95C68.9805 19.6313 68.9805 31.3125 68.9805 43.0125C68.9805 47.85 65.8518 51 61.037 51C52.1754 51 43.3139 51 34.4524 51ZM34.5086 21.375C24.3918 21.375 14.2751 21.3938 4.17707 21.3563C3.2778 21.3563 2.97804 21.5062 2.97804 22.5C3.03425 29.3062 2.99678 36.1125 2.99678 42.9375C2.99678 46.2375 4.77658 48.0188 8.07389 48.0188C25.7033 48.0188 43.3514 48.0188 60.9808 48.0188C64.2219 48.0188 66.0391 46.2188 66.0391 42.9938C66.0391 36.1125 66.0204 29.25 66.0579 22.3688C66.0579 21.525 65.8331 21.3375 65.0087 21.3563C54.8545 21.375 44.6815 21.375 34.5086 21.375ZM34.5461 18.4125C44.719 18.4125 54.892 18.4125 65.0649 18.4313C65.8143 18.4313 66.0953 18.2625 66.0766 17.4562C66.0391 14.2312 66.0766 11.025 66.0579 7.8C66.0391 4.9125 64.1282 3 61.2243 3C43.3889 3 25.5721 3 7.7554 2.98125C4.92646 2.98125 3.01551 4.9125 2.99678 7.7625C2.99678 10.95 3.03425 14.1375 2.97804 17.325C2.95931 18.2438 3.2216 18.45 4.12086 18.45C14.2564 18.4125 24.3918 18.4125 34.5461 18.4125Z" fill="black"/>
<path d="M50.1878 36.45C50.169 35.1563 51.162 34.125 52.4547 34.0875C53.7848 34.05 54.8714 35.1 54.8527 36.4125C54.834 37.6688 53.7661 38.7375 52.5296 38.7563C51.2744 38.7563 50.2065 37.7063 50.1878 36.45Z" fill="black"/>
</g>
<defs>
<clipPath id="clip0_987_13351">
<rect width="69" height="51" fill="white"/>
</clipPath>
</defs>
</svg>
