<svg width="66" height="57" viewBox="0 0 66 57" fill="none" xmlns="http://www.w3.org/2000/svg">
<g clip-path="url(#clip0_987_13345)">
<path d="M33.042 0C41.4076 0 49.7733 0 58.1599 0C62.9522 0 66 3.09874 66 7.92604C66 18.9508 66 29.9756 66 41.0004C66 45.6379 62.9312 48.7367 58.307 48.7367C53.6828 48.7367 49.0586 48.7578 44.4344 48.7156C43.7408 48.7156 43.2573 48.9053 42.7739 49.3902C41.0083 51.203 39.2217 52.9737 37.435 54.7655C34.6185 57.5692 30.2465 57.7589 27.2828 55.0817C25.307 53.2899 23.4783 51.3506 21.6287 49.4323C21.1242 48.9053 20.5987 48.7156 19.8841 48.7156C15.7854 48.7578 11.6866 48.7367 7.5879 48.7367C3.13185 48.7156 0 45.5747 0 41.1269C0 29.9967 0 18.8454 0 7.71524C0 3.1409 3.13185 0 7.73503 0C16.1637 0 24.6134 0 33.042 0ZM33.1471 3.1409C33.1471 3.16198 33.1471 3.18306 33.1471 3.18306C24.8025 3.18306 16.479 3.18306 8.1344 3.18306C4.87643 3.18306 3.21592 4.82729 3.21592 8.09468C3.21592 18.9508 3.21592 29.807 3.21592 40.6631C3.21592 43.9726 4.89745 45.6169 8.21847 45.6169C12.4854 45.6169 16.7732 45.6379 21.0401 45.6169C21.9439 45.6169 22.6376 45.8909 23.2682 46.5444C25.2229 48.5681 27.2197 50.5496 29.2166 52.51C31.1503 54.4283 33.6096 54.4072 35.5433 52.4889C37.4981 50.5285 39.4739 48.5891 41.4076 46.5865C42.0592 45.912 42.7739 45.5958 43.7197 45.6169C48.4911 45.659 53.2414 45.6379 58.0127 45.6379C61.2287 45.6379 62.8682 43.9937 62.8682 40.7896C62.8682 29.8702 62.8682 18.9297 62.8682 8.01036C62.8682 4.78513 61.2497 3.1409 58.0548 3.1409C49.7522 3.1409 41.4497 3.1409 33.1471 3.1409Z" fill="black"/>
<path d="M17.383 28.6897C15.6384 28.6897 14.2722 27.2984 14.2932 25.5488C14.2932 23.8202 15.7225 22.4079 17.4251 22.4289C19.1276 22.45 20.5779 23.9045 20.5569 25.612C20.5149 27.3195 19.1066 28.6897 17.383 28.6897Z" fill="black"/>
<path d="M48.7857 28.6897C47.0411 28.6897 45.6328 27.3195 45.6328 25.5909C45.6328 23.9045 47.0621 22.429 48.7436 22.429C50.4252 22.429 51.8965 23.8835 51.8965 25.5699C51.9175 27.2773 50.5092 28.6897 48.7857 28.6897Z" fill="black"/>
<path d="M36.196 25.591C36.175 27.3406 34.7878 28.7108 33.0432 28.6897C31.2986 28.6686 29.9323 27.2774 29.9534 25.5277C29.9744 23.7781 31.4037 22.3657 33.1062 22.4079C34.8298 22.4501 36.196 23.8624 36.196 25.591Z" fill="black"/>
</g>
<defs>
<clipPath id="clip0_987_13345">
<rect width="66" height="57" fill="white"/>
</clipPath>
</defs>
</svg>
